<?xml version="1.0" encoding="UTF-8" standalone="no"?>
<svg
   viewBox="0 0 612 200"
   version="1.1"
   id="svg23"
   sodipodi:docname="staticcanvas-v3-banner.svg"
   xml:space="preserve"
   width="612"
   height="200"
   inkscape:version="1.4 (86a8ad7, 2024-10-11)"
   xmlns:inkscape="http://www.inkscape.org/namespaces/inkscape"
   xmlns:sodipodi="http://sodipodi.sourceforge.net/DTD/sodipodi-0.dtd"
   xmlns="http://www.w3.org/2000/svg"
   xmlns:svg="http://www.w3.org/2000/svg"><defs
     id="defs23" /><sodipodi:namedview
     id="namedview23"
     pagecolor="#ffffff"
     bordercolor="#000000"
     borderopacity="0.25"
     inkscape:showpageshadow="2"
     inkscape:pageopacity="0.0"
     inkscape:pagecheckerboard="0"
     inkscape:deskcolor="#d1d1d1"
     inkscape:zoom="0.16024704"
     inkscape:cx="-5310.5505"
     inkscape:cy="-1678.6582"
     inkscape:window-width="2991"
     inkscape:window-height="1460"
     inkscape:window-x="798"
     inkscape:window-y="191"
     inkscape:window-maximized="0"
     inkscape:current-layer="svg23" /><text
     x="208.92969"
     y="117.60487"
     fill="#1f2937"
     font-family="'SF Pro Display', 'Helvetica Neue', sans-serif"
     font-size="56.1782px"
     font-weight="700"
     letter-spacing="-1.5"
     id="text23"
     style="stroke-width:1.12356">StaticCanvas</text><g
     filter="url(#a)"
     transform="matrix(0.53921688,0,0,0.53921688,109.01565,101.50001)"
     id="g29"
     style="display:inline"><path
       fill="#e0e7ff"
       d="m -140,-130 h 280 l 20,-15 h -280 z"
       opacity="0.6"
       id="path2" /><path
       fill="#ddd6fe"
       d="m -140,-130 20,-15 v 290 l -20,-15 z"
       opacity="0.7"
       id="path3" /><path
       fill="#ffffff"
       stroke="#e5e7eb"
       stroke-width="3"
       d="M -140,-130 H 0 V 0 h -140 z"
       id="path4" /><g
       stroke="#d1d5db"
       opacity="0.4"
       id="g6"><path
         fill="none"
         stroke-dasharray="4, 4"
         d="M -130,-120 H -10 V 0 h -120 z"
         id="path5" /><path
         stroke-width="0.5"
         d="m -125,-100 h 110 m -110,20 h 110 m -110,20 h 110 m -110,20 h 110 m -110,20 h 110"
         id="path6" /></g><path
       fill="none"
       stroke="#f97316"
       stroke-linecap="round"
       stroke-width="4"
       d="m -110,-90 q 30,-5 60,5 30,10 30,5"
       opacity="0.8"
       id="path7" /><path
       fill="none"
       stroke="#fb923c"
       stroke-linecap="round"
       stroke-width="3"
       d="m -100,-50 q 30,5 60,-5"
       opacity="0.6"
       id="path8" /><circle
       cx="-80"
       cy="-20"
       r="8"
       fill="#f97316"
       opacity="0.7"
       id="circle8" /><circle
       cx="-40"
       cy="-10"
       r="5"
       fill="#fb923c"
       opacity="0.5"
       id="circle9" /><path
       fill="#4f46e5"
       d="M 0,-130 H 140 V 0 H 0 Z"
       id="path9" /><path
       fill="#4338ca"
       d="m 140,-130 20,-15 v 290 l -20,-15 z"
       opacity="0.8"
       id="path10" /><g
       fill="none"
       stroke="#ffffff"
       id="g13"><path
         stroke-width="3"
         d="M 0,-130 H 20 M 0,-98 H 20 M 0,-66 H 20 M 0,-34 H 20 M 0,-2 h 20"
         opacity="0.95"
         id="path11" /><path
         stroke-width="2"
         d="M 0,-114 H 14 M 0,-82 H 14 M 0,-50 H 14 M 0,-18 h 14"
         opacity="0.7"
         id="path12" /><path
         d="m 0,-122 h 8 m -8,16 h 8 m -8,16 h 8 m -8,16 h 8 m -8,16 h 8 m -8,16 h 8 m -8,16 h 8 m -8,16 h 8"
         opacity="0.5"
         id="path13" /></g><g
       fill="#ffffff"
       font-family="'SF Pro Display', '-apple-system', sans-serif"
       font-size="20px"
       font-weight="600"
       id="g16"><text
         x="32"
         y="-122"
         id="text13">0</text><text
         x="32"
         y="-90"
         id="text14">1</text><text
         x="32"
         y="-58"
         id="text15">2</text><text
         x="32"
         y="-26"
         id="text16">3</text></g><path
       fill="#6366f1"
       d="M -140,0 H 0 v 130 h -140 z"
       id="path16" /><path
       fill="#4338ca"
       d="m -140,130 20,15 h 280 l -20,-15 z"
       opacity="0.8"
       id="path17" /><g
       fill="none"
       stroke="#ffffff"
       id="g20"><path
         stroke-width="3"
         d="M -140,0 V 20 M -108,0 V 20 M -76,0 V 20 M -44,0 V 20 M -12,0 v 20"
         opacity="0.95"
         id="path18" /><path
         stroke-width="2"
         d="M -124,0 V 14 M -92,0 V 14 M -60,0 V 14 M -28,0 v 14"
         opacity="0.7"
         id="path19" /><path
         d="m -132,0 v 8 m 16,-8 v 8 m 16,-8 v 8 m 16,-8 v 8 m 16,-8 v 8 m 16,-8 v 8 m 16,-8 v 8 m 16,-8 v 8"
         opacity="0.5"
         id="path20" /></g><g
       fill="#ffffff"
       font-family="'SF Pro Display', '-apple-system', sans-serif"
       font-size="20px"
       font-weight="600"
       text-anchor="middle"
       id="g24"><text
         x="-144"
         y="40"
         id="text20">0</text><text
         x="-112"
         y="40"
         id="text21">1</text><text
         x="-80"
         y="40"
         id="text22">2</text><text
         x="-48"
         y="40"
         id="text23-4">3</text><text
         x="-16"
         y="40"
         id="text24">4</text></g><path
       fill="#ffffff"
       stroke="#e5e7eb"
       stroke-width="3"
       d="M 0,0 H 140 V 130 H 0 Z"
       id="path24" /><g
       stroke="#d1d5db"
       opacity="0.4"
       id="g26"><path
         fill="none"
         stroke-dasharray="4, 4"
         d="M 10,10 H 130 V 130 H 10 Z"
         id="path25" /><path
         stroke-width="0.5"
         d="M 15,30 H 125 M 15,50 H 125 M 15,70 H 125 M 15,90 H 125 M 15,110 h 110"
         id="path26" /></g><path
       fill="none"
       stroke="#f97316"
       stroke-linecap="round"
       stroke-width="4"
       d="M 25,40 60,70 95,50"
       opacity="0.8"
       id="path27" /><circle
       cx="45"
       cy="100"
       r="12"
       fill="none"
       stroke="#fb923c"
       stroke-width="3"
       opacity="0.7"
       id="circle27" /><path
       fill="#f97316"
       d="M 90,85.858 104.142,100 90,114.142 75.858,100 Z"
       opacity="0.6"
       id="path28" /><circle
       r="12"
       fill="#ffffff"
       stroke="#6366f1"
       stroke-width="3"
       id="circle28"
       cx="0"
       cy="0" /><circle
       r="6"
       fill="#6366f1"
       id="circle29"
       cx="0"
       cy="0" /></g></svg>
