<?xml version="1.0" encoding="UTF-8" standalone="no"?>
<svg
   version="1.1"
   style="display: block;"
   viewBox="0 0 2048 2048"
   width="1024"
   height="1024"
   preserveAspectRatio="none"
   id="svg30"
   sodipodi:docname="foxinsearch-logo.svg"
   inkscape:version="1.4 (86a8ad7, 2024-10-11)"
   xml:space="preserve"
   xmlns:inkscape="http://www.inkscape.org/namespaces/inkscape"
   xmlns:sodipodi="http://sodipodi.sourceforge.net/DTD/sodipodi-0.dtd"
   xmlns:xlink="http://www.w3.org/1999/xlink"
   xmlns="http://www.w3.org/2000/svg"
   xmlns:svg="http://www.w3.org/2000/svg"><sodipodi:namedview
     id="namedview30"
     pagecolor="#242424"
     bordercolor="#000000"
     borderopacity="0.25"
     inkscape:showpageshadow="2"
     inkscape:pageopacity="0.0"
     inkscape:pagecheckerboard="0"
     inkscape:deskcolor="#d1d1d1"
     showguides="false"
     inkscape:zoom="0.64461346"
     inkscape:cx="15.513173"
     inkscape:cy="571.66042"
     inkscape:window-width="2613"
     inkscape:window-height="1603"
     inkscape:window-x="1031"
     inkscape:window-y="135"
     inkscape:window-maximized="0"
     inkscape:current-layer="svg30" /><defs
     id="defs4"><linearGradient
       id="linearGradient32"
       inkscape:collect="always"><stop
         style="stop-color:#fe6901;stop-opacity:1;"
         offset="0"
         id="stop32" /><stop
         style="stop-color:#8f3000;stop-opacity:1;"
         offset="0.5"
         id="stop34" /><stop
         style="stop-color:#ff7236;stop-opacity:1;"
         offset="0.75"
         id="stop35" /><stop
         style="stop-color:#f53d00;stop-opacity:1;"
         offset="1"
         id="stop33" /></linearGradient><linearGradient
       id="Gradient1"
       gradientUnits="userSpaceOnUse"
       x1="430.757"
       y1="730.727"
       x2="478.398"
       y2="505.855"
       gradientTransform="matrix(1.0090823,-0.56510102,0.56510102,1.0090823,-281.09676,552.01373)"><stop
         class="stop0"
         offset="0"
         stop-opacity="1"
         stop-color="rgb(240,41,0)"
         id="stop1" /><stop
         class="stop1"
         offset="1"
         stop-opacity="1"
         stop-color="rgb(255,126,2)"
         id="stop2" /></linearGradient><linearGradient
       id="Gradient2"
       gradientUnits="userSpaceOnUse"
       x1="1251.7"
       y1="1450.59"
       x2="1097.04"
       y2="1456.01"
       gradientTransform="rotate(89.468797,1109.9318,924.41085)"><stop
         class="stop0"
         offset="0"
         stop-opacity="1"
         stop-color="rgb(195,253,253)"
         id="stop3" /><stop
         class="stop1"
         offset="1"
         stop-opacity="1"
         stop-color="rgb(255,255,255)"
         id="stop4" /></linearGradient><linearGradient
       id="Gradient1-7"
       gradientUnits="userSpaceOnUse"
       x1="430.757"
       y1="730.727"
       x2="478.398"
       y2="505.855"><stop
         class="stop0"
         offset="0"
         stop-opacity="1"
         stop-color="rgb(240,41,0)"
         id="stop1-6" /><stop
         class="stop1"
         offset="1"
         stop-opacity="1"
         stop-color="rgb(255,126,2)"
         id="stop2-1" /></linearGradient><linearGradient
       id="Gradient2-8"
       gradientUnits="userSpaceOnUse"
       x1="1251.7"
       y1="1450.59"
       x2="1097.04"
       y2="1456.01"><stop
         class="stop0"
         offset="0"
         stop-opacity="1"
         stop-color="rgb(195,253,253)"
         id="stop3-9" /><stop
         class="stop1"
         offset="1"
         stop-opacity="1"
         stop-color="rgb(255,255,255)"
         id="stop4-2" /></linearGradient><linearGradient
       inkscape:collect="always"
       xlink:href="#linearGradient32"
       id="linearGradient33"
       x1="1031.8233"
       y1="1597.1285"
       x2="1960.1441"
       y2="1597.1285"
       gradientUnits="userSpaceOnUse" /></defs><g
     style="display:inline"
     id="g32"
     transform="matrix(1.0275506,0,0,1.0275506,-957.03627,-24.092186)"><path
       fill="#000000"
       d="m 1208.87,1517.17 c -38.81,-2.96 -141.87,-21.67 -172.5,-51.1 -3.18,-3.05 -5.13,-9.56 -4.39,-14.27 1.2,-7.63 8.21,-15.09 14.61,-19 32.12,-19.61 82.03,-30.56 118.81,-37.05 109.26,-19.29 222.51,-25.11 333.33,-24.96 115.57,0.41 232.24,6.05 345.94,28.21 32.44,6.32 88.8,18.51 111.35,44.24 11.36,12.95 -3.07,27.72 -15.27,34.14 -37.1,19.53 -79.8,27.14 -120.6,35.15 -6.94,1.36 -32.2,4.38 -35.91,6.13 -0.34,2.68 -0.52,4.11 -0.57,6.84 0.19,4.64 0.24,9.27 0.14,13.91 -0.68,77.94 -33.01,152.26 -89.57,205.89 -54.74,52.22 -128.13,80.33 -203.75,78.04 -144.76,-3.57 -270.82,-119.56 -281.04,-265.14 -0.99,-13.98 -0.92,-27.03 -0.58,-41.03 z"
       id="path9"
       style="fill:url(#linearGradient33)" /><path
       fill="#0475d0"
       d="m 1208.87,1517.17 c -38.81,-2.96 -141.87,-21.67 -172.5,-51.1 -3.18,-3.05 -5.13,-9.56 -4.39,-14.27 1.2,-7.63 8.21,-15.09 14.61,-19 32.12,-19.61 82.03,-30.56 118.81,-37.05 109.26,-19.29 222.51,-25.11 333.33,-24.96 115.57,0.41 232.24,6.05 345.94,28.21 32.44,6.32 88.8,18.51 111.35,44.24 11.36,12.95 -3.07,27.72 -15.27,34.14 -37.1,19.53 -79.8,27.14 -120.6,35.15 -6.94,1.36 -32.2,4.38 -35.91,6.13 -0.34,2.68 -0.52,4.11 -0.57,6.84 -0.19,-3.31 -0.14,-3.37 -1.14,-6.5 -2.48,-0.81 -35.29,3.36 -41.14,3.99 -38.43,4.02 -76.97,6.9 -115.57,8.62 -96.87,4.8 -193.94,4.07 -290.73,-2.19 -36.2,-2.29 -90.43,-6.4 -126.22,-12.25 z"
       id="path10" /><path
       fill="#ffffff"
       d="m 1459.94,1397.45 c 69.6,-3.56 317.91,5.17 364.66,46.54 3.52,3.11 6.55,6.54 6.7,11.43 0.11,3.5 -2.17,6.98 -4.5,9.38 -32.87,33.9 -237.04,42.77 -292.43,43.78 -70.85,1.23 -322.88,-3.6 -368.31,-42.93 -2.84,-2.46 -5.42,-5.85 -5.29,-9.8 0.13,-3.72 2.33,-6.91 4.85,-9.48 38.51,-39.3 234.89,-47.23 294.32,-48.92 z"
       id="path11" /><path
       fill="#000000"
       d="m 1204.35,1462.18 c -3.83,-30.95 112.7,-41.53 135.41,-43.81 115.46,-11.07 231.77,-9.7 346.94,4.09 26.83,3.37 72.74,9.48 94.93,26.01 4.38,3.26 5.72,7.2 6.12,12.43 -20.41,23.33 -141.68,31.99 -173.2,34.11 -56.63,3.39 -113.37,4.31 -170.08,2.76 -42.94,-1 -213.17,-8.65 -240.12,-35.59 z"
       id="path12" /><path
       fill="#0475d0"
       d="m 1204.35,1462.18 c -3.83,-30.95 112.7,-41.53 135.41,-43.81 115.46,-11.07 231.77,-9.7 346.94,4.09 26.83,3.37 72.74,9.48 94.93,26.01 4.38,3.26 5.72,7.2 6.12,12.43 -29.2,-21.67 -79.12,-27.17 -115.59,-31.3 -123.06,-13.92 -254.2,-13.31 -377.02,3.38 -25.46,3.46 -72.36,11.34 -90.79,29.2 z"
       id="path13" /><path
       fill="url(#Gradient2)"
       d="m 1256.12,1400.93 0.77,2.03 c -117.14,15.43 -191.74,63.07 -21.31,96.21 l -0.52,2.36 c -29.06,-3.62 -108.63,-16.3 -127.84,-31.99 -56.43,-46.09 132.08,-66.6 148.9,-68.61 z"
       id="path14"
       style="fill:url(#Gradient2-8)" /><path
       fill="#ffffff"
       d="m 1743.84,1400.91 c 33.1,5.27 100.05,14.89 128.21,29.09 93.2,46.99 -107.15,72.05 -132.31,73.57 l -0.84,-0.46 c 29.04,-8.87 182.41,-30.17 86.64,-79.02 -11.58,-5.9 -68.47,-21.28 -82.48,-21.08 z"
       id="path15" /><path
       fill="#a1f1fc"
       d="m 1235.58,1499.17 c 7.34,1.27 17.15,2.66 24.08,4.81 -7.63,0.12 -17.06,-1.12 -24.6,-2.45 z"
       id="path16" /><path
       fill="#4bb4f5"
       d="m 1743.06,1403.01 c -5.64,-0.63 -12.9,-1.65 -18.1,-3.92 5.78,-0.26 13.3,0.17 18.88,1.82 z"
       id="path17" /><path
       fill="#4bb4f5"
       d="m 1256.12,1400.93 c 6.21,-1.34 14.74,-1.97 21.14,-1.84 -5.9,1.75 -14.21,3.41 -20.37,3.87 z"
       id="path18" /><path
       fill="#cdcccc"
       d="M 217.127,656.182 C 210.16,652.8 188.942,635.848 181.136,630.563 L 46.5185,537.785 186.378,567.089 c 12.357,2.605 58.62,13.093 68.125,12.842 18.299,17.23 34.6,31.05 53.798,47.259 -23.584,-6.306 -49.39,-12.043 -72.397,-19.297 11.631,21.538 28.363,47.025 41.576,68.415 -8.863,-3.175 -54.368,-20.275 -60.353,-20.126 z"
       id="path20-1" /></g><path
     fill="#fe6901"
     d="m 1552.2243,346.81342 c 9.0819,13.28216 60.8183,86.39869 69.9031,92.44303 -7.6473,22.44123 -55.073,142.12008 -54.4526,152.79056 l 0.2355,1.6987 c 26.2926,6.52164 48.9378,11.78519 75.5443,17.13954 -22.1207,32.2194 -47.5464,63.93417 -69.7869,96.24734 -7.0814,10.29114 -21.0691,27.96673 -26.8809,38.18173 -1.4099,24.06356 -0.3497,49.88679 -0.9306,74.12889 -0.1101,4.63219 -0.6645,27.57234 -0.083,30.59906 -30.0252,35.33634 -60.9529,70.00774 -90.5985,105.52523 -4.7532,-11.70709 -10.5351,-34.19791 -16.095,-44.41012 -3.5977,0.13246 -7.8699,3.03672 -11.224,4.90574 -15.465,10.09095 -38.3839,21.3338 -54.585,31.12779 -8.1695,4.93954 -36.8756,21.21029 -44.7975,23.82263 -6.926,2.28404 -35.562,6.30068 -44.5669,7.71295 l -86.703,13.60947 -109.8272,17.38004 c -11.8967,1.8798 -44.5251,7.7 -54.6363,7.6692 -10.11,28.1932 -22.2903,57.6389 -33.34142,85.6237 l -51.04633,130.0242 c -24.94298,6.4923 -49.65299,16.1417 -74.41235,23.4589 -38.11111,11.2688 -75.909,25.9276 -114.22637,36.2978 -14.87664,50.7552 -29.99239,106.0518 -46.1794,156.1028 -28.19559,16.0153 -56.195,32.3713 -83.99882,49.0553 14.28876,-46.1644 28.07622,-92.4856 41.36199,-138.9498 7.03245,-24.7295 15.47981,-59.281 23.43045,-82.8491 -21.45432,8.0684 -46.68593,11.9932 -68.2897,21.5227 -15.05992,-21.5024 -31.90363,-41.3377 -46.9629,-63.6318 21.65515,-10.1668 68.51413,-33.963 89.26517,-41.7676 4.77856,-11.0349 8.44285,-25.0632 11.99946,-36.7487 l 17.46699,-57.3067 c 20.93249,-68.6719 41.96784,-140.0314 64.49765,-207.89855 3.25784,-8.77035 12.02618,-36.21099 13.22872,-44.79799 l 406.18186,-170.34594 109.4186,-45.76316 c 16.3225,-6.8079 38.8117,-15.07824 53.7599,-23.53561 5.6972,-3.22366 22.2141,-19.12894 27.828,-24.39502 l 41.183,-38.53755 84.0159,-78.36619 c 12.2351,-11.50313 33.358,-30.42661 44.1611,-42.47463 2.3638,-22.69161 5.9012,-52.94515 10.1432,-75.28884 z"
     id="path5"
     style="stroke-width:1.15654" /><path
     fill="#f53d00"
     d="m 989.44858,951.36965 c 119.39552,-28.95124 237.80172,-62.37489 356.44682,-91.40699 16.4473,-20.97633 37.1397,-43.13027 52.314,-63.20815 l 41.0502,111.64709 c -3.7084,2.2305 -8.3614,4.71553 -11.4039,7.66152 -15.465,10.09095 -38.3839,21.3338 -54.585,31.12779 -8.1695,4.93954 -36.8756,21.21029 -44.7975,23.82263 -6.926,2.28404 -35.5619,6.30068 -44.5669,7.71295 l -86.703,13.60947 -109.8272,17.38004 c -11.8967,1.8798 -44.5251,7.7 -54.6363,7.6692 -10.11,28.1932 -22.2903,57.6389 -33.34142,85.6237 l -51.04632,130.0242 c -24.94298,6.4923 -49.65299,16.1417 -74.41236,23.4589 -38.1111,11.2688 -75.90899,25.9276 -114.22636,36.2978 -14.87665,50.7552 -29.9924,106.0518 -46.1794,156.1028 -28.1956,16.0153 -56.19501,32.3713 -83.99882,49.0553 14.28876,-46.1644 28.07622,-92.4856 41.36198,-138.9498 7.03246,-24.7295 15.47982,-59.281 23.43046,-82.8491 -21.45432,8.0684 -46.68593,11.9932 -68.28971,21.5227 -15.05991,-21.5024 -31.90362,-41.3377 -46.96289,-63.6318 21.65514,-10.1668 68.51412,-33.963 89.26517,-41.7676 25.81102,0.6012 59.37901,4.3502 85.60162,6.652 24.29516,2.1313 56.56707,4.0132 80.01535,7.4631 25.9371,-44.3831 55.85273,-89.2339 82.44231,-133.4721 24.36324,-40.5352 48.53907,-81.09261 73.04917,-121.54565 z"
     id="path6"
     style="stroke-width:1.15654" /><path
     fill="#000000"
     d="m 967.59618,1027.7559 c 21.4562,-2.3181 43.66352,-7.2122 65.14362,-10.3707 -10.11,28.1932 -22.2903,57.6389 -33.34142,85.6237 l -51.04632,130.0242 c -24.94298,6.4923 -49.65299,16.1417 -74.41236,23.4589 -38.1111,11.2688 -75.90899,25.9276 -114.22636,36.2978 -14.87665,50.7552 -29.9924,106.0518 -46.1794,156.1028 -28.1956,16.0153 -56.19501,32.3713 -83.99882,49.0553 14.28876,-46.1644 28.07622,-92.4856 41.36198,-138.9498 7.03246,-24.7295 15.47982,-59.281 23.43046,-82.8491 52.86522,-15.9682 105.89808,-31.3766 159.08871,-46.224 38.84357,-65.476 77.17303,-135.4774 114.17991,-202.1691 z"
     id="path7"
     style="stroke-width:1.15654" /><path
     fill="#f53d00"
     d="m 1552.2243,346.81342 c 9.0819,13.28216 60.8183,86.39869 69.9031,92.44303 -7.6473,22.44123 -55.073,142.12008 -54.4526,152.79056 l 0.2355,1.6987 c 26.2926,6.52164 48.9378,11.78519 75.5443,17.13954 -22.1207,32.2194 -47.5464,63.93417 -69.7869,96.24734 -7.0814,10.29114 -21.0691,27.96673 -26.8809,38.18173 -11.0527,-6.69451 -59.3074,-64.33925 -70.4828,-77.3596 10.3053,-17.69445 18.9032,-36.71002 28.6695,-54.72823 22.4875,-41.45845 41.7714,-84.8503 63.633,-126.55073 -7.8909,-19.67677 -20.7027,-44.9686 -26.5254,-64.5735 2.3638,-22.69161 5.9012,-52.94515 10.1432,-75.28884 z"
     id="path8"
     style="display:inline;stroke-width:1.15654" /><path
     fill="url(#Gradient1)"
     d="m 263.20202,912.39897 99.85827,-65.55214 c 16.14845,-10.63137 34.90787,-23.8079 51.1425,-33.70546 31.59825,1.61641 66.57194,5.28602 98.298,8.11531 l 162.51556,14.89216 65.92165,6.24802 c 9.79733,0.93298 25.22734,2.96261 34.59495,3.1235 -1.20254,8.587 -9.97089,36.02764 -13.22873,44.79799 -54.42086,29.76865 -112.94736,65.39959 -166.72377,96.78771 -65.99208,37.68284 -131.78786,75.70924 -197.38546,114.07534 -29.42943,-3.8623 -59.69631,-6.0057 -89.38361,-9.7248 -8.94145,0.5244 -39.93176,-4.5913 -50.79521,-5.5131 L 69.747091,1068.3953 227.43656,1018.9308 c 13.94132,-4.3544 66.55127,-19.91433 76.00076,-25.53893 18.31159,-8.27165 39.47729,-17.22717 57.26735,-26.08696 -27.07302,-1.98605 -62.3167,-5.70466 -89.0415,-9.63935 20.27734,-20.69138 40.97326,-40.96906 62.07494,-60.82041 -24.39304,5.52154 -45.6516,11.51339 -70.53609,15.55382 z"
     id="path19"
     style="fill:url(#Gradient1);stroke-width:1.15654" /><path
     fill="#cdcccc"
     d="m 308.81138,1091.4566 c -8.94145,0.5244 -39.93176,-4.5913 -50.79521,-5.5131 L 69.747091,1068.3953 227.43656,1018.9308 c 13.94132,-4.3544 66.55127,-19.91433 76.00076,-25.53893 28.20189,7.04573 52.46064,11.77953 80.99272,17.28703 -27.36172,6.9639 -56.64409,15.7578 -83.9593,21.4393 23.90779,15.1608 55.19449,31.4241 80.61501,45.5417 -10.7377,1.8046 -66.31922,10.2642 -72.27437,13.7967 z"
     id="path20"
     style="display:inline;stroke-width:1.15654" /><path
     fill="#fe6901"
     d="m 1552.2243,346.81342 c 5.1985,-13.15634 45.1672,-107.35625 48.1725,-109.37464 l 0.57,1.4438 c 6.325,6.44193 34.429,46.188 39.2697,54.85563 8.9421,-16.29467 17.6606,-32.70414 26.1569,-49.22647 5.1147,-10.06331 12.5525,-26.01405 18.1532,-35.16189 4.0439,44.87978 8.7689,89.69758 14.1783,134.43569 20.7322,9.2087 41.3803,18.62224 61.9223,28.24892 10.8738,5.07299 21.8378,9.76271 32.1433,15.71459 10.8554,6.27094 35.0292,36.37159 44.4671,39.06998 33.5103,9.58719 78.6457,13.11487 112.9449,19.13994 -0.6347,8.57124 -1.3218,17.14385 -2.0621,25.71583 -27.7433,0.45059 -65.5588,5.70935 -93.9489,8.67358 -49.8823,4.82523 -99.7021,10.18807 -149.4666,16.09927 -18.3589,14.98294 -49.6096,35.63329 -69.5882,49.64108 -19.5417,13.69943 -47.955,34.46941 -67.4619,45.95828 -0.6204,-10.67048 46.8053,-130.34933 54.4526,-152.79056 -9.0848,-6.04434 -60.8212,-79.16087 -69.9031,-92.44303 z"
     id="path21"
     style="display:inline;stroke-width:1.15654" /><path
     fill="#ffffff"
     d="m 1552.2243,346.81342 c 5.1985,-13.15634 45.1672,-107.35625 48.1725,-109.37464 l 0.57,1.4438 0.089,3.63897 c 9.2611,13.46012 64.1019,117.32864 63.6836,130.07342 -8.5971,9.52552 -25.0001,38.74708 -32.5253,51.15713 -3.2267,5.45758 -6.0599,10.57672 -10.087,15.50435 -9.0848,-6.04434 -60.8212,-79.16087 -69.9031,-92.44303 z"
     id="path22"
     style="display:inline;stroke-width:1.15654" /><path
     fill="#000000"
     d="m 1552.2243,346.81342 c 5.1985,-13.15634 45.1672,-107.35625 48.1725,-109.37464 l 0.57,1.4438 0.089,3.63897 -1.4177,71.31837 c -0.3877,17.79387 -1.9185,47.44072 1.7627,63.78971 4.361,19.38556 14.6178,42.38743 20.7263,61.62682 -9.0848,-6.04434 -60.8212,-79.16087 -69.9031,-92.44303 z"
     id="path23"
     style="stroke-width:1.15654" /><path
     fill="#cdcccc"
     d="m 1612.404,290.3841 c 17.0012,32.20467 16.3476,40.50542 18.7196,76.71921 9.4559,2.0441 24.2993,5.40035 33.6161,5.49166 -8.5971,9.52552 -25.0001,38.74708 -32.5253,51.15713 -6.9427,-17.15502 -20.2022,-46.60755 -21.4834,-64.11503 -1.3415,-18.39629 -0.7136,-51.12306 1.673,-69.25297 z"
     id="path24"
     style="stroke-width:1.15654" /><path
     fill="#000000"
     d="m 1640.2365,293.73821 c 8.9421,-16.29467 17.6606,-32.70414 26.1569,-49.22647 5.1147,-10.06331 12.5525,-26.01405 18.1532,-35.16189 4.0439,44.87978 8.7689,89.69758 14.1783,134.43569 -9.5316,2.29435 -12.4109,2.26575 -22.7363,5.48586 -9.7621,-16.41391 -27.7326,-39.50874 -35.7521,-55.53319 z"
     id="path25"
     style="display:inline;stroke-width:1.15654" /><path
     fill="#000000"
     d="m 1754.3165,438.0594 c 5.4395,-3.06868 16.8712,-5.04724 23.2246,-6.38897 12.1827,6.46345 23.2121,12.19294 35.7172,18.02512 -6.9844,0.80696 -14.7875,2.16386 -21.8019,3.22487 -16.932,4.01559 -40.4826,7.69218 -58.0134,10.99327 7.3801,-8.14805 14.121,-17.15365 20.8735,-25.85429 z"
     id="path26"
     style="stroke-width:1.15654" /><path
     fill="#000000"
     d="m 1545.7732,850.04227 c 12.6497,-14.26585 69.9914,-102.20218 77.5492,-104.82545 30.5039,-8.20802 72.1522,-21.70025 102.1704,-32.69298 38.8825,25.54731 82.965,52.11932 120.6269,77.80668 13.625,29.08739 29.1626,58.6547 43.5194,87.55776 -24.0712,-3.40726 -48.1207,-7.01232 -72.127,-10.80059 -4.3173,-6.71525 -22.2128,-35.33316 -26.3522,-38.25101 -20.3203,-14.29609 -57.8066,-31.92972 -80.0522,-43.2256 -25.4261,11.76016 -50.9802,23.22091 -76.6609,34.40797 -12.3395,5.39917 -27.7187,11.45344 -39.4056,17.18962 32.3546,-4.90329 67.2549,-12.38549 99.7991,-18.32291 26.8901,27.63705 56.7884,54.27866 83.7743,81.96807 7.9089,8.11056 30.6152,29.01063 35.1279,37.02151 12.7085,22.57529 24.2309,50.32188 35.6936,73.82006 -23.3713,-4.3824 -51.4503,-8.6735 -74.2607,-13.90038 -20.9417,-37.15851 -25.7862,-40.64899 -58.6106,-67.85247 l -49.3792,-40.81143 -208.1072,67.08693 c -1.6875,0.56063 -1.2323,0.3322 -3.4092,0.0668 l -0.4946,-0.71713 c 29.6455,-35.51749 60.5732,-70.1889 90.5984,-105.52523 z"
     id="path27"
     style="stroke-width:1.15654" /><path
     fill="#cdcccc"
     d="m 1643.4546,610.88525 c 60.4815,-20.00664 122.3988,-39.15375 182.319,-59.76068 l 90.9522,-31.68234 c 6.9,-2.37805 30.0539,-11.04727 36.1149,-11.53846 l 0.6046,1.00812 c -3.1987,5.2709 -3.3746,6.09314 -8.5666,8.25444 l -2.088,0.88696 c -13.4767,5.641 -30.708,9.97401 -44.8445,14.95724 -54.3785,19.16443 -109.281,35.04989 -163.9543,53.59339 -9.741,12.71378 -108.978,152.1885 -110.6694,158.6128 -7.5578,2.62327 -64.8994,90.55959 -77.5491,104.82545 -0.5815,-3.02672 -0.027,-25.96687 0.083,-30.59906 0.581,-24.24211 -0.4791,-50.06534 0.9308,-74.1289 5.8117,-10.21499 19.7994,-27.89059 26.8808,-38.18172 22.2405,-32.31317 47.6662,-64.02793 69.7869,-96.24733 z"
     id="path28"
     style="stroke-width:1.15654" /><path
     fill="#000000"
     d="m 579.07496,1234.0399 c 15.05927,22.2941 31.90298,42.1294 46.96289,63.6318 -7.41467,21.3486 -17.63483,45.7093 -26.04664,66.8727 -11.80308,30.0482 -23.83285,60.0088 -36.09298,89.8728 -29.4242,16.2924 -58.72438,32.8064 -87.89206,49.5522 24.57205,-67.8655 52.07365,-135.0042 76.84753,-202.8384 8.00786,-21.9273 16.79719,-45.7943 26.22126,-67.0911 z"
     id="path29"
     style="display:inline;stroke-width:1.15654" /><path
     fill="#000000"
     d="m 1950.2025,445.95897 c 11.2393,1.58357 22.1655,3.41274 33.5256,3.50761 -3.0628,10.60296 -6.5985,21.99444 -9.2262,32.64012 -9.4347,-4.70447 -15.9604,-8.1204 -26.3615,-10.4319 0.7403,-8.57198 1.4274,-17.14459 2.0621,-25.71583 z"
     id="path30"
     style="display:inline;stroke-width:1.15654" /><path
     style="fill:#000000;fill-opacity:0.916667;stroke:none;stroke-width:23.302;paint-order:stroke fill markers"
     d="m 1569.3759,593.3461 136.6692,-95.24574 214.1619,-23.67055 18.5984,-1.12716 8.1719,-0.2818 13.2442,3.6633 14.0897,5.63585 -15.7804,10.42631 -3.0997,13.80781 c 0,0 -314.1983,103.9813 -313.0711,104.26309"
     id="path31" /></svg>
