<?xml version="1.0" encoding="UTF-8" standalone="no"?>
<svg
   viewBox="0 0 100 100"
   version="1.1"
   id="svg7"
   sodipodi:docname="hydrozoa-logo.svg"
   xmlns:inkscape="http://www.inkscape.org/namespaces/inkscape"
   xmlns:sodipodi="http://sodipodi.sourceforge.net/DTD/sodipodi-0.dtd"
   xmlns="http://www.w3.org/2000/svg"
   xmlns:svg="http://www.w3.org/2000/svg">
  <sodipodi:namedview
     id="namedview7"
     pagecolor="#ffffff"
     bordercolor="#000000"
     borderopacity="0.25"
     inkscape:showpageshadow="2"
     inkscape:pageopacity="0.0"
     inkscape:pagecheckerboard="0"
     inkscape:deskcolor="#d1d1d1" />
  <defs
     id="defs2">
    <linearGradient
       id="logoGrad"
       x1="0%"
       y1="0%"
       x2="100%"
       y2="100%">
      <stop
         offset="0%"
         stop-color="#00f3ff"
         id="stop1" />
      <stop
         offset="100%"
         stop-color="#ff00ff"
         id="stop2" />
    </linearGradient>
  </defs>
  <path
     d="M 50 20 C 30 20 15 35 15 55 C 15 65 25 70 50 70 C 75 70 85 65 85 55 C 85 35 70 20 50 20 Z"
     fill="url(#logoGrad)"
     opacity="0.9"
     id="path2" />
  <path
     d="M 30 70 Q 25 85 30 95"
     fill="none"
     stroke="url(#logoGrad)"
     stroke-width="3"
     stroke-linecap="round"
     id="path3" />
  <path
     d="M 40 70 Q 35 90 40 95"
     fill="none"
     stroke="url(#logoGrad)"
     stroke-width="3"
     stroke-linecap="round"
     id="path4" />
  <path
     d="M 50 70 Q 45 85 50 95"
     fill="none"
     stroke="url(#logoGrad)"
     stroke-width="3"
     stroke-linecap="round"
     id="path5" />
  <path
     d="M 60 70 Q 55 90 60 95"
     fill="none"
     stroke="url(#logoGrad)"
     stroke-width="3"
     stroke-linecap="round"
     id="path6" />
  <path
     d="M 70 70 Q 65 85 70 95"
     fill="none"
     stroke="url(#logoGrad)"
     stroke-width="3"
     stroke-linecap="round"
     id="path7" />
  <circle
     cx="50"
     cy="45"
     r="8"
     fill="white"
     opacity="0.3"
     id="circle7" />
</svg>
