<svg viewBox="0 0 1200 800" xmlns="http://www.w3.org/2000/svg">
  <!-- Background -->
  <rect width="1200" height="800" fill="#0a0e1a"/>
  
  <!-- Title -->
  <text x="600" y="40" font-family="Arial, sans-serif" font-size="24" fill="#64748b" text-anchor="middle" font-weight="600">PAWS - Performance Augmented Working Strings</text>
  <text x="600" y="65" font-family="Arial, sans-serif" font-size="14" fill="#475569" text-anchor="middle">Hybrid C# / PowerShell Performance Engine</text>
  
  <!-- PRIMARY LOGO -->
  <g id="primary-logo">
    <text x="100" y="115" font-family="Arial, sans-serif" font-size="16" fill="#94a3b8" font-weight="600">PRIMARY LOGO</text>
    
    <g transform="translate(180, 160)">
      <!-- Paw print icon with performance elements -->
      <g id="paw-icon">
        <!-- Main pad (center) with gradient -->
        <ellipse cx="50" cy="60" rx="28" ry="32" fill="url(#pawGradient)" stroke="#06b6d4" stroke-width="2.5"/>
        
        <!-- Speed lines through center (representing performance) -->
        <line x1="30" y1="50" x2="70" y2="50" stroke="#22d3ee" stroke-width="2.5" opacity="0.6" stroke-linecap="round"/>
        <line x1="28" y1="60" x2="72" y2="60" stroke="#22d3ee" stroke-width="3" opacity="0.8" stroke-linecap="round"/>
        <line x1="30" y1="70" x2="70" y2="70" stroke="#22d3ee" stroke-width="2.5" opacity="0.6" stroke-linecap="round"/>
        
        <!-- Toe pads (representing String characters/elements) -->
        <!-- Top left toe -->
        <ellipse cx="28" cy="30" rx="12" ry="16" fill="url(#toeGrad1)" stroke="#06b6d4" stroke-width="2" transform="rotate(-15 28 30)"/>
        
        <!-- Top middle toe -->
        <ellipse cx="50" cy="22" rx="12" ry="18" fill="url(#toeGrad2)" stroke="#06b6d4" stroke-width="2"/>
        
        <!-- Top right toe -->
        <ellipse cx="72" cy="30" rx="12" ry="16" fill="url(#toeGrad3)" stroke="#06b6d4" stroke-width="2" transform="rotate(15 72 30)"/>
        
        <!-- Bottom toe (StringBuilder indicator) -->
        <ellipse cx="50" cy="95" rx="10" ry="14" fill="url(#toeGrad4)" stroke="#06b6d4" stroke-width="2"/>
        
        <!-- Performance pulse rings -->
        <circle cx="50" cy="60" r="45" fill="none" stroke="#06b6d4" stroke-width="1.5" opacity="0.2">
          <animate attributeName="r" values="45;52;45" dur="2s" repeatCount="indefinite"/>
          <animate attributeName="opacity" values="0.2;0;0.2" dur="2s" repeatCount="indefinite"/>
        </circle>
      </g>
      
      <!-- Typography -->
      <g transform="translate(120, 20)">
        <text x="0" y="50" font-family="Consolas, Courier New, monospace" font-size="56" fill="#f8fafc" font-weight="bold" letter-spacing="3">PAWS</text>
        <text x="0" y="68" font-family="Arial, sans-serif" font-size="11" fill="#64748b" letter-spacing="3" font-weight="500">PERFORMANCE ENGINE</text>
      </g>
    </g>
  </g>
  
  <!-- ICON MARK -->
  <g id="icon-mark">
    <text x="100" y="330" font-family="Arial, sans-serif" font-size="16" fill="#94a3b8" font-weight="600">ICON MARK</text>
    
    <g transform="translate(200, 370)">
      <!-- Container -->
      <rect x="0" y="0" width="110" height="110" rx="22" fill="url(#iconBg)" stroke="url(#iconStroke)" stroke-width="3"/>
      
      <!-- Paw centered -->
      <g transform="translate(55, 55)">
        <!-- Main pad -->
        <ellipse cx="0" cy="5" rx="24" ry="28" fill="url(#pawGradient)" stroke="#06b6d4" stroke-width="2.5"/>
        
        <!-- Speed lines -->
        <line x1="-18" y1="-3" x2="18" y2="-3" stroke="#22d3ee" stroke-width="2.5" opacity="0.6" stroke-linecap="round"/>
        <line x1="-20" y1="5" x2="20" y2="5" stroke="#22d3ee" stroke-width="3" opacity="0.8" stroke-linecap="round"/>
        <line x1="-18" y1="13" x2="18" y2="13" stroke="#22d3ee" stroke-width="2.5" opacity="0.6" stroke-linecap="round"/>
        
        <!-- Toes -->
        <ellipse cx="-19" cy="-22" rx="10" ry="14" fill="url(#toeGrad1)" stroke="#06b6d4" stroke-width="2" transform="rotate(-15 -19 -22)"/>
        <ellipse cx="0" cy="-28" rx="10" ry="15" fill="url(#toeGrad2)" stroke="#06b6d4" stroke-width="2"/>
        <ellipse cx="19" cy="-22" rx="10" ry="14" fill="url(#toeGrad3)" stroke="#06b6d4" stroke-width="2" transform="rotate(15 19 -22)"/>
        <ellipse cx="0" cy="35" rx="9" ry="12" fill="url(#toeGrad4)" stroke="#06b6d4" stroke-width="2"/>
      </g>
    </g>
  </g>
  
  <!-- ALTERNATIVE CONCEPT: Code Performance -->
  <g id="code-concept">
    <text x="650" y="115" font-family="Arial, sans-serif" font-size="16" fill="#94a3b8" font-weight="600">ALTERNATIVE: CODE PERFORMANCE</text>
    
    <g transform="translate(650, 150)">
      <!-- Container box -->
      <rect x="0" y="0" width="400" height="200" rx="12" fill="#1e293b" stroke="#475569" stroke-width="2"/>
      
      <!-- Header -->
      <rect x="0" y="0" width="400" height="35" rx="12" fill="#334155"/>
      <rect x="0" y="23" width="400" height="12" fill="#334155"/>
      
      <!-- Dots -->
      <circle cx="18" cy="17" r="6" fill="#ef4444"/>
      <circle cx="38" cy="17" r="6" fill="#fbbf24"/>
      <circle cx="58" cy="17" r="6" fill="#22c55e"/>
      
      <text x="200" y="24" font-family="Consolas, monospace" font-size="13" fill="#94a3b8" text-anchor="middle" font-weight="600">StringBuilder Performance</text>
      
      <!-- Code content -->
      <g transform="translate(20, 55)">
        <!-- Line 1 -->
        <text x="0" y="20" font-family="Consolas, monospace" font-size="13" fill="#a78bfa">var</text>
        <text x="40" y="20" font-family="Consolas, monospace" font-size="13" fill="#f8fafc">sb</text>
        <text x="70" y="20" font-family="Consolas, monospace" font-size="13" fill="#94a3b8">=</text>
        <text x="90" y="20" font-family="Consolas, monospace" font-size="13" fill="#a78bfa">new</text>
        <text x="130" y="20" font-family="Consolas, monospace" font-size="13" fill="#22d3ee">StringBuilder</text>
        <text x="265" y="20" font-family="Consolas, monospace" font-size="13" fill="#fbbf24">();</text>
        
        <!-- Performance indicator -->
        <rect x="300" y="10" width="60" height="16" rx="8" fill="#059669" opacity="0.2"/>
        <text x="330" y="22" font-family="Arial, sans-serif" font-size="10" fill="#10b981" text-anchor="middle" font-weight="600">FAST</text>
        
        <!-- Line 2 -->
        <text x="0" y="45" font-family="Consolas, monospace" font-size="13" fill="#f8fafc">sb</text>
        <text x="25" y="45" font-family="Consolas, monospace" font-size="13" fill="#94a3b8">.</text>
        <text x="35" y="45" font-family="Consolas, monospace" font-size="13" fill="#fbbf24">Append</text>
        <text x="95" y="45" font-family="Consolas, monospace" font-size="13" fill="#94a3b8">(</text>
        <text x="105" y="45" font-family="Consolas, monospace" font-size="13" fill="#34d399">&quot;PAWS&quot;</text>
        <text x="170" y="45" font-family="Consolas, monospace" font-size="13" fill="#94a3b8">);</text>
        
        <!-- Line 3 - TrueColor -->
        <text x="0" y="70" font-family="Consolas, monospace" font-size="13" fill="#22d3ee">Console</text>
        <text x="70" y="70" font-family="Consolas, monospace" font-size="13" fill="#94a3b8">.</text>
        <text x="80" y="70" font-family="Consolas, monospace" font-size="13" fill="#fbbf24">WriteLine</text>
        <text x="165" y="70" font-family="Consolas, monospace" font-size="13" fill="#94a3b8">(</text>
        <text x="175" y="70" font-family="Consolas, monospace" font-size="13" fill="#f8fafc">colored</text>
        <text x="235" y="70" font-family="Consolas, monospace" font-size="13" fill="#94a3b8">);</text>
        
        <!-- TrueColor gradient bar -->
        <rect x="0" y="85" width="360" height="8" rx="4" fill="url(#trueColorGrad)"/>
        <text x="0" y="105" font-family="Arial, sans-serif" font-size="10" fill="#64748b">TrueColor Rendering</text>
        
        <!-- Performance metrics -->
        <g transform="translate(0, 115)">
          <text x="0" y="15" font-family="Consolas, monospace" font-size="11" fill="#10b981">✓ 100x faster string operations</text>
          <text x="0" y="32" font-family="Consolas, monospace" font-size="11" fill="#10b981">✓ Native C# performance</text>
        </g>
      </g>
    </g>
  </g>
  
  <!-- COLOR VARIATIONS -->
  <g id="variations">
    <text x="100" y="540" font-family="Arial, sans-serif" font-size="16" fill="#94a3b8" font-weight="600">COLOR VARIATIONS</text>
    
    <!-- Cyan Primary -->
    <g transform="translate(100, 575)">
      <rect width="90" height="90" rx="18" fill="url(#cyanBg)" stroke="#06b6d4" stroke-width="2.5"/>
      <g transform="translate(45, 45)">
        <ellipse cx="0" cy="5" rx="20" ry="23" fill="url(#pawGradient)" stroke="#06b6d4" stroke-width="2"/>
        <line x1="-15" y1="-2" x2="15" y2="-2" stroke="#22d3ee" stroke-width="2" opacity="0.6" stroke-linecap="round"/>
        <line x1="-16" y1="5" x2="16" y2="5" stroke="#22d3ee" stroke-width="2.5" opacity="0.8" stroke-linecap="round"/>
        <line x1="-15" y1="12" x2="15" y2="12" stroke="#22d3ee" stroke-width="2" opacity="0.6" stroke-linecap="round"/>
        <ellipse cx="-16" cy="-18" rx="8" ry="11" fill="url(#toeGrad1)" stroke="#06b6d4" stroke-width="1.5"/>
        <ellipse cx="0" cy="-23" rx="8" ry="12" fill="url(#toeGrad2)" stroke="#06b6d4" stroke-width="1.5"/>
        <ellipse cx="16" cy="-18" rx="8" ry="11" fill="url(#toeGrad3)" stroke="#06b6d4" stroke-width="1.5"/>
        <ellipse cx="0" cy="28" rx="7" ry="10" fill="url(#toeGrad4)" stroke="#06b6d4" stroke-width="1.5"/>
      </g>
      <text x="45" y="110" font-family="Arial, sans-serif" font-size="10" fill="#64748b" text-anchor="middle">Cyan</text>
    </g>
    
    <!-- Purple Performance -->
    <g transform="translate(220, 575)">
      <rect width="90" height="90" rx="18" fill="url(#purpleBg)" stroke="#a78bfa" stroke-width="2.5"/>
      <g transform="translate(45, 45)">
        <ellipse cx="0" cy="5" rx="20" ry="23" fill="url(#purplePaw)" stroke="#a78bfa" stroke-width="2"/>
        <line x1="-15" y1="-2" x2="15" y2="-2" stroke="#c4b5fd" stroke-width="2" opacity="0.6" stroke-linecap="round"/>
        <line x1="-16" y1="5" x2="16" y2="5" stroke="#c4b5fd" stroke-width="2.5" opacity="0.8" stroke-linecap="round"/>
        <line x1="-15" y1="12" x2="15" y2="12" stroke="#c4b5fd" stroke-width="2" opacity="0.6" stroke-linecap="round"/>
        <ellipse cx="-16" cy="-18" rx="8" ry="11" fill="#6d28d9" stroke="#a78bfa" stroke-width="1.5"/>
        <ellipse cx="0" cy="-23" rx="8" ry="12" fill="#7c3aed" stroke="#a78bfa" stroke-width="1.5"/>
        <ellipse cx="16" cy="-18" rx="8" ry="11" fill="#6d28d9" stroke="#a78bfa" stroke-width="1.5"/>
        <ellipse cx="0" cy="28" rx="7" ry="10" fill="#5b21b6" stroke="#a78bfa" stroke-width="1.5"/>
      </g>
      <text x="45" y="110" font-family="Arial, sans-serif" font-size="10" fill="#64748b" text-anchor="middle">Purple</text>
    </g>
    
    <!-- Emerald Speed -->
    <g transform="translate(340, 575)">
      <rect width="90" height="90" rx="18" fill="url(#emeraldBg)" stroke="#10b981" stroke-width="2.5"/>
      <g transform="translate(45, 45)">
        <ellipse cx="0" cy="5" rx="20" ry="23" fill="url(#emeraldPaw)" stroke="#10b981" stroke-width="2"/>
        <line x1="-15" y1="-2" x2="15" y2="-2" stroke="#34d399" stroke-width="2" opacity="0.6" stroke-linecap="round"/>
        <line x1="-16" y1="5" x2="16" y2="5" stroke="#34d399" stroke-width="2.5" opacity="0.8" stroke-linecap="round"/>
        <line x1="-15" y1="12" x2="15" y2="12" stroke="#34d399" stroke-width="2" opacity="0.6" stroke-linecap="round"/>
        <ellipse cx="-16" cy="-18" rx="8" ry="11" fill="#059669" stroke="#10b981" stroke-width="1.5"/>
        <ellipse cx="0" cy="-23" rx="8" ry="12" fill="#047857" stroke="#10b981" stroke-width="1.5"/>
        <ellipse cx="16" cy="-18" rx="8" ry="11" fill="#059669" stroke="#10b981" stroke-width="1.5"/>
        <ellipse cx="0" cy="28" rx="7" ry="10" fill="#065f46" stroke="#10b981" stroke-width="1.5"/>
      </g>
      <text x="45" y="110" font-family="Arial, sans-serif" font-size="10" fill="#64748b" text-anchor="middle">Emerald</text>
    </g>
    
    <!-- Orange Power -->
    <g transform="translate(460, 575)">
      <rect width="90" height="90" rx="18" fill="url(#orangeBg)" stroke="#fb923c" stroke-width="2.5"/>
      <g transform="translate(45, 45)">
        <ellipse cx="0" cy="5" rx="20" ry="23" fill="url(#orangePaw)" stroke="#fb923c" stroke-width="2"/>
        <line x1="-15" y1="-2" x2="15" y2="-2" stroke="#fdba74" stroke-width="2" opacity="0.6" stroke-linecap="round"/>
        <line x1="-16" y1="5" x2="16" y2="5" stroke="#fdba74" stroke-width="2.5" opacity="0.8" stroke-linecap="round"/>
        <line x1="-15" y1="12" x2="15" y2="12" stroke="#fdba74" stroke-width="2" opacity="0.6" stroke-linecap="round"/>
        <ellipse cx="-16" cy="-18" rx="8" ry="11" fill="#ea580c" stroke="#fb923c" stroke-width="1.5"/>
        <ellipse cx="0" cy="-23" rx="8" ry="12" fill="#dc2626" stroke="#fb923c" stroke-width="1.5"/>
        <ellipse cx="16" cy="-18" rx="8" ry="11" fill="#ea580c" stroke="#fb923c" stroke-width="1.5"/>
        <ellipse cx="0" cy="28" rx="7" ry="10" fill="#c2410c" stroke="#fb923c" stroke-width="1.5"/>
      </g>
      <text x="45" y="110" font-family="Arial, sans-serif" font-size="10" fill="#64748b" text-anchor="middle">Orange</text>
    </g>
  </g>
  
  <!-- APP ICONS -->
  <g id="app-icons">
    <text x="650" y="395" font-family="Arial, sans-serif" font-size="16" fill="#94a3b8" font-weight="600">APP ICONS</text>
    
    <!-- 128px -->
    <g transform="translate(650, 430)">
      <rect width="110" height="110" rx="22" fill="url(#iconBg)" stroke="url(#iconStroke)" stroke-width="3"/>
      <g transform="translate(55, 55)">
        <ellipse cx="0" cy="5" rx="24" ry="28" fill="url(#pawGradient)" stroke="#06b6d4" stroke-width="2.5"/>
        <line x1="-18" y1="-3" x2="18" y2="-3" stroke="#22d3ee" stroke-width="2.5" opacity="0.6" stroke-linecap="round"/>
        <line x1="-20" y1="5" x2="20" y2="5" stroke="#22d3ee" stroke-width="3" opacity="0.8" stroke-linecap="round"/>
        <line x1="-18" y1="13" x2="18" y2="13" stroke="#22d3ee" stroke-width="2.5" opacity="0.6" stroke-linecap="round"/>
        <ellipse cx="-19" cy="-22" rx="10" ry="14" fill="url(#toeGrad1)" stroke="#06b6d4" stroke-width="2"/>
        <ellipse cx="0" cy="-28" rx="10" ry="15" fill="url(#toeGrad2)" stroke="#06b6d4" stroke-width="2"/>
        <ellipse cx="19" cy="-22" rx="10" ry="14" fill="url(#toeGrad3)" stroke="#06b6d4" stroke-width="2"/>
        <ellipse cx="0" cy="35" rx="9" ry="12" fill="url(#toeGrad4)" stroke="#06b6d4" stroke-width="2"/>
      </g>
      <text x="55" y="155" font-family="Arial, sans-serif" font-size="10" fill="#64748b" text-anchor="middle">128px</text>
    </g>
    
    <!-- 64px -->
    <g transform="translate(790, 453)">
      <rect width="64" height="64" rx="13" fill="url(#iconBg)" stroke="url(#iconStroke)" stroke-width="2"/>
      <g transform="translate(32, 32)">
        <ellipse cx="0" cy="3" rx="16" ry="18" fill="url(#pawGradient)" stroke="#06b6d4" stroke-width="2"/>
        <line x1="-12" y1="-2" x2="12" y2="-2" stroke="#22d3ee" stroke-width="2" opacity="0.6" stroke-linecap="round"/>
        <line x1="-13" y1="3" x2="13" y2="3" stroke="#22d3ee" stroke-width="2.5" opacity="0.8" stroke-linecap="round"/>
        <line x1="-12" y1="8" x2="12" y2="8" stroke="#22d3ee" stroke-width="2" opacity="0.6" stroke-linecap="round"/>
        <ellipse cx="-13" cy="-14" rx="7" ry="9" fill="url(#toeGrad1)" stroke="#06b6d4" stroke-width="1.5"/>
        <ellipse cx="0" cy="-18" rx="7" ry="10" fill="url(#toeGrad2)" stroke="#06b6d4" stroke-width="1.5"/>
        <ellipse cx="13" cy="-14" rx="7" ry="9" fill="url(#toeGrad3)" stroke="#06b6d4" stroke-width="1.5"/>
        <ellipse cx="0" cy="22" rx="6" ry="8" fill="url(#toeGrad4)" stroke="#06b6d4" stroke-width="1.5"/>
      </g>
      <text x="32" y="80" font-family="Arial, sans-serif" font-size="10" fill="#64748b" text-anchor="middle">64px</text>
    </g>
    
    <!-- 32px -->
    <g transform="translate(884, 485)">
      <rect width="32" height="32" rx="7" fill="url(#iconBg)" stroke="url(#iconStroke)" stroke-width="1"/>
      <g transform="translate(16, 16)">
        <ellipse cx="0" cy="2" rx="9" ry="10" fill="url(#pawGradient)" stroke="#06b6d4" stroke-width="1"/>
        <line x1="-6" y1="-1" x2="6" y2="-1" stroke="#22d3ee" stroke-width="1" opacity="0.6" stroke-linecap="round"/>
        <line x1="-7" y1="2" x2="7" y2="2" stroke="#22d3ee" stroke-width="1.5" opacity="0.8" stroke-linecap="round"/>
        <line x1="-6" y1="5" x2="6" y2="5" stroke="#22d3ee" stroke-width="1" opacity="0.6" stroke-linecap="round"/>
        <ellipse cx="-7" cy="-7" rx="3.5" ry="5" fill="url(#toeGrad1)" stroke="#06b6d4" stroke-width="1"/>
        <ellipse cx="0" cy="-9" rx="3.5" ry="5.5" fill="url(#toeGrad2)" stroke="#06b6d4" stroke-width="1"/>
        <ellipse cx="7" cy="-7" rx="3.5" ry="5" fill="url(#toeGrad3)" stroke="#06b6d4" stroke-width="1"/>
        <ellipse cx="0" cy="12" rx="3" ry="4" fill="url(#toeGrad4)" stroke="#06b6d4" stroke-width="1"/>
      </g>
      <text x="16" y="48" font-family="Arial, sans-serif" font-size="10" fill="#64748b" text-anchor="middle">32px</text>
    </g>
  </g>
  
  <!-- MONOCHROME -->
  <g id="monochrome">
    <text x="650" y="580" font-family="Arial, sans-serif" font-size="16" fill="#94a3b8" font-weight="600">MONOCHROME</text>
    
    <!-- Light -->
    <g transform="translate(650, 615)">
      <rect width="130" height="85" rx="8" fill="#0f172a"/>
      <g transform="translate(65, 42)">
        <ellipse cx="0" cy="3" rx="18" ry="21" fill="none" stroke="#f8fafc" stroke-width="2"/>
        <line x1="-13" y1="-1" x2="13" y2="-1" stroke="#f8fafc" stroke-width="2" opacity="0.5" stroke-linecap="round"/>
        <line x1="-14" y1="3" x2="14" y2="3" stroke="#f8fafc" stroke-width="2.5" opacity="0.7" stroke-linecap="round"/>
        <line x1="-13" y1="7" x2="13" y2="7" stroke="#f8fafc" stroke-width="2" opacity="0.5" stroke-linecap="round"/>
        <ellipse cx="-14" cy="-16" rx="7" ry="10" fill="none" stroke="#f8fafc" stroke-width="2"/>
        <ellipse cx="0" cy="-20" rx="7" ry="11" fill="none" stroke="#f8fafc" stroke-width="2"/>
        <ellipse cx="14" cy="-16" rx="7" ry="10" fill="none" stroke="#f8fafc" stroke-width="2"/>
        <ellipse cx="0" cy="25" rx="6" ry="9" fill="none" stroke="#f8fafc" stroke-width="2"/>
      </g>
      <text x="65" y="105" font-family="Arial, sans-serif" font-size="10" fill="#64748b" text-anchor="middle">Light</text>
    </g>
    
    <!-- Dark -->
    <g transform="translate(810, 615)">
      <rect width="130" height="85" rx="8" fill="#f8fafc"/>
      <g transform="translate(65, 42)">
        <ellipse cx="0" cy="3" rx="18" ry="21" fill="none" stroke="#0f172a" stroke-width="2"/>
        <line x1="-13" y1="-1" x2="13" y2="-1" stroke="#0f172a" stroke-width="2" opacity="0.5" stroke-linecap="round"/>
        <line x1="-14" y1="3" x2="14" y2="3" stroke="#0f172a" stroke-width="2.5" opacity="0.7" stroke-linecap="round"/>
        <line x1="-13" y1="7" x2="13" y2="7" stroke="#0f172a" stroke-width="2" opacity="0.5" stroke-linecap="round"/>
        <ellipse cx="-14" cy="-16" rx="7" ry="10" fill="none" stroke="#0f172a" stroke-width="2"/>
        <ellipse cx="0" cy="-20" rx="7" ry="11" fill="none" stroke="#0f172a" stroke-width="2"/>
        <ellipse cx="14" cy="-16" rx="7" ry="10" fill="none" stroke="#0f172a" stroke-width="2"/>
        <ellipse cx="0" cy="25" rx="6" ry="9" fill="none" stroke="#0f172a" stroke-width="2"/>
      </g>
      <text x="65" y="105" font-family="Arial, sans-serif" font-size="10" fill="#64748b" text-anchor="middle">Dark</text>
    </g>
    
    <!-- Single -->
    <g transform="translate(970, 615)">
      <rect width="130" height="85" rx="8" fill="#06b6d4"/>
      <g transform="translate(65, 42)">
        <ellipse cx="0" cy="3" rx="18" ry="21" fill="#164e63" opacity="0.5"/>
        <line x1="-13" y1="-1" x2="13" y2="-1" stroke="#ffffff" stroke-width="2" opacity="0.7" stroke-linecap="round"/>
        <line x1="-14" y1="3" x2="14" y2="3" stroke="#ffffff" stroke-width="2.5" opacity="0.9" stroke-linecap="round"/>
        <line x1="-13" y1="7" x2="13" y2="7" stroke="#ffffff" stroke-width="2" opacity="0.7" stroke-linecap="round"/>
        <ellipse cx="-14" cy="-16" rx="7" ry="10" fill="#155e75"/>
        <ellipse cx="0" cy="-20" rx="7" ry="11" fill="#0e7490"/>
        <ellipse cx="14" cy="-16" rx="7" ry="10" fill="#155e75"/>
        <ellipse cx="0" cy="25" rx="6" ry="9" fill="#164e63"/>
      </g>
      <text x="65" y="105" font-family="Arial, sans-serif" font-size="10" fill="#64748b" text-anchor="middle">Single</text>
    </g>
  </g>
  
  <!-- Gradients -->
  <defs>
    <!-- Main paw gradient -->
    <linearGradient id="pawGradient" x1="0%" y1="0%" x2="0%" y2="100%">
      <stop offset="0%" style="stop-color:#0e7490;stop-opacity:1" />
      <stop offset="100%" style="stop-color:#164e63;stop-opacity:1" />
    </linearGradient>
    
    <!-- Toe gradients -->
    <linearGradient id="toeGrad1" x1="0%" y1="0%" x2="0%" y2="100%">
      <stop offset="0%" style="stop-color:#06b6d4;stop-opacity:0.8" />
      <stop offset="100%" style="stop-color:#0891b2;stop-opacity:0.9" />
    </linearGradient>
    
    <linearGradient id="toeGrad2" x1="0%" y1="0%" x2="0%" y2="100%">
      <stop offset="0%" style="stop-color:#22d3ee;stop-opacity:0.8" />
      <stop offset="100%" style="stop-color:#06b6d4;stop-opacity:0.9" />
    </linearGradient>
    
    <linearGradient id="toeGrad3" x1="0%" y1="0%" x2="0%" y2="100%">
      <stop offset="0%" style="stop-color:#06b6d4;stop-opacity:0.8" />
      <stop offset="100%" style="stop-color:#0891b2;stop-opacity:0.9" />
    </linearGradient>
    
    <linearGradient id="toeGrad4" x1="0%" y1="0%" x2="0%" y2="100%">
      <stop offset="0%" style="stop-color:#0891b2;stop-opacity:0.8" />
      <stop offset="100%" style="stop-color:#0e7490;stop-opacity:0.9" />
    </linearGradient>
    
    <!-- Icon backgrounds -->
    <linearGradient id="iconBg" x1="0%" y1="0%" x2="100%" y2="100%">
      <stop offset="0%" style="stop-color:#1e293b;stop-opacity:1" />
      <stop offset="100%" style="stop-color:#0f172a;stop-opacity:1" />
    </linearGradient>
    
    <linearGradient id="iconStroke" x1="0%" y1="0%" x2="100%" y2="100%">
      <stop offset="0%" style="stop-color:#06b6d4;stop-opacity:0.8" />
      <stop offset="100%" style="stop-color:#0891b2;stop-opacity:1" />
    </linearGradient>
    
    <!-- TrueColor gradient -->
    <linearGradient id="trueColorGrad" x1="0%" y1="0%" x2="100%" y2="0%">
      <stop offset="0%" style="stop-color:#ef4444;stop-opacity:1" />
      <stop offset="16%" style="stop-color:#f97316;stop-opacity:1" />
      <stop offset="33%" style="stop-color:#fbbf24;stop-opacity:1" />
      <stop offset="50%" style="stop-color:#22c55e;stop-opacity:1" />
      <stop offset="66%" style="stop-color:#06b6d4;stop-opacity:1" />
      <stop offset="83%" style="stop-color:#3b82f6;stop-opacity:1" />
      <stop offset="100%" style="stop-color:#a855f7;stop-opacity:1" />
    </linearGradient>
    
    <!-- Color variation backgrounds -->
    <linearGradient id="cyanBg" x1="0%" y1="0%" x2="100%" y2="100%">
      <stop offset="0%" style="stop-color:#164e63;stop-opacity:1" />
      <stop offset="100%" style="stop-color:#155e75;stop-opacity:1" />
    </linearGradient>
    
    <linearGradient id="purpleBg" x1="0%" y1="0%" x2="100%" y2="100%">
      <stop offset="0%" style="stop-color:#5b21b6;stop-opacity:1" />
      <stop offset="100%" style="stop-color:#6d28d9;stop-opacity:1" />
    </linearGradient>
    
    <linearGradient id="purplePaw" x1="0%" y1="0%" x2="0%" y2="100%">
      <stop offset="0%" style="stop-color:#7c3aed;stop-opacity:1" />
      <stop offset="100%" style="stop-color:#6d28d9;stop-opacity:1" />
    </linearGradient>
    
    <linearGradient id="emeraldBg" x1="0%" y1="0%" x2="100%" y2="100%">
      <stop offset="0%" style="stop-color:#064e3b;stop-opacity:1" />
      <stop offset="100%" style="stop-color:#065f46;stop-opacity:1" />
    </linearGradient>
    
    <linearGradient id="emeraldPaw" x1="0%" y1="0%" x2="0%" y2="100%">
      <stop offset="0%" style="stop-color:#047857;stop-opacity:1" />
      <stop offset="100%" style="stop-color:#065f46;stop-opacity:1" />
    </linearGradient>
    
    <linearGradient id="orangeBg" x1="0%" y1="0%" x2="100%" y2="100%">
      <stop offset="0%" style="stop-color:#c2410c;stop-opacity:1" />
      <stop offset="100%" style="stop-color:#ea580c;stop-opacity:1" />
    </linearGradient>
    
    <linearGradient id="orangePaw" x1="0%" y1="0%" x2="0%" y2="100%">
      <stop offset="0%" style="stop-color:#f97316;stop-opacity:1" />
      <stop offset="100%" style="stop-color:#ea580c;stop-opacity:1" />
    </linearGradient>
  </defs>
</svg>