<svg width="200" height="200" xmlns="http://www.w3.org/2000/svg" viewBox="0 0 200 200">
  <defs>
    <clipPath id="hexagonClip4">
      <path d="M50 50 L150 50 L170 100 L150 150 L50 150 L30 100 Z" rx="15" ry="15"/>
    </clipPath>
  </defs>
  
  <!-- Hexagon frame -->
  <path d="M50 50 L150 50 L170 100 L150 150 L50 150 L30 100 Z" 
        fill="none" stroke="#012456" stroke-width="4" rx="15" ry="15"/>
  
  <g clip-path="url(#hexagonClip4)">
    <!-- Classic hamburger menu -->
    <rect x="70" y="70" width="60" height="5" rx="2" fill="#012456"/>
    <rect x="70" y="85" width="60" height="5" rx="2" fill="#012456"/>
    <rect x="70" y="100" width="60" height="5" rx="2" fill="#012456"/>
    
    <!-- Simple navigation hints -->
    <polygon points="140,80 150,85 140,90" fill="#012456" opacity="0.6"/>
    <polygon points="60,80 50,85 60,90" fill="#012456" opacity="0.6"/>
    
    <!-- Submenu dot indicator -->
    <circle cx="155" cy="100" r="4" fill="#f39c12"/>
  </g>
  
  <!-- PowerShell context -->
  <path d="M160 130 L170 140 L160 150 L150 140 Z" fill="#012456"/>
</svg>