<svg viewBox="0 0 1200 800" xmlns="http://www.w3.org/2000/svg">
  <!-- Background -->
  <rect width="1200" height="800" fill="#0a0e1a"/>
  
  <!-- Title -->
  <text x="600" y="40" font-family="Arial, sans-serif" font-size="24" fill="#64748b" text-anchor="middle" font-weight="600">Zero-Edge - High-Performance, Zero-Cost Stack</text>
  <text x="600" y="65" font-family="Arial, sans-serif" font-size="14" fill="#475569" text-anchor="middle">Enterprise-Grade Edge Computing • No Containers • No Cold Starts • Zero Fixed Costs</text>
  
  <!-- PRIMARY LOGO -->
  <g id="primary-logo">
    <text x="100" y="115" font-family="Arial, sans-serif" font-size="16" fill="#94a3b8" font-weight="600">PRIMARY LOGO</text>
    
    <g transform="translate(180, 160)">
      <!-- Zero-Edge icon: Global edge network with 0 in center -->
      <g id="edge-icon">
        <!-- Central zero/node -->
        <circle cx="55" cy="55" r="24" fill="url(#zeroGrad)" stroke="#06b6d4" stroke-width="3"/>
        <circle cx="55" cy="55" r="16" fill="none" stroke="#06b6d4" stroke-width="3"/>
        
        <!-- Zero text inside -->
        <text x="55" y="65" font-family="Arial, sans-serif" font-size="28" fill="#22d3ee" text-anchor="middle" font-weight="bold">0</text>
        
        <!-- Edge nodes (distributed globally) -->
        <circle cx="20" cy="20" r="6" fill="#10b981" stroke="#22d3ee" stroke-width="2">
          <animate attributeName="r" values="6;7;6" dur="2s" repeatCount="indefinite"/>
        </circle>
        <circle cx="90" cy="20" r="6" fill="#10b981" stroke="#22d3ee" stroke-width="2">
          <animate attributeName="r" values="6;7;6" dur="2.3s" repeatCount="indefinite"/>
        </circle>
        <circle cx="20" cy="90" r="6" fill="#10b981" stroke="#22d3ee" stroke-width="2">
          <animate attributeName="r" values="6;7;6" dur="2.6s" repeatCount="indefinite"/>
        </circle>
        <circle cx="90" cy="90" r="6" fill="#10b981" stroke="#22d3ee" stroke-width="2">
          <animate attributeName="r" values="6;7;6" dur="2.9s" repeatCount="indefinite"/>
        </circle>
        
        <!-- Edge nodes mid-points -->
        <circle cx="55" cy="10" r="5" fill="#34d399" stroke="#22d3ee" stroke-width="1.5">
          <animate attributeName="opacity" values="0.7;1;0.7" dur="3s" repeatCount="indefinite"/>
        </circle>
        <circle cx="100" cy="55" r="5" fill="#34d399" stroke="#22d3ee" stroke-width="1.5">
          <animate attributeName="opacity" values="0.7;1;0.7" dur="3.3s" repeatCount="indefinite"/>
        </circle>
        <circle cx="55" cy="100" r="5" fill="#34d399" stroke="#22d3ee" stroke-width="1.5">
          <animate attributeName="opacity" values="0.7;1;0.7" dur="3.6s" repeatCount="indefinite"/>
        </circle>
        <circle cx="10" cy="55" r="5" fill="#34d399" stroke="#22d3ee" stroke-width="1.5">
          <animate attributeName="opacity" values="0.7;1;0.7" dur="3.9s" repeatCount="indefinite"/>
        </circle>
        
        <!-- Connection lines (network mesh) -->
        <line x1="20" y1="20" x2="55" y2="55" stroke="#06b6d4" stroke-width="1.5" opacity="0.3"/>
        <line x1="90" y1="20" x2="55" y2="55" stroke="#06b6d4" stroke-width="1.5" opacity="0.3"/>
        <line x1="20" y1="90" x2="55" y2="55" stroke="#06b6d4" stroke-width="1.5" opacity="0.3"/>
        <line x1="90" y1="90" x2="55" y2="55" stroke="#06b6d4" stroke-width="1.5" opacity="0.3"/>
        
        <line x1="55" y1="10" x2="55" y2="55" stroke="#06b6d4" stroke-width="1.5" opacity="0.3"/>
        <line x1="100" y1="55" x2="55" y2="55" stroke="#06b6d4" stroke-width="1.5" opacity="0.3"/>
        <line x1="55" y1="100" x2="55" y2="55" stroke="#06b6d4" stroke-width="1.5" opacity="0.3"/>
        <line x1="10" y1="55" x2="55" y2="55" stroke="#06b6d4" stroke-width="1.5" opacity="0.3"/>
        
        <!-- Orbital ring (edge coverage) -->
        <circle cx="55" cy="55" r="50" fill="none" stroke="#06b6d4" stroke-width="1" opacity="0.2" stroke-dasharray="5,5">
          <animateTransform attributeName="transform" type="rotate" from="0 55 55" to="360 55 55" dur="20s" repeatCount="indefinite"/>
        </circle>
        
        <!-- Performance pulse -->
        <circle cx="55" cy="55" r="35" fill="none" stroke="#10b981" stroke-width="1.5" opacity="0.2">
          <animate attributeName="r" values="35;45;35" dur="3s" repeatCount="indefinite"/>
          <animate attributeName="opacity" values="0.2;0;0.2" dur="3s" repeatCount="indefinite"/>
        </circle>
      </g>
      
      <!-- Typography -->
      <g transform="translate(135, 15)">
        <text x="0" y="45" font-family="Arial, sans-serif" font-size="52" fill="#f8fafc" font-weight="bold" letter-spacing="1">Zero</text>
        <text x="130" y="45" font-family="Arial, sans-serif" font-size="52" fill="#06b6d4" font-weight="bold" letter-spacing="1">Edge</text>
        <text x="0" y="62" font-family="Arial, sans-serif" font-size="11" fill="#64748b" letter-spacing="3" font-weight="500">ZERO-COST EDGE STACK</text>
      </g>
    </g>
  </g>
  
  <!-- ICON MARK -->
  <g id="icon-mark">
    <text x="100" y="330" font-family="Arial, sans-serif" font-size="16" fill="#94a3b8" font-weight="600">ICON MARK</text>
    
    <g transform="translate(200, 370)">
      <!-- Container -->
      <rect x="0" y="0" width="110" height="110" rx="22" fill="url(#iconBg)" stroke="url(#iconStroke)" stroke-width="3"/>
      
      <!-- Centered zero-edge network -->
      <g transform="translate(55, 55)">
        <!-- Central zero -->
        <circle cx="0" cy="0" r="20" fill="url(#zeroGrad)" stroke="#06b6d4" stroke-width="2.5"/>
        <circle cx="0" cy="0" r="13" fill="none" stroke="#06b6d4" stroke-width="2.5"/>
        <text x="0" y="7" font-family="Arial, sans-serif" font-size="22" fill="#22d3ee" text-anchor="middle" font-weight="bold">0</text>
        
        <!-- Edge nodes -->
        <circle cx="-28" cy="-28" r="5" fill="#10b981" stroke="#22d3ee" stroke-width="1.5"/>
        <circle cx="28" cy="-28" r="5" fill="#10b981" stroke="#22d3ee" stroke-width="1.5"/>
        <circle cx="-28" cy="28" r="5" fill="#10b981" stroke="#22d3ee" stroke-width="1.5"/>
        <circle cx="28" cy="28" r="5" fill="#10b981" stroke="#22d3ee" stroke-width="1.5"/>
        
        <circle cx="0" cy="-35" r="4" fill="#34d399" stroke="#22d3ee" stroke-width="1.5"/>
        <circle cx="35" cy="0" r="4" fill="#34d399" stroke="#22d3ee" stroke-width="1.5"/>
        <circle cx="0" cy="35" r="4" fill="#34d399" stroke="#22d3ee" stroke-width="1.5"/>
        <circle cx="-35" cy="0" r="4" fill="#34d399" stroke="#22d3ee" stroke-width="1.5"/>
        
        <!-- Connections -->
        <line x1="-28" y1="-28" x2="0" y2="0" stroke="#06b6d4" stroke-width="1.2" opacity="0.3"/>
        <line x1="28" y1="-28" x2="0" y2="0" stroke="#06b6d4" stroke-width="1.2" opacity="0.3"/>
        <line x1="-28" y1="28" x2="0" y2="0" stroke="#06b6d4" stroke-width="1.2" opacity="0.3"/>
        <line x1="28" y1="28" x2="0" y2="0" stroke="#06b6d4" stroke-width="1.2" opacity="0.3"/>
        
        <line x1="0" y1="-35" x2="0" y2="0" stroke="#06b6d4" stroke-width="1.2" opacity="0.3"/>
        <line x1="35" y1="0" x2="0" y2="0" stroke="#06b6d4" stroke-width="1.2" opacity="0.3"/>
        <line x1="0" y1="35" x2="0" y2="0" stroke="#06b6d4" stroke-width="1.2" opacity="0.3"/>
        <line x1="-35" y1="0" x2="0" y2="0" stroke="#06b6d4" stroke-width="1.2" opacity="0.3"/>
      </g>
    </g>
  </g>
  
  <!-- ALTERNATIVE CONCEPT: Architecture Diagram -->
  <g id="architecture-concept">
    <text x="650" y="115" font-family="Arial, sans-serif" font-size="16" fill="#94a3b8" font-weight="600">ALTERNATIVE: EDGE ARCHITECTURE</text>
    
    <g transform="translate(650, 150)">
      <!-- Container -->
      <rect x="0" y="0" width="450" height="260" rx="12" fill="#1e293b" stroke="#475569" stroke-width="2"/>
      
      <!-- Header -->
      <rect x="0" y="0" width="450" height="35" rx="12" fill="#334155"/>
      <rect x="0" y="23" width="450" height="12" fill="#334155"/>
      
      <circle cx="18" cy="17" r="6" fill="#ef4444"/>
      <circle cx="38" cy="17" r="6" fill="#fbbf24"/>
      <circle cx="58" cy="17" r="6" fill="#22c55e"/>
      
      <text x="225" y="24" font-family="Arial, sans-serif" font-size="13" fill="#94a3b8" text-anchor="middle" font-weight="600">Zero-Edge Architecture Blueprint</text>
      
      <!-- Architecture layers -->
      <g transform="translate(20, 55)">
        <!-- User layer -->
        <text x="0" y="0" font-family="Arial, sans-serif" font-size="11" fill="#64748b" font-weight="600">USERS</text>
        <g transform="translate(0, 10)">
          <circle cx="20" cy="8" r="6" fill="#3b82f6" opacity="0.7"/>
          <circle cx="45" cy="8" r="6" fill="#3b82f6" opacity="0.7"/>
          <circle cx="70" cy="8" r="6" fill="#3b82f6" opacity="0.7"/>
          <text x="90" y="12" font-family="Arial, sans-serif" font-size="9" fill="#94a3b8">Global Users</text>
        </g>
        
        <!-- Arrow down -->
        <polygon points="45,30 40,35 50,35" fill="#475569"/>
        <line x1="45" y1="35" x2="45" y2="45" stroke="#475569" stroke-width="2"/>
        
        <!-- Edge layer -->
        <text x="0" y="55" font-family="Arial, sans-serif" font-size="11" fill="#10b981" font-weight="600">EDGE NETWORK</text>
        <g transform="translate(0, 65)">
          <rect x="0" y="0" width="410" height="35" rx="6" fill="#064e3b" opacity="0.3" stroke="#10b981" stroke-width="2"/>
          <circle cx="15" cy="17" r="5" fill="#10b981"/>
          <text x="25" y="21" font-family="Consolas, monospace" font-size="10" fill="#34d399">Edge-US-East</text>
          
          <circle cx="120" cy="17" r="5" fill="#10b981"/>
          <text x="130" y="21" font-family="Consolas, monospace" font-size="10" fill="#34d399">Edge-EU-West</text>
          
          <circle cx="235" cy="17" r="5" fill="#10b981"/>
          <text x="245" y="21" font-family="Consolas, monospace" font-size="10" fill="#34d399">Edge-APAC</text>
          
          <circle cx="330" cy="17" r="5" fill="#10b981"/>
          <text x="340" y="21" font-family="Consolas, monospace" font-size="10" fill="#34d399">Edge-Global</text>
        </g>
        
        <!-- Arrow down -->
        <polygon points="205,115 200,120 210,120" fill="#475569"/>
        <line x1="205" y1="120" x2="205" y2="130" stroke="#475569" stroke-width="2"/>
        
        <!-- Zero philosophy layer -->
        <g transform="translate(0, 140)">
          <rect x="0" y="0" width="410" height="50" rx="6" fill="#0e7490" opacity="0.2" stroke="#06b6d4" stroke-width="2"/>
          
          <g transform="translate(15, 15)">
            <circle cx="0" cy="5" r="3" fill="#22d3ee"/>
            <text x="10" y="9" font-family="Arial, sans-serif" font-size="10" fill="#22d3ee" font-weight="600">Zero Containers</text>
          </g>
          
          <g transform="translate(125, 15)">
            <circle cx="0" cy="5" r="3" fill="#22d3ee"/>
            <text x="10" y="9" font-family="Arial, sans-serif" font-size="10" fill="#22d3ee" font-weight="600">Zero Cold Starts</text>
          </g>
          
          <g transform="translate(250, 15)">
            <circle cx="0" cy="5" r="3" fill="#22d3ee"/>
            <text x="10" y="9" font-family="Arial, sans-serif" font-size="10" fill="#22d3ee" font-weight="600">Zero Fixed Costs</text>
          </g>
        </g>
      </g>
      
      <!-- Performance badge -->
      <g transform="translate(20, 235)">
        <rect x="0" y="0" width="410" height="18" rx="4" fill="#065f46" opacity="0.3"/>
        <text x="205" y="13" font-family="Arial, sans-serif" font-size="10" fill="#10b981" text-anchor="middle" font-weight="600">⚡ Instant Global Deployment • &lt;50ms Latency • Enterprise-Grade • Pay-Per-Request</text>
      </g>
    </g>
  </g>
  
  <!-- COLOR VARIATIONS -->
  <g id="variations">
    <text x="100" y="540" font-family="Arial, sans-serif" font-size="16" fill="#94a3b8" font-weight="600">COLOR VARIATIONS</text>
    
    <!-- Cyan Edge (Primary) -->
    <g transform="translate(100, 575)">
      <rect width="90" height="90" rx="18" fill="url(#cyanBg)" stroke="#06b6d4" stroke-width="2.5"/>
      <g transform="translate(45, 45)">
        <circle cx="0" cy="0" r="16" fill="url(#zeroGrad)" stroke="#06b6d4" stroke-width="2"/>
        <circle cx="0" cy="0" r="10" fill="none" stroke="#06b6d4" stroke-width="2"/>
        <text x="0" y="5" font-family="Arial, sans-serif" font-size="16" fill="#22d3ee" text-anchor="middle" font-weight="bold">0</text>
        
        <circle cx="-22" cy="-22" r="4" fill="#10b981" stroke="#22d3ee" stroke-width="1.5"/>
        <circle cx="22" cy="-22" r="4" fill="#10b981" stroke="#22d3ee" stroke-width="1.5"/>
        <circle cx="-22" cy="22" r="4" fill="#10b981" stroke="#22d3ee" stroke-width="1.5"/>
        <circle cx="22" cy="22" r="4" fill="#10b981" stroke="#22d3ee" stroke-width="1.5"/>
        
        <line x1="-22" y1="-22" x2="0" y2="0" stroke="#06b6d4" stroke-width="1" opacity="0.3"/>
        <line x1="22" y1="-22" x2="0" y2="0" stroke="#06b6d4" stroke-width="1" opacity="0.3"/>
        <line x1="-22" y1="22" x2="0" y2="0" stroke="#06b6d4" stroke-width="1" opacity="0.3"/>
        <line x1="22" y1="22" x2="0" y2="0" stroke="#06b6d4" stroke-width="1" opacity="0.3"/>
      </g>
      <text x="45" y="110" font-family="Arial, sans-serif" font-size="10" fill="#64748b" text-anchor="middle">Cyan</text>
    </g>
    
    <!-- Emerald Network -->
    <g transform="translate(220, 575)">
      <rect width="90" height="90" rx="18" fill="url(#emeraldBg)" stroke="#10b981" stroke-width="2.5"/>
      <g transform="translate(45, 45)">
        <circle cx="0" cy="0" r="16" fill="#064e3b" stroke="#10b981" stroke-width="2"/>
        <circle cx="0" cy="0" r="10" fill="none" stroke="#10b981" stroke-width="2"/>
        <text x="0" y="5" font-family="Arial, sans-serif" font-size="16" fill="#22d3ee" text-anchor="middle" font-weight="bold">0</text>
        
        <circle cx="-22" cy="-22" r="4" fill="#34d399" stroke="#10b981" stroke-width="1.5"/>
        <circle cx="22" cy="-22" r="4" fill="#34d399" stroke="#10b981" stroke-width="1.5"/>
        <circle cx="-22" cy="22" r="4" fill="#34d399" stroke="#10b981" stroke-width="1.5"/>
        <circle cx="22" cy="22" r="4" fill="#34d399" stroke="#10b981" stroke-width="1.5"/>
        
        <line x1="-22" y1="-22" x2="0" y2="0" stroke="#10b981" stroke-width="1" opacity="0.3"/>
        <line x1="22" y1="-22" x2="0" y2="0" stroke="#10b981" stroke-width="1" opacity="0.3"/>
        <line x1="-22" y1="22" x2="0" y2="0" stroke="#10b981" stroke-width="1" opacity="0.3"/>
        <line x1="22" y1="22" x2="0" y2="0" stroke="#10b981" stroke-width="1" opacity="0.3"/>
      </g>
      <text x="45" y="110" font-family="Arial, sans-serif" font-size="10" fill="#64748b" text-anchor="middle">Emerald</text>
    </g>
    
    <!-- Purple Cloud -->
    <g transform="translate(340, 575)">
      <rect width="90" height="90" rx="18" fill="url(#purpleBg)" stroke="#a855f7" stroke-width="2.5"/>
      <g transform="translate(45, 45)">
        <circle cx="0" cy="0" r="16" fill="#581c87" stroke="#a855f7" stroke-width="2"/>
        <circle cx="0" cy="0" r="10" fill="none" stroke="#a855f7" stroke-width="2"/>
        <text x="0" y="5" font-family="Arial, sans-serif" font-size="16" fill="#c4b5fd" text-anchor="middle" font-weight="bold">0</text>
        
        <circle cx="-22" cy="-22" r="4" fill="#c084fc" stroke="#a855f7" stroke-width="1.5"/>
        <circle cx="22" cy="-22" r="4" fill="#c084fc" stroke="#a855f7" stroke-width="1.5"/>
        <circle cx="-22" cy="22" r="4" fill="#c084fc" stroke="#a855f7" stroke-width="1.5"/>
        <circle cx="22" cy="22" r="4" fill="#c084fc" stroke="#a855f7" stroke-width="1.5"/>
        
        <line x1="-22" y1="-22" x2="0" y2="0" stroke="#a855f7" stroke-width="1" opacity="0.3"/>
        <line x1="22" y1="-22" x2="0" y2="0" stroke="#a855f7" stroke-width="1" opacity="0.3"/>
        <line x1="-22" y1="22" x2="0" y2="0" stroke="#a855f7" stroke-width="1" opacity="0.3"/>
        <line x1="22" y1="22" x2="0" y2="0" stroke="#a855f7" stroke-width="1" opacity="0.3"/>
      </g>
      <text x="45" y="110" font-family="Arial, sans-serif" font-size="10" fill="#64748b" text-anchor="middle">Purple</text>
    </g>
    
    <!-- Blue Sky -->
    <g transform="translate(460, 575)">
      <rect width="90" height="90" rx="18" fill="url(#blueBg)" stroke="#3b82f6" stroke-width="2.5"/>
      <g transform="translate(45, 45)">
        <circle cx="0" cy="0" r="16" fill="#1e3a8a" stroke="#3b82f6" stroke-width="2"/>
        <circle cx="0" cy="0" r="10" fill="none" stroke="#3b82f6" stroke-width="2"/>
        <text x="0" y="5" font-family="Arial, sans-serif" font-size="16" fill="#93c5fd" text-anchor="middle" font-weight="bold">0</text>
        
        <circle cx="-22" cy="-22" r="4" fill="#60a5fa" stroke="#3b82f6" stroke-width="1.5"/>
        <circle cx="22" cy="-22" r="4" fill="#60a5fa" stroke="#3b82f6" stroke-width="1.5"/>
        <circle cx="-22" cy="22" r="4" fill="#60a5fa" stroke="#3b82f6" stroke-width="1.5"/>
        <circle cx="22" cy="22" r="4" fill="#60a5fa" stroke="#3b82f6" stroke-width="1.5"/>
        
        <line x1="-22" y1="-22" x2="0" y2="0" stroke="#3b82f6" stroke-width="1" opacity="0.3"/>
        <line x1="22" y1="-22" x2="0" y2="0" stroke="#3b82f6" stroke-width="1" opacity="0.3"/>
        <line x1="-22" y1="22" x2="0" y2="0" stroke="#3b82f6" stroke-width="1" opacity="0.3"/>
        <line x1="22" y1="22" x2="0" y2="0" stroke="#3b82f6" stroke-width="1" opacity="0.3"/>
      </g>
      <text x="45" y="110" font-family="Arial, sans-serif" font-size="10" fill="#64748b" text-anchor="middle">Blue</text>
    </g>
  </g>
  
  <!-- APP ICONS -->
  <g id="app-icons">
    <text x="650" y="435" font-family="Arial, sans-serif" font-size="16" fill="#94a3b8" font-weight="600">APP ICONS</text>
    
    <!-- 128px -->
    <g transform="translate(650, 470)">
      <rect width="110" height="110" rx="22" fill="url(#iconBg)" stroke="url(#iconStroke)" stroke-width="3"/>
      <g transform="translate(55, 55)">
        <circle cx="0" cy="0" r="20" fill="url(#zeroGrad)" stroke="#06b6d4" stroke-width="2.5"/>
        <circle cx="0" cy="0" r="13" fill="none" stroke="#06b6d4" stroke-width="2.5"/>
        <text x="0" y="7" font-family="Arial, sans-serif" font-size="22" fill="#22d3ee" text-anchor="middle" font-weight="bold">0</text>
        
        <circle cx="-28" cy="-28" r="5" fill="#10b981" stroke="#22d3ee" stroke-width="1.5"/>
        <circle cx="28" cy="-28" r="5" fill="#10b981" stroke="#22d3ee" stroke-width="1.5"/>
        <circle cx="-28" cy="28" r="5" fill="#10b981" stroke="#22d3ee" stroke-width="1.5"/>
        <circle cx="28" cy="28" r="5" fill="#10b981" stroke="#22d3ee" stroke-width="1.5"/>
        
        <circle cx="0" cy="-35" r="4" fill="#34d399" stroke="#22d3ee" stroke-width="1.5"/>
        <circle cx="35" cy="0" r="4" fill="#34d399" stroke="#22d3ee" stroke-width="1.5"/>
        <circle cx="0" cy="35" r="4" fill="#34d399" stroke="#22d3ee" stroke-width="1.5"/>
        <circle cx="-35" cy="0" r="4" fill="#34d399" stroke="#22d3ee" stroke-width="1.5"/>
        
        <line x1="-28" y1="-28" x2="0" y2="0" stroke="#06b6d4" stroke-width="1.2" opacity="0.3"/>
        <line x1="28" y1="-28" x2="0" y2="0" stroke="#06b6d4" stroke-width="1.2" opacity="0.3"/>
        <line x1="-28" y1="28" x2="0" y2="0" stroke="#06b6d4" stroke-width="1.2" opacity="0.3"/>
        <line x1="28" y1="28" x2="0" y2="0" stroke="#06b6d4" stroke-width="1.2" opacity="0.3"/>
      </g>
      <text x="55" y="195" font-family="Arial, sans-serif" font-size="10" fill="#64748b" text-anchor="middle">128px</text>
    </g>
    
    <!-- 64px -->
    <g transform="translate(790, 493)">
      <rect width="64" height="64" rx="13" fill="url(#iconBg)" stroke="url(#iconStroke)" stroke-width="2"/>
      <g transform="translate(32, 32)">
        <circle cx="0" cy="0" r="14" fill="url(#zeroGrad)" stroke="#06b6d4" stroke-width="2"/>
        <circle cx="0" cy="0" r="9" fill="none" stroke="#06b6d4" stroke-width="2"/>
        <text x="0" y="5" font-family="Arial, sans-serif" font-size="14" fill="#22d3ee" text-anchor="middle" font-weight="bold">0</text>
        
        <circle cx="-18" cy="-18" r="3.5" fill="#10b981" stroke="#22d3ee" stroke-width="1"/>
        <circle cx="18" cy="-18" r="3.5" fill="#10b981" stroke="#22d3ee" stroke-width="1"/>
        <circle cx="-18" cy="18" r="3.5" fill="#10b981" stroke="#22d3ee" stroke-width="1"/>
        <circle cx="18" cy="18" r="3.5" fill="#10b981" stroke="#22d3ee" stroke-width="1"/>
        
        <line x1="-18" y1="-18" x2="0" y2="0" stroke="#06b6d4" stroke-width="1" opacity="0.3"/>
        <line x1="18" y1="-18" x2="0" y2="0" stroke="#06b6d4" stroke-width="1" opacity="0.3"/>
        <line x1="-18" y1="18" x2="0" y2="0" stroke="#06b6d4" stroke-width="1" opacity="0.3"/>
        <line x1="18" y1="18" x2="0" y2="0" stroke="#06b6d4" stroke-width="1" opacity="0.3"/>
      </g>
      <text x="32" y="80" font-family="Arial, sans-serif" font-size="10" fill="#64748b" text-anchor="middle">64px</text>
    </g>
    
    <!-- 32px -->
    <g transform="translate(884, 525)">
      <rect width="32" height="32" rx="7" fill="url(#iconBg)" stroke="url(#iconStroke)" stroke-width="1"/>
      <g transform="translate(16, 16)">
        <circle cx="0" cy="0" r="7" fill="url(#zeroGrad)" stroke="#06b6d4" stroke-width="1.5"/>
        <circle cx="0" cy="0" r="4" fill="none" stroke="#06b6d4" stroke-width="1.5"/>
        <text x="0" y="3" font-family="Arial, sans-serif" font-size="7" fill="#22d3ee" text-anchor="middle" font-weight="bold">0</text>
        <circle cx="-10" cy="-10" r="2.5" fill="#10b981"/>
        <circle cx="10" cy="-10" r="2.5" fill="#10b981"/>
        <circle cx="-10" cy="10" r="2.5" fill="#10b981"/>
        <circle cx="10" cy="10" r="2.5" fill="#10b981"/>
        <line x1="-10" y1="-10" x2="0" y2="0" stroke="#06b6d4" stroke-width="0.8" opacity="0.3"/>
        <line x1="10" y1="-10" x2="0" y2="0" stroke="#06b6d4" stroke-width="0.8" opacity="0.3"/>
        <line x1="-10" y1="10" x2="0" y2="0" stroke="#06b6d4" stroke-width="0.8" opacity="0.3"/>
        <line x1="10" y1="10" x2="0" y2="0" stroke="#06b6d4" stroke-width="0.8" opacity="0.3"/>
      </g>
      <text x="16" y="48" font-family="Arial, sans-serif" font-size="10" fill="#64748b" text-anchor="middle">32px</text>
    </g>
  </g>
  
  <!-- MONOCHROME -->
  <g id="monochrome">
    <text x="650" y="615" font-family="Arial, sans-serif" font-size="16" fill="#94a3b8" font-weight="600">MONOCHROME</text>
    
    <!-- Light -->
    <g transform="translate(650, 645)">
      <rect width="130" height="85" rx="8" fill="#0f172a"/>
      <g transform="translate(65, 42)">
        <circle cx="0" cy="0" r="16" fill="none" stroke="#f8fafc" stroke-width="2"/>
        <circle cx="0" cy="0" r="10" fill="none" stroke="#f8fafc" stroke-width="2"/>
        <text x="0" y="5" font-family="Arial, sans-serif" font-size="16" fill="#f8fafc" text-anchor="middle" font-weight="bold">0</text>
        <circle cx="-22" cy="-22" r="4" fill="none" stroke="#f8fafc" stroke-width="1.5"/>
        <circle cx="22" cy="-22" r="4" fill="none" stroke="#f8fafc" stroke-width="1.5"/>
        <circle cx="-22" cy="22" r="4" fill="none" stroke="#f8fafc" stroke-width="1.5"/>
        <circle cx="22" cy="22" r="4" fill="none" stroke="#f8fafc" stroke-width="1.5"/>
        <line x1="-22" y1="-22" x2="0" y2="0" stroke="#f8fafc" stroke-width="1" opacity="0.3"/>
        <line x1="22" y1="-22" x2="0" y2="0" stroke="#f8fafc" stroke-width="1" opacity="0.3"/>
        <line x1="-22" y1="22" x2="0" y2="0" stroke="#f8fafc" stroke-width="1" opacity="0.3"/>
        <line x1="22" y1="22" x2="0" y2="0" stroke="#f8fafc" stroke-width="1" opacity="0.3"/>
      </g>
      <text x="65" y="105" font-family="Arial, sans-serif" font-size="10" fill="#64748b" text-anchor="middle">Light</text>
    </g>
    
    <!-- Dark -->
    <g transform="translate(810, 645)">
      <rect width="130" height="85" rx="8" fill="#f8fafc"/>
      <g transform="translate(65, 42)">
        <circle cx="0" cy="0" r="16" fill="none" stroke="#0f172a" stroke-width="2"/>
        <circle cx="0" cy="0" r="10" fill="none" stroke="#0f172a" stroke-width="2"/>
        <text x="0" y="5" font-family="Arial, sans-serif" font-size="16" fill="#0f172a" text-anchor="middle" font-weight="bold">0</text>
        <circle cx="-22" cy="-22" r="4" fill="none" stroke="#0f172a" stroke-width="1.5"/>
        <circle cx="22" cy="-22" r="4" fill="none" stroke="#0f172a" stroke-width="1.5"/>
        <circle cx="-22" cy="22" r="4" fill="none" stroke="#0f172a" stroke-width="1.5"/>
        <circle cx="22" cy="22" r="4" fill="none" stroke="#0f172a" stroke-width="1.5"/>
        <line x1="-22" y1="-22" x2="0" y2="0" stroke="#0f172a" stroke-width="1" opacity="0.3"/>
        <line x1="22" y1="-22" x2="0" y2="0" stroke="#0f172a" stroke-width="1" opacity="0.3"/>
        <line x1="-22" y1="22" x2="0" y2="0" stroke="#0f172a" stroke-width="1" opacity="0.3"/>
        <line x1="22" y1="22" x2="0" y2="0" stroke="#0f172a" stroke-width="1" opacity="0.3"/>
      </g>
      <text x="65" y="105" font-family="Arial, sans-serif" font-size="10" fill="#64748b" text-anchor="middle">Dark</text>
    </g>
    
    <!-- Single -->
    <g transform="translate(970, 645)">
      <rect width="130" height="85" rx="8" fill="#06b6d4"/>
      <g transform="translate(65, 42)">
        <circle cx="0" cy="0" r="16" fill="#155e75" stroke="#ffffff" stroke-width="2"/>
        <circle cx="0" cy="0" r="10" fill="none" stroke="#ffffff" stroke-width="2"/>
        <text x="0" y="5" font-family="Arial, sans-serif" font-size="16" fill="#ffffff" text-anchor="middle" font-weight="bold">0</text>
        <circle cx="-22" cy="-22" r="4" fill="#164e63" stroke="#ffffff" stroke-width="1.5"/>
        <circle cx="22" cy="-22" r="4" fill="#164e63" stroke="#ffffff" stroke-width="1.5"/>
        <circle cx="-22" cy="22" r="4" fill="#164e63" stroke="#ffffff" stroke-width="1.5"/>
        <circle cx="22" cy="22" r="4" fill="#164e63" stroke="#ffffff" stroke-width="1.5"/>
        <line x1="-22" y1="-22" x2="0" y2="0" stroke="#ffffff" stroke-width="1" opacity="0.4"/>
        <line x1="22" y1="-22" x2="0" y2="0" stroke="#ffffff" stroke-width="1" opacity="0.4"/>
        <line x1="-22" y1="22" x2="0" y2="0" stroke="#ffffff" stroke-width="1" opacity="0.4"/>
        <line x1="22" y1="22" x2="0" y2="0" stroke="#ffffff" stroke-width="1" opacity="0.4"/>
      </g>
      <text x="65" y="105" font-family="Arial, sans-serif" font-size="10" fill="#164e63" text-anchor="middle">Single</text>
    </g>
  </g>
  
  <!-- Gradients -->
  <defs>
    <linearGradient id="zeroGrad" x1="0%" y1="0%" x2="100%" y2="100%">
      <stop offset="0%" style="stop-color:#164e63;stop-opacity:1" />
      <stop offset="100%" style="stop-color:#0e7490;stop-opacity:1" />
    </linearGradient>
    
    <linearGradient id="iconBg" x1="0%" y1="0%" x2="100%" y2="100%">
      <stop offset="0%" style="stop-color:#1e293b;stop-opacity:1" />
      <stop offset="100%" style="stop-color:#0f172a;stop-opacity:1" />
    </linearGradient>
    
    <linearGradient id="iconStroke" x1="0%" y1="0%" x2="100%" y2="100%">
      <stop offset="0%" style="stop-color:#06b6d4;stop-opacity:0.8" />
      <stop offset="100%" style="stop-color:#10b981;stop-opacity:1" />
    </linearGradient>
    
    <linearGradient id="cyanBg" x1="0%" y1="0%" x2="100%" y2="100%">
      <stop offset="0%" style="stop-color:#164e63;stop-opacity:1" />
      <stop offset="100%" style="stop-color:#155e75;stop-opacity:1" />
    </linearGradient>
    
    <linearGradient id="emeraldBg" x1="0%" y1="0%" x2="100%" y2="100%">
      <stop offset="0%" style="stop-color:#064e3b;stop-opacity:1" />
      <stop offset="100%" style="stop-color:#065f46;stop-opacity:1" />
    </linearGradient>
    
    <linearGradient id="purpleBg" x1="0%" y1="0%" x2="100%" y2="100%">
      <stop offset="0%" style="stop-color:#581c87;stop-opacity:1" />
      <stop offset="100%" style="stop-color:#6b21a8;stop-opacity:1" />
    </linearGradient>
    
    <linearGradient id="blueBg" x1="0%" y1="0%" x2="100%" y2="100%">
      <stop offset="0%" style="stop-color:#1e3a8a;stop-opacity:1" />
      <stop offset="100%" style="stop-color:#1e40af;stop-opacity:1" />
    </linearGradient>
  </defs>
</svg>