<?xml version="1.0" encoding="UTF-8" standalone="no"?>
<!-- Created with Inkscape (http://www.inkscape.org/) -->

<svg
   width="512mm"
   height="512mm"
   viewBox="0 0 512 512"
   version="1.1"
   id="svg1"
   xml:space="preserve"
   inkscape:version="1.4 (86a8ad7, 2024-10-11)"
   sodipodi:docname="fonixsearch-draft-one.svg"
   xmlns:inkscape="http://www.inkscape.org/namespaces/inkscape"
   xmlns:sodipodi="http://sodipodi.sourceforge.net/DTD/sodipodi-0.dtd"
   xmlns:xlink="http://www.w3.org/1999/xlink"
   xmlns="http://www.w3.org/2000/svg"
   xmlns:svg="http://www.w3.org/2000/svg"><sodipodi:namedview
     id="namedview1"
     pagecolor="#181818"
     bordercolor="#000000"
     borderopacity="0.25"
     inkscape:showpageshadow="2"
     inkscape:pageopacity="0.0"
     inkscape:pagecheckerboard="0"
     inkscape:deskcolor="#d1d1d1"
     inkscape:document-units="mm"
     inkscape:lockguides="false"
     inkscape:zoom="0.11313708"
     inkscape:cx="-3239.4329"
     inkscape:cy="2638.3922"
     inkscape:window-width="2442"
     inkscape:window-height="2065"
     inkscape:window-x="1388"
     inkscape:window-y="0"
     inkscape:window-maximized="0"
     inkscape:current-layer="svg1" /><defs
     id="defs1"><linearGradient
       id="linearGradient73"
       inkscape:collect="always"><stop
         style="stop-color:#f83600;stop-opacity:0.84705883;"
         offset="0"
         id="stop73" /><stop
         style="stop-color:#fd7c00;stop-opacity:0.84705883;"
         offset="1"
         id="stop74" /></linearGradient><inkscape:path-effect
       effect="powerclip"
       message=""
       id="path-effect44"
       is_visible="true"
       lpeversion="1"
       inverse="true"
       flatten="false"
       hide_clip="false" /><inkscape:path-effect
       effect="powerclip"
       message=""
       id="path-effect41"
       is_visible="true"
       lpeversion="1"
       inverse="true"
       flatten="false"
       hide_clip="false" /><inkscape:path-effect
       effect="powerclip"
       message=""
       id="path-effect39"
       is_visible="true"
       lpeversion="1"
       inverse="true"
       flatten="false"
       hide_clip="false" /><linearGradient
       id="linearGradient34"
       inkscape:collect="always"><stop
         style="stop-color:#fe8c00;stop-opacity:1;"
         offset="0"
         id="stop34" /><stop
         style="stop-color:#f83600;stop-opacity:1;"
         offset="0.5"
         id="stop36" /></linearGradient><inkscape:path-effect
       effect="powerclip"
       message=""
       id="path-effect32"
       is_visible="true"
       lpeversion="1"
       inverse="true"
       flatten="false"
       hide_clip="false" /><inkscape:path-effect
       effect="powerclip"
       message=""
       id="path-effect23"
       is_visible="true"
       lpeversion="1"
       inverse="true"
       flatten="false"
       hide_clip="false" /><filter
       id="mask-powermask-path-effect4_inverse"
       inkscape:label="filtermask-powermask-path-effect4"
       style="color-interpolation-filters:sRGB"
       height="100"
       width="100"
       x="-50"
       y="-50"><feColorMatrix
         id="mask-powermask-path-effect4_primitive1"
         values="1"
         type="saturate"
         result="fbSourceGraphic" /><feColorMatrix
         id="mask-powermask-path-effect4_primitive2"
         values="-1 0 0 0 1 0 -1 0 0 1 0 0 -1 0 1 0 0 0 1 0 "
         in="fbSourceGraphic" /></filter><clipPath
       clipPathUnits="userSpaceOnUse"
       id="clipPath23"><path
         fill="#000000"
         d="m 117.61903,218.95769 c 3.03173,0.019 6.07218,-0.065 9.106,-0.24702 24.27387,-1.46263 48.45528,-9.21082 65.64449,-24.37512 6.15651,-5.4318 8.0627,-12.95247 4.95223,-17.02077 -3.11207,-4.06829 -10.78281,-4.36245 -19.737,0.28169 -15.45932,8.02014 -27.96171,5.18534 -33.52949,-3.34348 -5.5692,-8.52936 -4.21625,-22.45583 10.74749,-38.54051 17.71118,-19.03759 37.76845,-52.08779 43.54537,-84.792912 5.77715,-32.705684 -3.7266,-64.876115 -45.30316,-78.967294 -16.04228,-5.436676 -39.20893,-9.073781 -64.299071,-4.15281 C 62.803541,-27.439909 29.576026,-13.371509 17.68364,1.9872857 24.546854,-2.8258884 31.370982,-6.2143335 38.170363,-8.7333238 23.892358,2.5994201 10.611016,18.207379 -0.1416219,39.032097 L -5.5232446,49.454751 5.5068327,43.768884 c 7.0979143,-3.659293 13.9454613,-7.26064 20.1370583,-9.965442 -2.65324,3.180981 -5.485239,7.161522 -8.935954,12.338705 9.178195,-8.228684 18.140879,-13.735254 27.470397,-17.048945 4.89735,0.272501 8.927472,2.636556 12.46772,8.720046 3.703884,6.363553 3.124884,17.386431 0.146622,31.238682 -2.977914,13.852811 -8.159938,30.296657 -12.332729,47.06282 -20.017648,64.9003 11.529056,101.02744 73.159193,102.84403 z m 70.46876,-34.28584 c -51.50207,388.04009 -51.50207,388.04009 0,0 z"
         id="path23"
         style="display:block;opacity:1;fill:#ce8940;fill-opacity:1;stroke-width:0.541716"
         sodipodi:nodetypes="ccccccccccccscccccccccccc"
         clip-path="none" /></clipPath><linearGradient
       inkscape:collect="always"
       xlink:href="#linearGradient34"
       id="linearGradient35"
       x1="-58.289179"
       y1="95.31298"
       x2="285.29385"
       y2="95.31298"
       gradientUnits="userSpaceOnUse" /><clipPath
       clipPathUnits="userSpaceOnUse"
       id="clipPath44"><path
         fill="#000000"
         d="m 163.97088,187.39534 c 3.82662,-1.68984 7.63159,-3.46568 11.39715,-5.31497 30.12656,-14.80124 58.14481,-34.49951 75.00136,-56.1051 6.03719,-7.7387 6.05618,-14.73208 0.84716,-16.18623 -5.21104,-1.45325 -14.97095,2.62852 -24.7834,11.32024 -16.94044,15.0078 -33.59433,19.8061 -43.31354,16.22169 -9.72117,-3.58404 -12.42929,-15.31002 1.33106,-36.38886 C 200.73764,75.993308 215.54075,38.692258 212.45702,9.6929879 209.37342,-19.306834 187.20237,-39.29251 130.34206,-27.008151 108.40269,-22.267943 78.055409,-12.104654 47.996057,5.8785813 16.811994,24.214715 -20.60342,53.976083 -30.723224,72.756317 -23.599427,65.107306 -16.073389,58.60203 -8.3029916,52.795261 -22.705032,69.747007 -34.496258,89.504468 -41.447729,111.94748 l -3.479139,11.23259 12.09837,-10.67924 c 7.785234,-6.87247 15.273362,-13.558562 22.218923,-19.169842 -2.335615,3.996542 -4.643132,8.723152 -7.351236,14.739902 8.9588427,-11.640035 18.50871889,-21.015578 29.215761,-28.870801 6.257988,-2.539277 12.085923,-2.944136 18.475134,-0.14496 6.684227,2.927648 9.447588,11.932243 10.083922,24.513721 0.637032,12.58171 -0.682516,28.44291 -0.628116,43.99039 -4.660285,62.35636 46.543203,73.06228 124.78547,39.83689 z m 77.94034,-66.6212 c 58.06161,334.48886 58.06161,334.48886 0,0 z"
         id="path44"
         style="display:none;opacity:1;fill:#ce8940;fill-opacity:1;stroke-width:0.586064"
         sodipodi:nodetypes="ccccccccccccscccccccccccc"
         clip-path="none" /><path
         id="lpe_path-effect44"
         style="display:block;opacity:1;fill:#ce8940;fill-opacity:1;stroke-width:0.586064"
         class="powerclip"
         d="M -64.827584,-81.845393 H 291.81686 V 272.44919 H -64.827584 Z M 163.97088,187.39534 c 3.82662,-1.68984 7.63159,-3.46568 11.39715,-5.31497 30.12656,-14.80124 58.14481,-34.49951 75.00136,-56.1051 6.03719,-7.7387 6.05618,-14.73208 0.84716,-16.18623 -5.21104,-1.45325 -14.97095,2.62852 -24.7834,11.32024 -16.94044,15.0078 -33.59433,19.8061 -43.31354,16.22169 -9.72117,-3.58404 -12.42929,-15.31002 1.33106,-36.38886 C 200.73764,75.993308 215.54075,38.692258 212.45702,9.6929879 209.37342,-19.306834 187.20237,-39.29251 130.34206,-27.008151 108.40269,-22.267943 78.055409,-12.104654 47.996057,5.8785813 16.811994,24.214715 -20.60342,53.976083 -30.723224,72.756317 -23.599427,65.107306 -16.073389,58.60203 -8.3029916,52.795261 -22.705032,69.747007 -34.496258,89.504468 -41.447729,111.94748 l -3.479139,11.23259 12.09837,-10.67924 c 7.785234,-6.87247 15.273362,-13.558562 22.218923,-19.169842 -2.335615,3.996542 -4.643132,8.723152 -7.351236,14.739902 8.9588427,-11.640035 18.50871889,-21.015578 29.215761,-28.870801 6.257988,-2.539277 12.085923,-2.944136 18.475134,-0.14496 6.684227,2.927648 9.447588,11.932243 10.083922,24.513721 0.637032,12.58171 -0.682516,28.44291 -0.628116,43.99039 -4.660285,62.35636 46.543203,73.06228 124.78547,39.83689 z m 77.94034,-66.6212 c 58.06161,334.48886 58.06161,334.48886 0,0 z" /></clipPath><linearGradient
       inkscape:collect="always"
       xlink:href="#linearGradient73"
       id="linearGradient74"
       x1="-59.827583"
       y1="95.301903"
       x2="286.81686"
       y2="95.301903"
       gradientUnits="userSpaceOnUse" /><meshgradient
       inkscape:collect="always"
       id="meshgradient6"
       gradientUnits="userSpaceOnUse"
       x="-68.288513"
       y="-145.50999"><meshrow
         id="meshrow6"><meshpatch
           id="meshpatch6"><stop
             path="c 175.959,0  351.917,0  527.876,0"
             style="stop-color:#ffffff;stop-opacity:1"
             id="stop6" /><stop
             path="c 0,191.358  0,382.716  0,574.074"
             style="stop-color:#800080;stop-opacity:1"
             id="stop7" /><stop
             path="c -175.959,0  -351.917,0  -527.876,0"
             style="stop-color:#ffffff;stop-opacity:1"
             id="stop8" /><stop
             path="c 0,-191.358  0,-382.716  0,-574.074"
             style="stop-color:#800080;stop-opacity:1"
             id="stop9" /></meshpatch></meshrow></meshgradient></defs><path
     sodipodi:type="star"
     style="display:inline;fill:url(#linearGradient35);fill-opacity:0.846774;stroke:url(#linearGradient74);stroke-width:7.5355474;stroke-dasharray:none;stroke-opacity:0.55376345;paint-order:stroke fill markers"
     id="path31"
     inkscape:flatsided="true"
     sodipodi:sides="5"
     sodipodi:cx="109.44617"
     sodipodi:cy="88.447777"
     sodipodi:r1="157.17494"
     sodipodi:r2="78.587471"
     sodipodi:arg1="0.82835167"
     sodipodi:arg2="1.4566702"
     inkscape:rounded="0.6"
     inkscape:randomized="0"
     inkscape:transform-center-x="-34.001348"
     inkscape:transform-center-y="23.958828"
     transform="matrix(-1.3191841,-0.14421533,-0.36346302,-1.3746843,442.77542,407.40764)"
     inkscape:label="foxin-logo-clipped"
     clip-path="url(#clipPath44)"
     inkscape:path-effect="#path-effect44"
     d="M 215.71076,204.2571 C 134.02555,279.21001 128.6691,279.82399 32.142525,225.29846 -64.38405,170.77293 -66.623213,165.86838 -44.594706,57.216831 -22.566199,-51.434712 -18.593628,-55.079873 91.547314,-67.704692 201.68826,-80.32951 206.3826,-77.677788 252.42494,23.171189 298.46728,124.02017 297.39597,129.30418 215.71076,204.2571 Z" /><path
     fill="#000000"
     d="m 158.94102,125.90891 c -4.43383,1.77114 -8.80783,3.66363 -13.10315,5.66277 -34.36277,16.00232 -64.164409,39.04056 -78.548469,66.31045 -5.15143,9.76761 -2.63465,19.37857 4.76554,22.12878 7.40252,2.74927 18.79407,-1.45434 28.579369,-11.98761 16.89278,-18.18791 37.11833,-22.38231 51.24255,-16.05322 14.12668,6.32886 21.96115,22.83893 11.47009,49.83123 -12.41754,31.9479 -18.38802,81.09023 -3.77985,121.39979 14.6082,40.3103 51.11995,70.9817 121.66426,62.29472 27.21918,-3.3523 63.55885,-12.94707 96.67643,-33.33332 34.47301,-20.70918 73.01367,-56.22578 79.53764,-80.58325 -6.61747,9.48762 -14.18127,17.34495 -22.32131,24.20681 12.83761,-21.2263 21.2113,-46.6861 22.22436,-76.53565 l 0.507,-14.93952 -12.07847,12.93582 c -7.77227,8.32472 -15.22034,16.43609 -22.34332,23.14817 1.62851,-5.15715 2.9546,-11.32197 4.34022,-19.20255 -7.58764,14.70937 -16.77802,26.22054 -28.04749,35.47487 -7.33251,2.58821 -14.87348,2.30429 -24.31942,-2.46512 -9.88182,-4.98856 -16.80004,-17.76555 -22.21238,-35.15288 -5.41335,-17.38775 -9.43758,-39.00159 -15.16028,-60.38232 C 321.51788,113.61866 250.07985,91.517079 158.9401,125.90776 Z m -78.603319,80.34293 c -198.168281,-468.18996 -198.168281,-468.18996 0,0 z"
     id="path42"
     style="display:inline;opacity:1;fill:none;fill-opacity:1;stroke:url(#meshgradient6);stroke-width:3.17800052;stroke-dasharray:none"
     sodipodi:nodetypes="ccccccccccccscccccccccccc"
     clip-path="none"
     inkscape:label="border-inner-shine" /></svg>
