<?xml version="1.0" ?>
<!-- Uploaded to: SVG Repo, www.svgrepo.com, Generator: SVG Repo Mixer Tools -->
<svg width="800px" height="800px" viewBox="0 0 512 512" id="Layer_1" version="1.1" xml:space="preserve" xmlns="http://www.w3.org/2000/svg" xmlns:xlink="http://www.w3.org/1999/xlink">
<style type="text/css">
	.st0{fill:#3B4652;}
	.st1{fill:#2B79C2;}
</style>
<g>
<path class="st1" d="M331.5,199c-60.5,0-75.5,88.2-75.5,88.2S239.7,199,180.5,199c-19.9,0-38.2,9.2-50.2,25.1   c-2.9,3.9-20.1,36.7-20.1,36.7v150c0,31.4,25,56.9,56.1,57.8c0-18.3,14.8-33,33.1-33s33.1,14.8,33.1,33.1h46.9   c0-18.3,14.8-33.1,33.1-33.1s33,14.8,33.1,33c31.2-0.9,56.1-26.4,56.1-57.8V270.2c0,0-17.2-42.3-20.1-46.1   C369.7,208.2,351.4,199,331.5,199z M211.6,281.4c-0.1,0.2-0.2,0.4-0.3,0.6c-0.1,0.2-0.2,0.4-0.3,0.6c-0.1,0.3-0.3,0.6-0.5,0.9   c-0.1,0.2-0.2,0.4-0.3,0.6c-0.3,0.6-0.7,1.2-1.1,1.8c-0.1,0.2-0.3,0.5-0.5,0.7c0,0,0,0-0.1,0.1c-0.5,0.7-1,1.4-1.6,2   c-0.3,0.3-0.5,0.6-0.8,0.9c0,0-0.1,0.1-0.1,0.1c-0.3,0.3-0.6,0.6-0.9,1c-0.2,0.2-0.5,0.5-0.8,0.7c-0.3,0.3-0.6,0.6-1,0.8   c-0.3,0.2-0.5,0.5-0.8,0.7c-0.1,0.1-0.2,0.2-0.3,0.3c-0.3,0.2-0.6,0.4-0.9,0.6c-0.4,0.2-0.7,0.5-1.1,0.7c-0.5,0.3-0.9,0.6-1.4,0.8   c-0.2,0.1-0.4,0.2-0.6,0.4c0,0-0.1,0-0.1,0c-0.1,0-0.1,0.1-0.2,0.1c-0.3,0.1-0.5,0.3-0.8,0.4c-0.5,0.2-1,0.4-1.5,0.6   c-0.4,0.2-0.8,0.3-1.2,0.4c-0.3,0.1-0.7,0.2-1,0.3c0,0-0.1,0-0.1,0c-0.5,0.1-1,0.3-1.5,0.4c-0.4,0.1-0.8,0.2-1.2,0.3   c-0.4,0.1-0.9,0.2-1.3,0.2c-0.1,0-0.1,0-0.2,0c-0.4,0.1-0.9,0.1-1.3,0.1c-0.1,0-0.3,0-0.4,0c-0.1,0-0.3,0-0.4,0c-0.6,0-1.1,0-1.7,0   c-15.8,0-28.5-12.8-28.5-28.5c0-0.5,0-1,0-1.5c0.4-7.6,3.7-14.3,8.9-19.2c5.1-4.8,12-7.8,19.6-7.8c6.4,0,12.3,2.1,17.1,5.7   c7,5.2,11.5,13.5,11.5,22.9C213.8,274.2,213,277.9,211.6,281.4z M262.6,356.5l-10.2,17.7l-13.5-23.4l-13.8-24h54.7L262.6,356.5z    M326.7,298.8c-7.4,0-14.1-2.8-19.2-7.4c-0.3-0.2-0.5-0.5-0.8-0.7c-2.7-2.6-4.9-5.8-6.4-9.3c-1.4-3.4-2.2-7.2-2.2-11.1   c0-9.4,4.5-17.7,11.5-22.9c4.8-3.6,10.7-5.7,17.1-5.7c7.6,0,14.5,3,19.6,7.8c5.2,4.9,8.5,11.7,8.9,19.2c0,0.5,0,1,0,1.5   C355.2,286,342.4,298.8,326.7,298.8z"/>
<path class="st0" d="M96.3,332.3V213.3c-25.9,38.8-79,119.4-81.2,134.2C12.8,362.4,69.3,342.6,96.3,332.3z"/>
<path class="st0" d="M180.5,185c37.7,0,69,27.1,75.5,62.9c6.5-35.8,37.8-62.9,75.5-62.9c25.1,0,47.4,12,61.4,30.7   c3.5,4.7,6.5,9.8,8.9,15.2v-41.8c0-40.2-16.3-76.7-42.7-103s-62.8-42.7-103-42.7c-80.5,0-145.7,65.2-145.7,145.7v41.8   c2.4-5.4,5.4-10.5,8.9-15.2C133.1,197.1,155.4,185,180.5,185z"/>
<path class="st0" d="M496.9,347.5c-2.2-14.8-55.3-95.4-81.2-134.2v119.1C442.8,342.6,499.2,362.4,496.9,347.5z"/>
</g>
</svg>