<?xml version="1.0" encoding="utf-8"?><!-- Uploaded to: SVG Repo, www.svgrepo.com, Generator: SVG Repo Mixer Tools -->
<svg version="1.1" id="Uploaded to svgrepo.com" xmlns="http://www.w3.org/2000/svg" xmlns:xlink="http://www.w3.org/1999/xlink" 
	 width="800px" height="800px" viewBox="0 0 32 32" xml:space="preserve">
<style type="text/css">
	.stone_een{fill:#0B1719;}
</style>
<path class="stone_een" d="M20,20c0,2.766-1.234,4-4,4s-4-1.234-4-4s1.234-4,4-4S20,17.234,20,20z M26.54,25.603l-1.094-10.156
	C25.419,15.193,25.204,15,24.949,15c-0.297,0-0.529,0.258-0.497,0.553l1.43,13.34c0.063,0.591-0.4,1.107-0.994,1.107H18
	c-0.552,0-1-0.448-1-1v-1c0-0.552-0.448-1-1-1c-0.552,0-1,0.448-1,1v1c0,0.552-0.448,1-1,1H7.113c-0.594,0-1.058-0.516-0.994-1.107
	l1.43-13.34C7.58,15.258,7.348,15,7.051,15c-0.255,0-0.47,0.193-0.497,0.447L5.46,25.603c-2.183-0.92-3.527-3.335-2.907-5.816
	l1.364-5.455c0.669-2.675,2.294-4.9,4.445-6.38l0.063-0.591C8.752,4.312,11.325,2,14.391,2h3.217c3.066,0,5.639,2.312,5.966,5.361
	l0.063,0.591c2.152,1.481,3.777,3.706,4.445,6.38l1.364,5.455C30.067,22.268,28.723,24.682,26.54,25.603z M17,7c0,0.552,0.448,1,1,1
	s1-0.448,1-1c0-0.552-0.448-1-1-1S17,6.448,17,7z M13,7c0,0.552,0.448,1,1,1s1-0.448,1-1c0-0.552-0.448-1-1-1S13,6.448,13,7z
	 M12,10.5c0,0.276,0.224,0.5,0.5,0.5h7c0.276,0,0.5-0.224,0.5-0.5S19.776,10,19.5,10h-7C12.224,10,12,10.224,12,10.5z M21,20
	c0-3.314-1.686-5-5-5s-5,1.686-5,5s1.686,5,5,5S21,23.314,21,20z"/>
</svg>