<?xml version="1.0" encoding="utf-8"?><!-- Uploaded to: SVG Repo, www.svgrepo.com, Generator: SVG Repo Mixer Tools -->
<svg version="1.1" id="Uploaded to svgrepo.com" xmlns="http://www.w3.org/2000/svg" xmlns:xlink="http://www.w3.org/1999/xlink" 
	 width="800px" height="800px" viewBox="0 0 32 32" xml:space="preserve">
<style type="text/css">
	.stone_een{fill:#0B1719;}
</style>
<path class="stone_een" d="M16,5c-3.484,0-7,1.855-7,6c0,4.145,3.516,6,7,6c3.484,0,7-1.855,7-6C23,6.855,19.484,5,16,5z M14,11
	c-0.552,0-1-0.448-1-1c0-0.552,0.448-1,1-1s1,0.448,1,1C15,10.552,14.552,11,14,11z M18,11c-0.552,0-1-0.448-1-1
	c0-0.552,0.448-1,1-1s1,0.448,1,1C19,10.552,18.552,11,18,11z M28,15c0,8.837-4.82,17-12,17c-3.65,0-6.685-2.116-8.792-5.351
	c10.4-2.139,13.894-9.622,14.039-9.944l0.164-0.365C22.999,15.141,24,13.329,24,11c0-4.418-3.582-7-8-7s-8,2.582-8,7s3.582,7,8,7
	c1.363,0,2.646-0.247,3.769-0.717c-1.327,2.097-5.173,6.951-13.093,8.463l-0.014,0.003C4.963,22.74,4,18.94,4,15
	C4,6.163,8.82,1,16,1S28,6.163,28,15z"/>
</svg>