<?xml version="1.0" encoding="utf-8"?><!-- Uploaded to: SVG Repo, www.svgrepo.com, Generator: SVG Repo Mixer Tools -->
<svg width="800px" height="800px" viewBox="0 0 16 16" xmlns="http://www.w3.org/2000/svg">
  <path fill-rule="evenodd" clip-rule="evenodd" d="M3 2a1 1 0 011-1h1a2 2 0 012 2v.1a5.023 5.023 0 012 0V3a2 2 0 012-2h1a1 1 0 110 2h-1v1c.379.284.716.621 1 1h2a1 1 0 110 2h-1.1c.066.323.1.658.1 1h1a1 1 0 110 2h-1c0 .342-.034.677-.1 1H14a1 1 0 110 2h-2a4.993 4.993 0 01-4 2 4.993 4.993 0 01-4-2H2a1 1 0 110-2h1.1a5.022 5.022 0 01-.1-1H2a1 1 0 110-2h1c0-.342.034-.677.1-1H2a1 1 0 010-2h2a5.03 5.03 0 011-1V3H4a1 1 0 01-1-1zm6 10.83V8a1 1 0 00-2 0v4.83A3.001 3.001 0 015 10V8a3 3 0 016 0v2a3.001 3.001 0 01-2 2.83z" fill="#000000"/>
</svg>