<?xml version="1.0" encoding="utf-8"?><!-- Uploaded to: SVG Repo, www.svgrepo.com, Generator: SVG Repo Mixer Tools -->
<svg version="1.1" id="Uploaded to svgrepo.com" xmlns="http://www.w3.org/2000/svg" xmlns:xlink="http://www.w3.org/1999/xlink" 
	 width="800px" height="800px" viewBox="0 0 32 32" xml:space="preserve">
<style type="text/css">
	.stone_een{fill:#0B1719;}
</style>
<path class="stone_een" d="M29,14.5c0,0.827-0.673,1.5-1.5,1.5S26,15.327,26,14.5s0.673-1.5,1.5-1.5S29,13.673,29,14.5z M32,14.5
	c0,2.485-2.015,4.5-4.5,4.5c-2.314,0-4.198-1.753-4.45-4H20.95c-0.232,1.141-1.24,2-2.45,2s-2.218-0.859-2.45-2H12.95
	c-0.232,1.141-1.24,2-2.45,2s-2.218-0.859-2.45-2H6.95c-0.232,1.141-1.24,2-2.45,2s-2.218-0.859-2.45-2H0.5
	C0.224,15,0,14.776,0,14.5S0.224,14,0.5,14h1.55c0.232-1.141,1.24-2,2.45-2s2.218,0.859,2.45,2H8.05c0.232-1.141,1.24-2,2.45-2
	s2.218,0.859,2.45,2h3.101c0.232-1.141,1.24-2,2.45-2s2.218,0.859,2.45,2h2.101c0.252-2.247,2.136-4,4.45-4
	C29.985,10,32,12.015,32,14.5z M30,14.5c0-1.381-1.119-2.5-2.5-2.5S25,13.119,25,14.5c0,1.381,1.119,2.5,2.5,2.5S30,15.881,30,14.5z
	"/>
</svg>