<?xml version="1.0" encoding="iso-8859-1"?>
<!-- Uploaded to: SVG Repo, www.svgrepo.com, Generator: SVG Repo Mixer Tools -->
<!DOCTYPE svg PUBLIC "-//W3C//DTD SVG 1.1//EN" "http://www.w3.org/Graphics/SVG/1.1/DTD/svg11.dtd">
<svg fill="#000000" height="800px" width="800px" version="1.1" id="Capa_1" xmlns="http://www.w3.org/2000/svg" xmlns:xlink="http://www.w3.org/1999/xlink" 
	 viewBox="0 0 442.022 442.022" xml:space="preserve">
<path d="M221.01,209.294c-15.179,0-27.528,12.349-27.528,27.528c0,15.178,12.349,27.527,27.528,27.527
	c15.178,0,27.527-12.349,27.527-27.527C248.536,221.643,236.188,209.294,221.01,209.294z"/>
<g>
	<path d="M146.699,293.572c1.037-4.418,2.85-8.617,5.263-12.463c-0.297-1.598-0.616-3.016-0.936-3.802
		c-0.791-0.961-2.793-2.625-4.706-4.154c-0.351,0.012-0.701,0.022-1.051,0.022c0,0,0.001,0,0,0c-3.938,0-7.77-0.538-11.387-1.597
		l-56.374-16.515c-3.731-1.093-7.458-2.765-11.063-4.882l-8.861,2.635c-10.93,3.25-23.107,15.763-26.059,26.778l-16.859,62.922
		c-1.167,4.358-0.555,8.934,1.727,12.884c2.281,3.951,5.937,6.77,10.294,7.937l62.922,16.86c2.29,0.613,4.907,0.924,7.78,0.925
		h0.002c10.462,0,22.156-4.154,28.438-10.104l6.314-5.979c-0.265-4.968,0.085-9.818,1.132-14.278L146.699,293.572z"/>
	<path d="M168.324,267.229c6.13,10.596,2.669,31.728,13.264,37.858c1.866,1.079,3.933,1.521,6.146,1.521
		c9.97,0,22.867-8.968,33.275-8.968c10.409,0,23.305,8.968,33.275,8.968c2.212,0,4.281-0.441,6.146-1.521
		c10.596-6.131,7.134-27.263,13.264-37.859c5.942-10.271,26.133-17.688,26.133-30.407c0-12.719-20.191-20.136-26.133-30.407
		c-6.13-10.596-2.668-31.729-13.264-37.859c-1.866-1.079-3.934-1.521-6.146-1.521c-9.97,0-22.866,8.967-33.275,8.967
		c-10.41,0-23.305-8.968-33.275-8.968c-2.212,0.001-4.281,0.442-6.146,1.521c-10.596,6.13-7.134,27.263-13.264,37.859
		c-5.942,10.271-26.133,17.688-26.133,30.407C142.191,249.541,162.382,256.958,168.324,267.229z M221.01,189.294
		c26.206,0,47.527,21.321,47.527,47.528c0,26.207-21.32,47.527-47.527,47.527c-26.207,0-47.528-21.32-47.528-47.527
		C173.482,210.615,194.803,189.294,221.01,189.294z"/>
	<path d="M388.338,124.118l-62.991-16.607c-2.25-0.593-4.816-0.894-7.627-0.894c-10.511,0-22.254,4.202-28.556,10.218l-31.792,30.35
		c4.713,0.412,9.102,1.762,13.073,4.06c14.624,8.461,17.087,24.897,18.717,35.773c0.459,3.065,1.145,7.636,1.829,9.319
		c1.093,1.327,4.498,4.001,6.785,5.797c8.781,6.897,22.051,17.32,22.051,34.688c0,3.585-0.572,6.869-1.546,9.892l39.603-11.949
		c10.917-3.294,23.044-15.856,25.952-26.883l16.607-62.99c1.15-4.362,0.518-8.935-1.778-12.876
		C396.367,128.072,392.7,125.269,388.338,124.118z"/>
	<path d="M316.19,371.019c6.281,5.948,17.977,10.103,28.441,10.104h0.002c2.87,0,5.486-0.311,7.776-0.925l62.922-16.86
		c9.055-2.426,14.447-11.767,12.021-20.821l-16.86-62.922c-2.952-11.015-15.128-23.528-26.059-26.778l-10.856-3.228
		c-3.243,1.843-6.577,3.316-9.917,4.324l-56.238,16.968c-3.482,1.051-7.168,1.596-10.958,1.664
		c-2.118,1.676-4.574,3.672-5.473,4.763c-0.345,0.849-0.69,2.431-1.006,4.185c2.163,3.571,3.812,7.432,4.798,11.486l13.884,57.079
		c1.134,4.663,1.502,9.762,1.205,14.979L316.19,371.019z"/>
	<path d="M287.653,93.668l1.602-6.701c2.65-11.091-2.098-27.894-10.161-35.957L233.031,4.947C229.841,1.757,225.572,0,221.01,0
		c-4.562,0-8.832,1.757-12.021,4.947l-46.063,46.063c-8.064,8.063-12.812,24.866-10.162,35.957l2.117,8.859
		c3.633,2.036,6.933,4.378,9.712,6.989l42.815,40.219c3.514,3.301,6.372,7.236,8.545,11.543c2.083,0.746,4.042,1.362,5.056,1.424
		c0.682-0.042,1.791-0.334,3.079-0.748c2.176-4.598,5.101-8.813,8.776-12.321l42.036-40.129l0.454-0.434
		C275.354,102.369,283.213,95.604,287.653,93.668z"/>
	<path d="M209.299,437.124c3.184,3.158,7.436,4.898,11.971,4.898c4.588,0,8.876-1.773,12.071-4.995l45.876-46.247
		c8.031-8.096,12.712-24.917,10.017-35.997l-9.779-40.203c-2.337,2.976-5.275,5.658-9.009,7.819
		c-4.828,2.793-10.265,4.209-16.161,4.209c-8.68,0-16.569-3.065-23.529-5.769c-3.17-1.232-7.947-3.088-9.746-3.197
		c-1.799,0.11-6.576,1.965-9.746,3.197c-6.96,2.704-14.849,5.769-23.529,5.769c-5.896,0-11.334-1.417-16.162-4.21
		c-3.839-2.221-6.834-4.996-9.202-8.071l-9.626,41.005c-2.606,11.102,2.21,27.885,10.306,35.915L209.299,437.124z"/>
	<path d="M122.578,107.402c-2.934,0-5.603,0.322-7.934,0.957L51.79,125.473c-9.044,2.462-14.399,11.824-11.937,20.869l17.112,62.855
		c2.996,11.003,15.223,23.467,26.166,26.673l41.008,12.013c-1.219-3.339-1.948-7.009-1.948-11.061
		c0-17.368,13.27-27.791,22.051-34.688c2.287-1.796,5.692-4.471,6.784-5.797c0.684-1.684,1.369-6.254,1.829-9.319
		c1.63-10.876,4.094-27.312,18.718-35.773c3.458-2.001,7.233-3.282,11.261-3.855L150.9,117.392
		C144.639,111.51,132.993,107.402,122.578,107.402z"/>
</g>
</svg>