<?xml version="1.0" encoding="iso-8859-1"?>
<!-- Uploaded to: SVG Repo, www.svgrepo.com, Generator: SVG Repo Mixer Tools -->
<svg fill="#000000" height="800px" width="800px" version="1.1" id="Layer_1" xmlns="http://www.w3.org/2000/svg" xmlns:xlink="http://www.w3.org/1999/xlink" 
	 viewBox="0 0 511.998 511.998" xml:space="preserve">
<g>
	<g>
		<path d="M498.06,213.236l-49.148-67.633c-8.542-11.756-21.121-19.586-35.446-22.055c-9.187-1.59-18.452-0.845-27.082,2.069
			c2.914-8.62,3.659-17.884,2.069-27.082c-2.469-14.325-10.299-26.904-22.055-35.446l-67.633-49.149
			c-25.581-18.585-59.948-18.585-85.529,0l-67.633,49.149c-11.756,8.542-19.586,21.121-22.055,35.446
			c-1.586,9.201-0.833,18.464,2.075,27.089c-8.629-2.908-17.893-3.661-27.088-2.075c-14.325,2.469-26.904,10.299-35.446,22.055
			l-49.148,67.633c-18.585,25.581-18.585,59.948,0,85.529l49.148,67.633c8.542,11.756,21.121,19.586,35.446,22.055
			c3.181,0.545,6.362,0.823,9.521,0.823c5.995,0,11.912-0.979,17.562-2.881c-2.914,8.62-3.648,17.873-2.069,27.071
			c2.469,14.325,10.299,26.904,22.055,35.446l67.633,49.149c12.79,9.287,27.772,13.936,42.764,13.936
			c14.981,0,29.974-4.649,42.764-13.936l67.633-49.149c11.756-8.542,19.586-21.121,22.055-35.446
			c1.579-9.198,0.845-18.452-2.069-27.071c5.65,1.902,11.567,2.881,17.562,2.881c3.159,0,6.351-0.278,9.521-0.823
			c14.325-2.469,26.904-10.299,35.446-22.055l49.149-67.633C516.644,273.184,516.644,238.817,498.06,213.236z M118.806,244.878
			h-28.58c-6.143,0-11.122,4.98-11.122,11.122c0,6.143,4.979,11.122,11.122,11.122h28.58c-4.839,7.82-6.98,17.363-5.418,27.234
			l9.73,61.434c0.363,2.291,0.931,4.508,1.658,6.648c-14.708,8.68-33.501,4.916-43.695-9.119l-49.148-67.633
			c-12.902-17.751-12.902-41.619,0-59.37l49.148-67.633c10.195-14.035,28.987-17.799,43.695-9.119
			c-0.727,2.139-1.296,4.355-1.658,6.648l-9.73,61.434C111.824,227.516,113.966,237.058,118.806,244.878z M376.638,221.124
			c1.499,9.465-4.707,18.256-14.127,20.013l-17.309,3.229c-5.698,1.06-11.544-0.751-15.64-4.847l-57.082-57.082
			c-4.099-4.097-5.91-9.943-4.847-15.639l3.229-17.31c1.582-8.477,8.857-14.351,17.195-14.351c0.929,0,64.252,9.953,64.252,9.953
			c7.539,1.193,13.407,7.061,14.6,14.6L376.638,221.124z M314.627,256.005c-0.265,0.25-58.377,58.362-58.628,58.628
			c-0.251-0.266-58.364-58.379-58.629-58.629c0.266-0.251,58.377-58.371,58.629-58.637
			C256.25,197.633,314.362,255.754,314.627,256.005z M158.681,81.083l67.633-49.149c17.751-12.902,41.619-12.902,59.37,0
			l67.633,49.149c14.035,10.193,17.8,28.987,9.12,43.694c-2.139-0.727-4.355-1.296-6.648-1.658l-61.434-9.73
			c-10.169-1.612-19.989,0.705-27.934,5.857V90.927c0-6.142-4.98-11.122-11.122-11.122c-6.142,0-11.122,4.98-11.122,11.122v27.459
			c-7.686-4.539-16.954-6.511-26.533-4.997l-61.434,9.73c-2.292,0.363-4.508,0.931-6.648,1.658
			C140.881,110.07,144.645,91.277,158.681,81.083z M135.359,221.124l9.73-61.434c1.193-7.539,7.061-13.407,14.6-14.6
			c0,0,63.325-9.953,64.253-9.953c8.336,0,15.612,5.875,17.194,14.351l3.04,16.297v8.333h0.001
			c-0.745,3.105-2.332,5.995-4.659,8.319l-57.082,57.082c-4.099,4.099-9.948,5.908-15.639,4.847l-17.31-3.229
			C140.064,239.38,133.859,230.589,135.359,221.124z M135.359,290.877c-1.499-9.465,4.706-18.256,14.127-20.013
			c0,0,19.461-3.527,20.532-3.527c4.613,0,9.092,1.82,12.417,5.145l57.082,57.082c2.326,2.326,3.913,5.215,4.659,8.319v8.333
			l-3.04,16.297c-1.757,9.422-10.549,15.624-20.013,14.127l-61.435-9.73c-7.539-1.193-13.407-7.061-14.6-14.6L135.359,290.877z
			 M353.316,430.918l-67.633,49.149c-17.751,12.902-41.619,12.902-59.37,0l-67.633-49.149c-14.035-10.193-17.8-28.987-9.119-43.694
			c2.139,0.727,68.082,11.388,68.082,11.388c2.151,0.341,4.284,0.506,6.39,0.506c7.272,0,14.183-1.979,20.143-5.499v27.455
			c0,6.142,4.98,11.122,11.122,11.122c6.142,0,11.122-4.98,11.122-11.122v-28.321c6.266,4.063,13.696,6.365,21.545,6.365
			c2.105,0,4.239-0.166,6.39-0.506c0,0,65.943-10.661,68.082-11.388C371.116,401.93,367.352,420.723,353.316,430.918z
			 M376.638,290.876l-9.73,61.434c-1.193,7.539-7.061,13.407-14.6,14.6l-61.434,9.73c-9.462,1.493-18.256-4.707-20.013-14.127
			l-3.229-17.31c-1.063-5.694,0.748-11.541,4.847-15.639l57.082-57.082c3.324-3.326,7.802-5.145,12.417-5.145
			c1.071,0,20.532,3.527,20.532,3.527C371.932,272.62,378.137,281.411,376.638,290.876z M480.065,285.685l-49.148,67.633
			c-10.193,14.035-28.987,17.8-43.694,9.119c0.727-2.139,1.296-4.355,1.658-6.648l9.73-61.434
			c1.563-9.871-0.578-19.414-5.418-27.234h27.179c6.142,0,11.122-4.979,11.122-11.122c0-6.142-4.98-11.122-11.122-11.122h-27.179
			c4.839-7.82,6.98-17.363,5.418-27.234l-9.73-61.434c-0.363-2.292-0.931-4.508-1.658-6.648c14.708-8.68,33.501-4.916,43.694,9.119
			l49.148,67.633C492.966,244.067,492.966,267.935,480.065,285.685z"/>
	</g>
</g>
</svg>