<?xml version="1.0" encoding="iso-8859-1"?>
<!-- Uploaded to: SVG Repo, www.svgrepo.com, Generator: SVG Repo Mixer Tools -->
<svg fill="#000000" height="800px" width="800px" version="1.1" id="Layer_1" xmlns="http://www.w3.org/2000/svg" xmlns:xlink="http://www.w3.org/1999/xlink" 
	 viewBox="0 0 512 512" xml:space="preserve">
<g>
	<g>
		<path d="M419.833,273.547l-24.386,24.386c-7.162-3.434-15.178-5.361-23.637-5.361c-30.249,0-54.857,24.609-54.857,54.857
			c0,8.459,1.927,16.475,5.36,23.637l-48.027,48.027v-94.566l73.886-73.886c7.162,3.433,15.178,5.36,23.637,5.36
			c30.249,0,54.857-24.609,54.857-54.857c0-8.459-1.927-16.475-5.36-23.637l24.386-24.386l-25.86-25.86l-24.386,24.386
			c-7.162-3.433-15.178-5.36-23.637-5.36c-30.249,0-54.857,24.609-54.857,54.857c0,8.459,1.927,16.475,5.36,23.637l-48.027,48.027
			V162.016c28.108-7.981,48.762-33.862,48.762-64.492s-20.654-56.51-48.762-64.492V0h-36.571v33.031
			c-28.108,7.982-48.762,33.862-48.762,64.492c0,30.631,20.654,56.51,48.762,64.492v110.791l-48.028-48.027
			c3.434-7.162,5.361-15.178,5.361-23.637c0-30.248-24.609-54.857-54.857-54.857c-8.458,0-16.475,1.927-23.637,5.36L92.167,127.26
			l-25.86,25.86l24.386,24.386c-3.433,7.162-5.36,15.178-5.36,23.637c0,30.248,24.609,54.857,54.857,54.857
			c8.458,0,16.475-1.927,23.637-5.361l73.886,73.886v94.566l-48.028-48.028c3.434-7.159,5.361-15.176,5.361-23.635
			c0-30.248-24.609-54.857-54.857-54.857c-8.458,0-16.475,1.927-23.637,5.361l-24.386-24.386l-25.86,25.86l24.386,24.386
			c-3.433,7.161-5.36,15.177-5.36,23.636c0,30.248,24.609,54.857,54.857,54.857c8.458,0,16.475-1.927,23.637-5.36l73.886,73.886V512
			h36.571v-41.188l73.886-73.886c7.162,3.433,15.178,5.36,23.637,5.36c30.249,0,54.857-24.609,54.857-54.857
			c0-8.459-1.927-16.475-5.36-23.637l24.386-24.386L419.833,273.547z"/>
	</g>
</g>
</svg>