<?xml version="1.0" encoding="iso-8859-1"?>
<!-- Uploaded to: SVG Repo, www.svgrepo.com, Generator: SVG Repo Mixer Tools -->
<!DOCTYPE svg PUBLIC "-//W3C//DTD SVG 1.1//EN" "http://www.w3.org/Graphics/SVG/1.1/DTD/svg11.dtd">
<svg fill="#000000" height="800px" width="800px" version="1.1" id="Capa_1" xmlns="http://www.w3.org/2000/svg" xmlns:xlink="http://www.w3.org/1999/xlink" 
	 viewBox="0 0 461.675 461.675" xml:space="preserve">
<g>
	<path d="M196.947,118.179l-29.289,29.289c7.805,22.304,37.589,103.076,70.347,135.832c32.61,32.61,64.805,42.564,82.016,25.352
		c5.056-5.057,7.746-11.413,8.221-18.688c-19.034-4.619-39.286-17.346-59.421-37.48
		C236.419,220.083,208.303,149.401,196.947,118.179z"/>
	<path d="M398.508,246.093l17.874,17.874c-3.515,6.81-2.425,15.381,3.282,21.088c7.065,7.065,18.52,7.066,25.586-0.001
		c7.064-7.064,7.063-18.519-0.002-25.583c-5.709-5.71-14.281-6.8-21.09-3.282l-13.77-13.771
		C406.654,244.131,402.678,245.356,398.508,246.093z"/>
	<path d="M131.174,109.791l22.938,22.939l79.681-79.681l-22.939-22.938c-10.642-10.643-24.791-16.503-39.842-16.503
		c-12.553,0-24.47,4.09-34.256,11.618c-5.827-4.819-14.572-11.254-25.014-16.396C85.025-4.327,60.448-2.755,40.673,13.375
		C21.411,29.09,2.821,47.708,5.424,86.856c2.403,36.143,22.674,87.827,65.728,167.581c32.506,60.216,44.357,110.2,48.575,141.528
		c4.565,33.911,1.42,53.87,1.392,54.042c-0.92,5.446,2.75,10.606,8.195,11.525c0.565,0.096,1.124,0.142,1.677,0.142
		c4.791-0.001,9.024-3.455,9.849-8.337c0.588-3.481,13.637-86.647-52.088-208.4C-3.059,74.862,23.066,53.551,53.316,28.873
		c13.354-10.895,29.902-11.668,49.181-2.301c8.503,4.131,15.805,9.423,20.779,13.473C109.649,61.794,112.271,90.888,131.174,109.791
		z"/>
	<path d="M353.769,167.538c19.859,19.859,32.763,40.373,37.43,59.42c7.296-0.464,13.669-3.154,18.736-8.222
		c9.488-9.487,9.062-22.131,7.032-31.067c-3.565-15.71-14.764-33.327-32.384-50.946c-32.784-32.783-113.528-62.547-135.831-70.348
		l-29.291,29.29C250.684,107.021,321.366,135.135,353.769,167.538z"/>
	<path d="M451.196,319.648c-5.708-5.709-14.281-6.8-21.09-3.282l-45.333-45.334c-1.648,2.408-3.532,4.684-5.653,6.805
		c-0.519,0.519-1.046,1.022-1.583,1.514l44.792,44.794c-3.515,6.809-2.424,15.38,3.283,21.088c7.066,7.065,18.521,7.065,25.586,0
		C458.261,338.168,458.261,326.714,451.196,319.648z"/>
	<path d="M369.458,310.891l-19.318-19.318c-0.689,0.076-1.384,0.143-2.084,0.193c-0.281,3.897-0.971,7.648-2.049,11.228
		l15.675,15.676c-3.517,6.809-2.426,15.38,3.283,21.088c7.065,7.064,18.519,7.065,25.584,0c7.065-7.065,7.064-18.52-0.001-25.584
		C384.838,308.465,376.266,307.374,369.458,310.891z"/>
	<path d="M339.626,181.68c-27.806-27.806-90.114-53.439-122.004-65.342c11.911,31.894,37.558,94.222,65.34,122.004
		c21.655,21.655,43.331,33.582,61.034,33.582c8.461,0,15.52-2.77,20.98-8.23C382.188,246.483,372.238,214.291,339.626,181.68z"/>
</g>
</svg>