<?xml version="1.0" encoding="iso-8859-1"?>
<!-- Uploaded to: SVG Repo, www.svgrepo.com, Generator: SVG Repo Mixer Tools -->
<svg fill="#000000" height="800px" width="800px" version="1.1" id="Layer_1" xmlns="http://www.w3.org/2000/svg" xmlns:xlink="http://www.w3.org/1999/xlink" 
	 viewBox="0 0 512 512" xml:space="preserve">
<g>
	<g>
		<path d="M510.575,250.694c-17.922-30.966-46.627-54.864-79.996-67.02c15.006-32.188,18.407-69.373,9.179-103.931
			c-0.978-3.663-3.838-6.523-7.501-7.501c-34.556-9.23-71.742-5.828-103.931,9.177c-12.156-33.368-36.053-62.073-67.021-79.995
			c-3.282-1.899-7.33-1.899-10.612,0c-30.967,17.922-54.864,46.627-67.021,79.995c-32.189-15.006-69.376-18.406-103.931-9.177
			c-3.663,0.978-6.523,3.839-7.501,7.501c-9.229,34.557-5.827,71.743,9.179,103.931c-33.369,12.156-62.074,36.053-79.996,67.02
			c-1.899,3.283-1.899,7.33,0,10.613c17.922,30.966,46.627,54.864,79.996,67.02c-15.006,32.188-18.407,69.373-9.179,103.93
			c0.978,3.663,3.838,6.523,7.501,7.501c12.828,3.426,26.013,5.113,39.176,5.113c22.297-0.001,44.511-4.862,64.752-14.297
			c12.155,33.371,36.054,62.079,67.024,80.002c1.641,0.949,3.473,1.425,5.306,1.425c1.832,0,3.665-0.475,5.306-1.425
			c30.97-17.923,54.868-46.631,67.024-80.002c20.241,9.436,42.452,14.297,64.752,14.297c13.162,0,26.351-1.687,39.176-5.113
			c3.663-0.978,6.523-3.839,7.501-7.501c9.229-34.556,5.827-71.742-9.179-103.93c33.369-12.156,62.074-36.053,79.996-67.02
			C512.474,258.024,512.474,253.975,510.575,250.694z M420.748,91.253c6.04,27.958,2.712,57.485-9.277,83.287
			c-17.57-10.497-37.91-16.01-58.277-15.735c0.252-20.393-5.246-40.715-15.736-58.277C363.26,88.54,392.788,85.212,420.748,91.253z
			 M347.791,294.017c11.851-5.115,22.381-13.119,30.516-23.178c12.9,12.438,21.891,28.743,25.531,46.399
			c-15.045,9.908-32.931,15.075-50.857,14.746C354.34,319.118,352.553,306.012,347.791,294.017z M291.903,235.857
			c7.697-3.44,16.088-5.24,24.594-5.24c5.293,0,10.551,0.689,15.626,2.048c0.017,0.004,0.034,0.011,0.051,0.015
			c13.455,3.608,25.396,11.976,33.492,23.319c-8.104,11.36-20.062,19.738-33.543,23.342c-5.072,1.359-10.33,2.048-15.626,2.048
			c-8.506,0-16.884-1.794-24.559-5.218c3.359-5.953,5.287-12.816,5.287-20.126C297.224,248.71,295.284,241.824,291.903,235.857z
			 M347.792,217.987c4.763-11.998,6.55-25.104,5.191-37.971c17.922-0.327,35.806,4.839,50.857,14.744
			c-3.64,17.656-12.632,33.961-25.531,46.4C370.172,231.103,359.641,223.1,347.792,217.987z M329.384,212.595
			c-4.248-0.696-8.559-1.048-12.886-1.048c-6.13,0-12.216,0.711-18.133,2.097c1.385-5.916,2.095-12.006,2.095-18.143
			c0-4.347-0.351-8.659-1.041-12.882c10.675-4.622,22.619-6.093,34.131-4.166C335.475,189.976,334.003,201.925,329.384,212.595z
			 M331.986,159.019c-12.86-1.36-25.963,0.428-37.962,5.194c-5.113-11.854-13.118-22.386-23.183-30.524
			c12.437-12.898,28.742-21.889,46.399-25.529C327.147,123.212,332.315,141.097,331.986,159.019z M256.132,297.135
			c7.268,0,14.097-1.905,20.026-5.23c3.433,7.683,5.232,16.072,5.232,24.589c0,5.298-0.689,10.555-2.049,15.631
			c-3.602,13.476-11.98,25.435-23.341,33.539c-11.363-8.11-19.738-20.073-23.334-33.558c-1.358-5.061-2.048-10.314-2.048-15.611
			c0-8.543,1.815-16.975,5.283-24.707C241.88,295.185,248.781,297.135,256.132,297.135z M236.226,256.043
			c0-10.976,8.93-19.906,19.906-19.906s19.906,8.93,19.906,19.906c0,10.976-8.93,19.906-19.906,19.906
			S236.226,267.02,236.226,256.043z M276.129,220.164c-5.923-3.315-12.741-5.212-19.996-5.212c-7.339,0-14.228,1.943-20.198,5.328
			c-3.489-7.743-5.316-16.201-5.316-24.776c0-5.298,0.689-10.55,2.052-15.626c3.592-13.474,11.967-25.435,23.331-33.545
			c11.365,8.108,19.745,20.072,23.347,33.573c1.355,5.016,2.042,10.264,2.042,15.596
			C281.391,204.048,279.583,212.461,276.129,220.164z M256,23.004c24.043,15.507,42.577,38.743,52.354,65.459
			c-19.846,4.999-38.111,15.479-52.354,30.072c-14.242-14.593-32.509-25.074-52.355-30.072
			C213.422,61.747,231.957,38.513,256,23.004z M194.752,108.159c17.661,3.639,33.968,12.631,46.409,25.533
			c-10.063,8.14-18.066,18.673-23.175,30.521c-12.008-4.769-25.12-6.556-37.988-5.191
			C179.62,140.971,184.772,123.257,194.752,108.159z M220.272,276.074c-7.733,3.487-16.186,5.312-24.768,5.312
			c-5.323,0-10.571-0.687-15.625-2.051c-13.475-3.594-25.437-11.972-33.544-23.339c8.099-11.347,20.042-19.716,33.505-23.319
			c0.017-0.004,0.034-0.011,0.051-0.015c5.072-1.358,10.324-2.048,15.612-2.048c8.587,0,17.055,1.83,24.808,5.329
			c-3.349,5.947-5.271,12.801-5.271,20.099C215.04,263.313,216.946,270.143,220.272,276.074z M159.023,331.985
			c-17.922,0.329-35.81-4.837-50.861-14.743c3.636-17.648,12.628-33.954,25.531-46.4c8.14,10.066,18.673,18.072,30.519,23.18
			C159.448,306.015,157.662,319.119,159.023,331.985z M164.214,217.984c-11.851,5.111-22.382,13.113-30.52,23.173
			c-12.904-12.448-21.897-28.755-25.531-46.404c15.147-10.021,32.777-15.143,50.863-14.759
			C157.658,192.868,159.444,205.981,164.214,217.984z M178.458,178.455c11.513-1.928,23.463-0.457,34.141,4.168
			c-0.695,4.244-1.048,8.553-1.048,12.881c0,6.134,0.712,12.225,2.097,18.144c-5.92-1.388-12.011-2.1-18.147-2.1
			c-4.325,0-8.634,0.353-12.879,1.048C177.999,201.926,176.526,189.977,178.458,178.455z M91.252,91.253
			c27.955-6.04,57.475-2.713,83.274,9.27c-10.563,17.584-16.041,37.735-15.736,58.259c-20.51-0.316-40.623,5.13-58.268,15.743
			C88.54,148.726,85.213,119.204,91.252,91.253z M23.006,256c15.507-24.044,38.743-42.578,65.46-52.354
			c4.997,19.839,15.478,38.104,30.077,52.354c-14.598,14.25-25.079,32.515-30.077,52.354C61.749,298.577,38.512,280.042,23.006,256z
			 M91.252,420.747c-6.04-27.957-2.712-57.485,9.276-83.287c17.563,10.496,37.889,16.007,58.277,15.735
			c-0.252,20.393,5.246,40.715,15.736,58.277C148.74,423.459,119.212,426.787,91.252,420.747z M182.622,299.411
			c4.232,0.693,8.541,1.044,12.881,1.044c6.139,0,12.23-0.713,18.148-2.101c-1.388,5.922-2.1,12.009-2.1,18.142
			c0,4.328,0.352,8.637,1.047,12.878c-10.668,4.623-22.616,6.097-34.14,4.172C176.528,322.025,178.001,310.078,182.622,299.411z
			 M180.014,352.98c2.792,0.296,5.596,0.45,8.398,0.45c10.108,0,20.181-1.918,29.572-5.65c5.11,11.852,13.112,22.385,23.173,30.524
			c-12.454,12.911-28.76,21.905-46.398,25.536C184.853,388.789,179.685,370.903,180.014,352.98z M256,488.995
			c-24.042-15.506-42.576-38.742-52.352-65.457c19.831-4.995,38.096-15.475,52.352-30.081
			c14.256,14.606,32.521,25.087,52.354,30.081C298.577,450.254,280.042,473.487,256,488.995z M317.238,403.84
			c-17.637-3.632-33.94-12.625-46.394-25.534c10.06-8.136,18.065-18.668,23.18-30.52c9.393,3.729,19.464,5.645,29.57,5.645
			c2.8,0,5.602-0.155,8.393-0.449C332.315,370.911,327.146,388.795,317.238,403.84z M333.548,333.547
			c-11.519,1.925-23.467,0.453-34.136-4.165c0.695-4.247,1.047-8.556,1.047-12.884c0-6.135-0.71-12.222-2.093-18.135
			c5.913,1.383,11.999,2.093,18.132,2.093c4.328,0,8.64-0.352,12.886-1.047C334.001,310.077,335.472,322.024,333.548,333.547z
			 M420.748,420.747c-27.961,6.041-57.487,2.713-83.29-9.276c10.491-17.556,15.989-37.877,15.736-58.276
			c20.387,0.254,40.717-5.247,58.276-15.737C423.46,363.261,426.788,392.79,420.748,420.747z M423.535,308.354
			c-5-19.846-15.479-38.112-30.073-52.355c14.594-14.241,25.072-32.507,30.072-52.352c26.717,9.776,49.952,28.31,65.459,52.352
			C473.486,280.043,450.253,298.578,423.535,308.354z"/>
	</g>
</g>
</svg>