<?xml version="1.0" encoding="iso-8859-1"?>
<!-- Uploaded to: SVG Repo, www.svgrepo.com, Generator: SVG Repo Mixer Tools -->
<svg version="1.1" id="Layer_1" xmlns="http://www.w3.org/2000/svg" xmlns:xlink="http://www.w3.org/1999/xlink" 
	 viewBox="0 0 508 508" xml:space="preserve">
<circle style="fill:#54C0EB;" cx="254" cy="254" r="254"/>
<path style="fill:#324A5E;" d="M407.9,407.9L407.9,407.9c-15.1,15.1-40,13.6-53.2-3.1l-58.6-74.1l34.5-34.5l74.1,58.6
	C421.6,368,423,392.9,407.9,407.9z"/>
<path style="fill:#2B3B4E;" d="M325.7,285.8l-22.2-22.2l-39.9,39.9l22.2,22.2c11,11,28.9,11,39.9,0l0,0
	C336.7,314.7,336.7,296.8,325.7,285.8z"/>
<circle style="fill:#324A5E;" cx="202.1" cy="202.1" r="135.6"/>
<circle style="fill:#FFFFFF;" cx="202.1" cy="202.1" r="108.3"/>
<path style="fill:#FFD05B;" d="M262.2,263.6H141.9c-0.8,0-1.4-0.6-1.4-1.4V141.9c0-0.8,0.6-1.4,1.4-1.4h120.3c0.8,0,1.4,0.6,1.4,1.4
	v120.3C263.6,263,263,263.6,262.2,263.6z"/>
<rect x="184.9" y="140.5" style="fill:#FF7058;" width="34.4" height="13.5"/>
<path style="fill:#F9B54C;" d="M221.3,177.6h-38.4c-2.7,0-4.9-2.2-4.9-4.9l0,0c0-2.7,2.2-4.9,4.9-4.9h38.4c2.7,0,4.9,2.2,4.9,4.9
	l0,0C226.2,175.4,224,177.6,221.3,177.6z"/>
</svg>