<?xml version="1.0" encoding="iso-8859-1"?>
<!-- Uploaded to: SVG Repo, www.svgrepo.com, Generator: SVG Repo Mixer Tools -->
<!DOCTYPE svg PUBLIC "-//W3C//DTD SVG 1.1//EN" "http://www.w3.org/Graphics/SVG/1.1/DTD/svg11.dtd">
<svg fill="#000000" version="1.1" id="Capa_1" xmlns="http://www.w3.org/2000/svg" xmlns:xlink="http://www.w3.org/1999/xlink" 
	 width="800px" height="800px" viewBox="0 0 42.928 42.928"
	 xml:space="preserve">
<g>
	<path d="M42.177,20.54l-3.771-2.041V7.927c0-0.53-0.291-1.021-0.758-1.272l-10.69-5.79c-0.433-0.233-0.947-0.233-1.38,0
		L14.887,6.654c-0.465,0.254-0.758,0.742-0.758,1.272v1.718l-1.301-0.705c-0.432-0.233-0.949-0.233-1.379,0l-10.691,5.79
		C0.291,14.983,0,15.47,0,16.001v13.188c0,0.53,0.291,1.021,0.758,1.272l10.693,5.79c0.215,0.116,0.451,0.176,0.688,0.176
		c0.236,0,0.474-0.06,0.688-0.176l5.826-3.156v1.903c0,0.531,0.291,1.021,0.761,1.273l10.689,5.789
		c0.215,0.115,0.451,0.176,0.689,0.176c0.236,0,0.473-0.061,0.689-0.176l10.688-5.789c0.465-0.254,0.758-0.742,0.758-1.273V21.813
		C42.936,21.281,42.642,20.792,42.177,20.54z M29.833,14.899l-2.115,1.146v-1.462l1.929-1.047V14.2
		C29.646,14.454,29.718,14.69,29.833,14.899z M30.796,17.668l7.649,4.145l-2.68,1.45l-7.191-4.391L30.796,17.668z M35.513,16.93
		l-3.319-1.797c0.215-0.253,0.351-0.576,0.351-0.934v-2.231l2.971-1.61L35.513,16.93L35.513,16.93z M26.27,3.783l7.651,4.144
		l-2.679,1.451l-7.196-4.392L26.27,3.783z M21.1,6.582l7.2,4.392l-2.028,1.1l-7.653-4.146L21.1,6.582z M12.139,11.858l1.99,1.08
		l5.66,3.063l-2.678,1.45l-2.982-1.818l-4.215-2.57L12.139,11.858z M12.141,20.147l-7.654-4.146l2.484-1.345l7.158,4.367
		l0.039,0.023l-0.039,0.021L12.141,20.147z M13.588,32.552v-9.896l0.963-0.521l0.967-0.521v0.665c0,0.18,0.037,0.349,0.096,0.506
		c0.207,0.55,0.732,0.939,1.353,0.939c0.108,0,0.215-0.015,0.317-0.035c0.646-0.146,1.129-0.723,1.129-1.41v-2.234l2.972-1.61v1.043
		l-1.967,1.064c-0.468,0.252-0.759,0.742-0.759,1.273v7.991L13.588,32.552z M30.798,25.956l-7.653-4.144l2.483-1.347l7.196,4.392
		L30.798,25.956z M40.038,34.14l-7.796,4.225v-9.896l1.931-1.046v0.665c0,0.8,0.647,1.447,1.446,1.447
		c0.8,0,1.447-0.647,1.447-1.447v-2.231l2.972-1.609V34.14L40.038,34.14z"/>
</g>
</svg>