<?xml version="1.0" encoding="iso-8859-1"?>
<!-- Uploaded to: SVG Repo, www.svgrepo.com, Generator: SVG Repo Mixer Tools -->
<!DOCTYPE svg PUBLIC "-//W3C//DTD SVG 1.1//EN" "http://www.w3.org/Graphics/SVG/1.1/DTD/svg11.dtd">
<svg fill="#000000" version="1.1" id="Capa_1" xmlns="http://www.w3.org/2000/svg" xmlns:xlink="http://www.w3.org/1999/xlink" 
	 width="800px" height="800px" viewBox="0 0 980.954 980.955"
	 xml:space="preserve">
<g>
	<g>
		<path d="M980.954,154.181H794.946l-281.25,499.875c-15.543-5.318-32.201-8.209-49.523-8.209c-4.571,0-9.095,0.213-13.565,0.605
			l116.502-205.108l26.405,14.998l90.682-159.651l-26.405-14.998l0,0l-111.616-63.397l-334.3-189.881l-90.682,159.65l26.406,14.999
			L0,462.923l373.914,212.381c-11.394,8.324-21.608,18.17-30.323,29.252L48.999,538.806l-33.344,59.262l298.764,168.1
			c-2.345,10.641-3.593,21.689-3.593,33.025c0,84.557,68.791,153.346,153.346,153.346c84.556,0,153.347-68.791,153.347-153.346
			c0-42.768-17.606-81.496-45.942-109.336l208.956-371.383l200.422-0.084V154.181z M373.12,333.767l-40.116,70.37l-30.351-17.302
			l40.115-70.371L373.12,333.767z M237.418,121.127l250.08,142.045l77.579,44.064l26.405,14.998l-23.513,41.395l-26.405-14.998
			l-301.253-171.11l-26.406-14.998L237.418,121.127z M284.736,280.958l-74.835,131.274l148.501,84.656l74.967-131.506l74.61,42.378
			L393.965,608.49L92.712,437.38l114.014-200.73L284.736,280.958z M549.519,799.193c0,47.061-38.286,85.346-85.347,85.346
			c-45.967,0-83.542-36.533-85.263-82.088c-0.041-1.084-0.083-2.166-0.083-3.258c0-23.666,9.687-45.105,25.297-60.58
			c15.432-15.299,36.654-24.766,60.049-24.766c5.159,0,10.204,0.486,15.113,1.367c23.739,4.262,44.092,18.361,56.685,37.926
			C544.529,766.437,549.519,782.238,549.519,799.193z M912.954,250.418l-94.153,0.039l15.91-28.277h78.243V250.418z"/>
	</g>
</g>
</svg>