<?xml version="1.0" encoding="iso-8859-1"?>
<!-- Uploaded to: SVG Repo, www.svgrepo.com, Generator: SVG Repo Mixer Tools -->
<svg fill="#000000" height="800px" width="800px" version="1.1" id="Capa_1" xmlns="http://www.w3.org/2000/svg" xmlns:xlink="http://www.w3.org/1999/xlink" 
	 viewBox="0 0 485.526 485.526" xml:space="preserve">
<g>
	<g id="Icons_33_">
		<g>
			<path d="M419.323,296.166L253.86,368.183c-1.129-0.525-2.168-1.219-3.313-1.678L112.263,48.796
				c-11.2-25.757-41.257-37.562-67.031-26.37l-19.956,8.686c-12.372,5.395-18.04,19.793-12.643,32.162
				c5.375,12.38,19.79,18.059,32.152,12.656l19.949-8.686c0.846-0.414,2.322,0.159,2.723,1.058l131.18,301.362
				c-28.034,15.033-40.478,49.081-27.572,78.762c13.604,31.253,49.986,45.559,81.221,31.956
				c28.641-12.467,42.768-43.991,34.521-73.226l152.025-66.171c12.373-5.386,18.041-19.785,12.645-32.161
				C446.118,296.476,431.764,290.803,419.323,296.166z"/>
			<g>
				<path d="M386.001,1.679L174.646,92.805c-10.381,4.476-15.172,16.521-10.695,26.9l9.266,21.494
					c1.347,3.122,4.967,4.561,8.09,3.213l14.629-6.307l69.361,160.876c3.306,7.665,12.229,11.211,19.889,7.907l180.611-77.87
					c7.66-3.303,11.206-12.225,7.902-19.889L404.335,48.253l14.618-6.303c3.126-1.347,4.563-4.965,3.218-8.087l-9.268-21.494
					C408.428,1.989,396.382-2.798,386.001,1.679z M456.081,213.645l-175.406,75.627l-68.242-158.28L387.84,55.365L456.081,213.645z"
					/>
				<path d="M275.271,157.773l88.898-38.329c6.829-2.945,9.985-10.873,7.038-17.707c-2.945-6.833-10.876-9.982-17.705-7.037
					l-88.9,38.329c-6.83,2.945-9.984,10.873-7.039,17.706C260.511,157.569,268.442,160.718,275.271,157.773z"/>
			</g>
		</g>
	</g>
</g>
</svg>