<?xml version="1.0" encoding="UTF-8" standalone="no"?>
<!-- Uploaded to: SVG Repo, www.svgrepo.com, Generator: SVG Repo Mixer Tools -->

<svg
   fill="#000000"
   height="800px"
   width="800px"
   version="1.1"
   id="Capa_1"
   viewBox="0 0 491.682 491.682"
   xml:space="preserve"
   sodipodi:docname="seashell-conch-svgrepo-com.svg"
   inkscape:export-filename="..\..\..\devspace\projects\powershell\_repos\phallems-general-resources\logos\cosmicshell\logo-200x200.png"
   inkscape:export-xdpi="24"
   inkscape:export-ydpi="24"
   inkscape:version="1.3.2 (091e20e, 2023-11-25, custom)"
   xmlns:inkscape="http://www.inkscape.org/namespaces/inkscape"
   xmlns:sodipodi="http://sodipodi.sourceforge.net/DTD/sodipodi-0.dtd"
   xmlns:xlink="http://www.w3.org/1999/xlink"
   xmlns="http://www.w3.org/2000/svg"
   xmlns:svg="http://www.w3.org/2000/svg"><defs
   id="defs5"><linearGradient
     id="linearGradient112"
     inkscape:collect="always"><stop
       style="stop-color:#f248ae;stop-opacity:1;"
       offset="0"
       id="stop113" /><stop
       style="stop-color:#b8fbb5;stop-opacity:0.49803922;"
       offset="0.5"
       id="stop115" /><stop
       style="stop-color:#48f284;stop-opacity:0.24705882;"
       offset="0.75"
       id="stop116" /><stop
       style="stop-color:#46f15d;stop-opacity:0.12156863;"
       offset="0.875"
       id="stop117" /><stop
       style="stop-color:#f248ae;stop-opacity:0;"
       offset="1"
       id="stop114" /></linearGradient><linearGradient
     id="linearGradient88"
     inkscape:collect="always"><stop
       style="stop-color:#cfc4fb;stop-opacity:1;"
       offset="0"
       id="stop84" /><stop
       style="stop-color:#9e64f2;stop-opacity:0.69999999;"
       offset="0.36092716"
       id="stop85" /><stop
       style="stop-color:#43d9c4;stop-opacity:0.97254902;"
       offset="0.57560706"
       id="stop86" /><stop
       style="stop-color:#dcc6fd;stop-opacity:0.68259388;"
       offset="0.74475718"
       id="stop87" /><stop
       style="stop-color:#3533ff;stop-opacity:0;"
       offset="1"
       id="stop88" /></linearGradient><linearGradient
     id="linearGradient78"
     inkscape:collect="always"><stop
       style="stop-color:#6059f4;stop-opacity:1;"
       offset="0"
       id="stop79" /><stop
       style="stop-color:#90e5d9;stop-opacity:0.67450982;"
       offset="0.32339954"
       id="stop81" /><stop
       style="stop-color:#fffcfe;stop-opacity:1;"
       offset="0.63300222"
       id="stop82" /><stop
       style="stop-color:#ffffff;stop-opacity:0.49803922;"
       offset="0.81650114"
       id="stop118" /><stop
       style="stop-color:#000000;stop-opacity:0;"
       offset="1"
       id="stop80" /></linearGradient><linearGradient
     id="linearGradient74"
     inkscape:collect="always"><stop
       style="stop-color:#6c50f7;stop-opacity:0.86666667;"
       offset="0"
       id="stop75" /><stop
       style="stop-color:#615af4;stop-opacity:1;"
       offset="0.24199778"
       id="stop78" /><stop
       style="stop-color:#cb46e3;stop-opacity:1;"
       offset="0.47295803"
       id="stop77" /><stop
       style="stop-color:#df4cc2;stop-opacity:1;"
       offset="0.72295809"
       id="stop76" /><stop
       style="stop-color:#b954e9;stop-opacity:1;"
       offset="1"
       id="stop74" /></linearGradient><linearGradient
     id="linearGradient71"
     inkscape:collect="always"><stop
       style="stop-color:#6358f5;stop-opacity:0.97647059;"
       offset="0"
       id="stop73" /><stop
       style="stop-color:#58a5af;stop-opacity:0.75294119;"
       offset="0.33664459"
       id="stop83" /><stop
       style="stop-color:#98dcf1;stop-opacity:0.73725492;"
       offset="0.54470199"
       id="stop89" /><stop
       style="stop-color:#486e90;stop-opacity:0;"
       offset="0.875"
       id="stop90" /><stop
       style="stop-color:#6193c1;stop-opacity:0;"
       offset="1"
       id="stop72" /></linearGradient><linearGradient
     id="linearGradient59"
     inkscape:collect="always"><stop
       style="stop-color:#ff474c;stop-opacity:1;"
       offset="0"
       id="stop59" /><stop
       style="stop-color:#eb46be;stop-opacity:1;"
       offset="0.5"
       id="stop61" /><stop
       style="stop-color:#c746e7;stop-opacity:1;"
       offset="0.75"
       id="stop62" /><stop
       style="stop-color:#729ef0;stop-opacity:1;"
       offset="1"
       id="stop60" /></linearGradient><linearGradient
     id="linearGradient49"
     inkscape:collect="always"><stop
       style="stop-color:#462efa;stop-opacity:1;"
       offset="0"
       id="stop50" /><stop
       style="stop-color:#8e4efa;stop-opacity:1;"
       offset="0.15783668"
       id="stop52" /><stop
       style="stop-color:#c54ed9;stop-opacity:1;"
       offset="0.41225168"
       id="stop53" /><stop
       style="stop-color:#d546d7;stop-opacity:1;"
       offset="0.92660052"
       id="stop54" /><stop
       style="stop-color:#ff476a;stop-opacity:1;"
       offset="1"
       id="stop51" /></linearGradient><linearGradient
     id="linearGradient45"
     inkscape:collect="always"><stop
       style="stop-color:#4c55f4;stop-opacity:1;"
       offset="0"
       id="stop46" /><stop
       style="stop-color:#22cce8;stop-opacity:0.67843139;"
       offset="0.37417218"
       id="stop48" /><stop
       style="stop-color:#22cce8;stop-opacity:0.67918086;"
       offset="0.57339954"
       id="stop49" /><stop
       style="stop-color:#fafefe;stop-opacity:0.33725491;"
       offset="0.68294704"
       id="stop107" /><stop
       style="stop-color:#000000;stop-opacity:0;"
       offset="0.79249448"
       id="stop47" /></linearGradient><linearGradient
     id="linearGradient39"
     inkscape:collect="always"><stop
       style="stop-color:#4d48f9;stop-opacity:1;"
       offset="0"
       id="stop40" /><stop
       style="stop-color:#43d9c4;stop-opacity:0.97254902;"
       offset="0.44922739"
       id="stop42" /><stop
       style="stop-color:#43d9c4;stop-opacity:0.97254902;"
       offset="0.57560706"
       id="stop43" /><stop
       style="stop-color:#ffffff;stop-opacity:0.32081914;"
       offset="0.74475718"
       id="stop44" /><stop
       style="stop-color:#3533ff;stop-opacity:0;"
       offset="1"
       id="stop41" /></linearGradient><linearGradient
     id="linearGradient31"
     inkscape:collect="always"><stop
       style="stop-color:#3533ff;stop-opacity:1;"
       offset="0"
       id="stop31" /><stop
       style="stop-color:#9e53f9;stop-opacity:1;"
       offset="0.49337748"
       id="stop33" /><stop
       style="stop-color:#fb47ac;stop-opacity:1;"
       offset="0.91225165"
       id="stop45" /><stop
       style="stop-color:#f74047;stop-opacity:1;"
       offset="1"
       id="stop32" /></linearGradient><linearGradient
     id="linearGradient18"
     inkscape:collect="always"><stop
       style="stop-color:#3533ff;stop-opacity:1;"
       offset="0"
       id="stop19" /><stop
       style="stop-color:#786eee;stop-opacity:1;"
       offset="0.27924946"
       id="stop25" /><stop
       style="stop-color:#b245ff;stop-opacity:1;"
       offset="0.54470199"
       id="stop26" /><stop
       style="stop-color:#ff47a7;stop-opacity:1;"
       offset="0.89707506"
       id="stop27" /><stop
       style="stop-color:#ff4732;stop-opacity:1;"
       offset="1"
       id="stop20" /></linearGradient><linearGradient
     inkscape:collect="always"
     xlink:href="#linearGradient18"
     id="linearGradient27"
     x1="148.114"
     y1="245.84036"
     x2="491.68259"
     y2="245.84036"
     gradientUnits="userSpaceOnUse"
     gradientTransform="matrix(0.97262171,0,0,0.97262171,3.687613,3.654625)" /><linearGradient
     inkscape:collect="always"
     xlink:href="#linearGradient31"
     id="linearGradient32"
     x1="82.433"
     y1="223.11153"
     x2="279.35237"
     y2="223.11153"
     gradientUnits="userSpaceOnUse"
     gradientTransform="matrix(0.97262171,0,0,0.97262171,3.687613,3.654625)" /><linearGradient
     inkscape:collect="always"
     xlink:href="#linearGradient18"
     id="linearGradient54"
     gradientUnits="userSpaceOnUse"
     x1="148.114"
     y1="245.84036"
     x2="491.68259"
     y2="245.84036"
     gradientTransform="matrix(0.97262171,0,0,0.97262171,3.687613,3.654625)" /><linearGradient
     inkscape:collect="always"
     xlink:href="#linearGradient49"
     id="linearGradient58"
     x1="38.724174"
     y1="210.40204"
     x2="203.49033"
     y2="210.40204"
     gradientUnits="userSpaceOnUse"
     gradientTransform="translate(4.91682)" /><radialGradient
     inkscape:collect="always"
     xlink:href="#linearGradient59"
     id="radialGradient60"
     cx="65.616638"
     cy="200.87845"
     fx="65.616638"
     fy="200.87845"
     r="52.246574"
     gradientTransform="matrix(1,0,0,1.2873788,2.8532383,-56.455947)"
     gradientUnits="userSpaceOnUse" /><linearGradient
     inkscape:collect="always"
     xlink:href="#linearGradient74"
     id="linearGradient75"
     x1="3.2007039"
     y1="180.82107"
     x2="65.896446"
     y2="180.82107"
     gradientUnits="userSpaceOnUse"
     gradientTransform="matrix(0.87826102,0,0,0.87826102,6.0366199,24.621424)" /><radialGradient
     inkscape:collect="always"
     xlink:href="#linearGradient88"
     id="radialGradient58-3"
     cx="316.2908"
     cy="242.72614"
     fx="316.2908"
     fy="242.72614"
     r="171.63606"
     gradientTransform="matrix(1,0,0,1.1453048,-4.2797884,-39.76322)"
     gradientUnits="userSpaceOnUse" /><linearGradient
     inkscape:collect="always"
     xlink:href="#linearGradient18"
     id="linearGradient83"
     gradientUnits="userSpaceOnUse"
     gradientTransform="matrix(0.97262171,0,0,0.97262171,-0.59217544,-0.83931129)"
     x1="148.114"
     y1="245.84036"
     x2="491.68259"
     y2="245.84036" /><filter
     inkscape:collect="always"
     style="color-interpolation-filters:sRGB"
     id="filter88"
     x="-0.30237402"
     y="-0.27280743"
     width="1.6135053"
     height="1.5454146"><feGaussianBlur
       inkscape:collect="always"
       stdDeviation="40.812594"
       id="feGaussianBlur88" /></filter><linearGradient
     inkscape:collect="always"
     xlink:href="#linearGradient71"
     id="linearGradient90"
     x1="6.5733991"
     y1="183.4294"
     x2="66.185188"
     y2="183.4294"
     gradientUnits="userSpaceOnUse" /><linearGradient
     inkscape:collect="always"
     xlink:href="#linearGradient39"
     id="linearGradient106"
     x1="144.65475"
     y1="242.72614"
     x2="487.92688"
     y2="242.72614"
     gradientUnits="userSpaceOnUse" /><linearGradient
     inkscape:collect="always"
     xlink:href="#linearGradient45"
     id="linearGradient107"
     x1="79.352844"
     y1="220.65601"
     x2="281.37161"
     y2="220.65601"
     gradientUnits="userSpaceOnUse" /><radialGradient
     inkscape:collect="always"
     xlink:href="#linearGradient112"
     id="radialGradient114"
     cx="126.02405"
     cy="210.40204"
     fx="126.02405"
     fy="210.40204"
     r="82.383115"
     gradientTransform="matrix(1,0,0,1.3355178,0,-70.593629)"
     gradientUnits="userSpaceOnUse" /><radialGradient
     inkscape:collect="always"
     xlink:href="#linearGradient78"
     id="radialGradient117"
     cx="66.860329"
     cy="202.15163"
     fx="66.860329"
     fy="202.15163"
     r="56.926586"
     gradientTransform="matrix(1,0,0,1.2355397,0,-47.614726)"
     gradientUnits="userSpaceOnUse" /></defs><sodipodi:namedview
   id="namedview5"
   pagecolor="#000000"
   bordercolor="#000000"
   borderopacity="0.25"
   inkscape:showpageshadow="2"
   inkscape:pageopacity="0.0"
   inkscape:pagecheckerboard="0"
   inkscape:deskcolor="#202020"
   showgrid="false"
   inkscape:zoom="0.82466328"
   inkscape:cx="581.44943"
   inkscape:cy="796.6888"
   inkscape:window-width="2116"
   inkscape:window-height="1689"
   inkscape:window-x="3234"
   inkscape:window-y="283"
   inkscape:window-maximized="0"
   inkscape:current-layer="g5" />
<g
   id="g5">
	
	<path
   d="M 459.19454,187.8575 C 417.74628,97.784954 255.83588,31.768256 160.20869,57.986246 c -4.47891,1.233285 -8.47057,2.798233 -12.46218,4.360264 1.60286,-0.06906 3.20187,-0.344308 4.80671,-0.344308 66.34932,0 125.07038,60.150828 136.59303,139.934978 6.04192,41.78091 -1.53771,83.04438 -21.3549,116.19619 -20.13714,33.68287 -50.43043,54.99982 -85.31448,60.02925 -5.16363,0.75671 -10.41873,1.13504 -15.6242,1.13504 -3.14447,0 -6.24131,-0.26359 -9.3537,-0.52425 6.01276,7.95119 12.25211,14.94433 18.72199,21.01448 42.75937,40.08659 107.47275,44.74741 155.62143,11.34271 34.25671,-23.75337 79.66357,-48.89952 122.97636,-53.34537 6.9348,-0.71488 12.95921,-5.16754 15.65726,-11.5956 18.87178,-44.8505 13.88029,-103.6202 -11.28147,-158.33213 z"
   id="path14"
   style="display:inline;opacity:0.972772;fill:url(#linearGradient54);fill-opacity:1;stroke:none;stroke-width:1.87522;stroke-dasharray:none"
   inkscape:label="shell-bottom - level 3"
   sodipodi:insensitive="true" /><path
   d="m 180.22526,362.55592 c 30.09388,-4.34568 56.38288,-22.99764 74.02331,-52.51281 17.94973,-30.05304 24.80769,-67.64098 19.27639,-105.84653 -10.40024,-72.07224 -62.42092,-126.417482 -120.9708,-126.417482 -4.4225,0 -8.89268,0.316102 -13.35896,0.955115 -12.15776,1.756555 -23.63568,5.955363 -34.22167,12.147072 51.43223,-2.172836 97.76793,43.883715 106.62267,105.339795 4.54798,31.44097 -1.17008,62.5211 -16.09979,87.49608 -15.25461,25.50992 -38.24447,41.66614 -64.74549,45.48076 -3.96051,0.56995 -7.93464,0.85395 -11.86307,0.85395 -12.15776,0 -23.976101,-2.71069 -35.024111,-7.61076 25.347501,29.15044 60.106081,45.36891 96.361521,40.11481 z"
   id="path2"
   style="display:inline;fill:url(#linearGradient32);stroke:url(#linearGradient107);stroke-width:7.83741;stroke-dasharray:none;stroke-opacity:1" /><path
   d="m 133.41803,313.58052 c 21.70894,-3.12698 40.69453,-16.6114 53.45142,-37.95948 13.08369,-21.87911 18.05868,-49.27397 14.02422,-77.14055 -7.567,-52.42822 -45.25512,-91.95652 -87.67407,-91.95652 -3.19117,0 -6.39691,0.22273 -9.61824,0.68375 -12.462194,1.80422 -23.713482,7.09722 -33.419274,14.86847 31.277564,2.75252 57.995474,31.6423 63.436324,69.41407 6.25591,43.30793 -17.78245,82.75258 -53.558378,87.92013 -2.633859,0.38515 -5.273555,0.57288 -7.888934,0.57288 -4.547007,0 -8.999669,-0.67013 -13.357987,-1.74294 18.65683,25.01779 46.069199,39.47677 74.604919,35.34019 z"
   id="path3"
   style="display:inline;opacity:1;fill:url(#linearGradient58);stroke:url(#radialGradient114);stroke-width:12.2921;stroke-dasharray:none" />
	
	<path
   d="m 76.298253,268.97325 c 29.323577,-4.23771 48.861607,-37.66477 43.546217,-74.51254 -4.90103,-33.96103 -29.260349,-59.57113 -56.65813,-59.57113 -2.049314,0 -4.113218,0.14881 -6.19171,0.4474 -1.806159,0.26358 -3.485876,0.94052 -5.224924,1.41905 11.880574,7.46585 21.109782,22.08825 23.668749,39.84345 4.021791,27.79753 -9.77193,52.88339 -30.726092,55.917 -1.43559,0.20133 -2.850754,0.30929 -4.267864,0.30929 -8.877119,0 -17.260145,-4.10641 -24.221199,-10.80777 8.983134,30.07735 33.571984,50.69985 60.074953,46.95525 z"
   id="path4"
   style="display:inline;opacity:1;fill:url(#radialGradient60);stroke:url(#radialGradient117);stroke-width:6.14603;stroke-dasharray:none"
   sodipodi:insensitive="true" />
	<path
   d="M 41.799571,220.85655 C 56.440829,218.7381 65.913227,200.22297 62.936285,179.5928 60.148979,160.3311 47.578341,145.80345 33.706731,145.80345 c -0.905469,0 -1.8135,0.0607 -2.735199,0.19562 -14.639549,2.12444 -24.1256149,20.63956 -21.1503815,41.27571 2.9393565,20.22441 17.4294185,35.73013 31.9784205,33.58177 z"
   id="path5"
   style="fill:url(#linearGradient75);fill-opacity:1;stroke:url(#linearGradient90);stroke-width:5.39781;stroke-dasharray:none"
   sodipodi:insensitive="true" />
<path
   d="M 459.19454,187.8575 C 417.74628,97.784954 255.83588,31.768256 160.20869,57.986246 c -4.47891,1.233285 -8.47057,2.798233 -12.46218,4.360264 1.60286,-0.06906 3.20187,-0.344308 4.80671,-0.344308 66.34932,0 125.07038,60.150828 136.59303,139.934978 6.04192,41.78091 -1.53771,83.04438 -21.3549,116.19619 -20.13714,33.68287 -50.43043,54.99982 -85.31448,60.02925 -5.16363,0.75671 -10.41873,1.13504 -15.6242,1.13504 -3.14447,0 -6.24131,-0.26359 -9.3537,-0.52425 6.01276,7.95119 12.25211,14.94433 18.72199,21.01448 42.75937,40.08659 107.47275,44.74741 155.62143,11.34271 34.25671,-23.75337 79.66357,-48.89952 122.97636,-53.34537 6.9348,-0.71488 12.95921,-5.16754 15.65726,-11.5956 18.87178,-44.8505 13.88029,-103.6202 -11.28147,-158.33213 z"
   id="path31"
   style="display:inline;opacity:1;fill:url(#linearGradient27);fill-opacity:1;stroke:url(#linearGradient106);stroke-width:11.9555;stroke-dasharray:none;stroke-dashoffset:0"
   inkscape:label="shell-bottom - level 3" /><path
   d="M 454.91475,183.36356 C 413.46649,93.291021 251.55609,27.27432 155.9289,53.492311 c -4.47891,1.23328 -8.47057,2.79823 -12.46218,4.36026 1.60286,-0.0691 3.20187,-0.3443 4.80671,-0.3443 66.34932,0 125.07038,60.150819 136.59303,139.934969 6.04192,41.78091 -1.53771,83.04438 -21.3549,116.19619 -20.13714,33.68287 -50.43043,54.99982 -85.31448,60.02925 -5.16363,0.75671 -10.41873,1.13504 -15.6242,1.13504 -3.14447,0 -6.24131,-0.26359 -9.3537,-0.52425 6.01276,7.95119 12.25211,14.94433 18.72199,21.01448 42.75937,40.08659 107.47275,44.74741 155.62143,11.34271 34.25671,-23.75337 79.66357,-48.89952 122.97636,-53.34537 6.9348,-0.71488 12.95921,-5.16754 15.65726,-11.5956 18.87178,-44.8505 13.88029,-103.6202 -11.28147,-158.33213 z"
   id="path31-9"
   style="display:inline;opacity:0.613861;mix-blend-mode:normal;fill:url(#linearGradient83);fill-opacity:1;stroke:url(#radialGradient58-3);stroke-width:11.9555;stroke-dasharray:none;stroke-dashoffset:0;filter:url(#filter88)"
   inkscape:label="shell-bottom - level 3"
   transform="matrix(0.96267897,0,0,0.96267897,-11.831649,53.42054)" /></g>
</svg>
