<?xml version="1.0" ?>
<!-- Uploaded to: SVG Repo, www.svgrepo.com, Generator: SVG Repo Mixer Tools -->
<svg width="800px" height="800px" viewBox="0 0 512 512" id="Layer_1" version="1.1" xml:space="preserve" xmlns="http://www.w3.org/2000/svg" xmlns:xlink="http://www.w3.org/1999/xlink">
<style type="text/css">
	.st0{fill:#3B4652;}
	.st1{fill:#2B79C2;}
</style>
<g>
<path class="st1" d="M177.5,256c38.7,0,70.1-31.4,70.1-70.1c0-38.7-31.4-70.1-70.1-70.1c-38.7,0-70.1,31.4-70.1,70.1   C107.4,224.6,138.8,256,177.5,256z M177.5,144.1c23,0,41.8,18.7,41.8,41.8c0,23-18.7,41.8-41.8,41.8c-23,0-41.8-18.7-41.8-41.8   C135.7,162.9,154.5,144.1,177.5,144.1z"/>
<path class="st0" d="M257.6,185.9c0,30.1-16.7,56.4-41.4,70.1h208.7c2.9,0,5.9-0.2,8.7-0.5c2.3-0.3,4.6-0.7,6.9-1.2   c18.8-4.3,34.6-16,44.3-32h-15.7c-3.9,0-7-3.1-7-7c0-3.9,3.1-7,7-7h22.2c2.4-7,3.6-14.6,3.6-22.4c0-7.6-1.2-14.9-3.4-21.7h-76.9   c-3.9,0-7-3.1-7-7c0-3.9,3.1-7,7-7h70.5c-10.8-18.2-29.6-31.1-51.6-33.8c-2.9-0.4-5.8-0.5-8.7-0.5H216.2   C240.9,129.4,257.6,155.7,257.6,185.9z M420.5,208.3h13.3c3.9,0,7,3.1,7,7c0,3.9-3.1,7-7,7h-13.3c-3.9,0-7-3.1-7-7   C413.5,211.4,416.6,208.3,420.5,208.3z M363,150.1h27c3.9,0,7,3.1,7,7c0,3.9-3.1,7-7,7h-27c-3.9,0-7-3.1-7-7   C356,153.3,359.1,150.1,363,150.1z M358.5,208.3h21.7c3.9,0,7,3.1,7,7c0,3.9-3.1,7-7,7h-21.7c-3.9,0-7-3.1-7-7   C351.5,211.4,354.6,208.3,358.5,208.3z M283.9,187h45.3c3.9,0,7,3.1,7,7c0,3.9-3.1,7-7,7h-45.3c-3.9,0-7-3.1-7-7   C276.9,190.1,280,187,283.9,187z"/>
<path class="st0" d="M171.5,326.1c0-21.8,8.8-41.6,23-56.1l-30.4-1.1c-11.9-1.9-22.9-6.3-32.6-12.7c-0.2-0.1-0.5-0.2-0.7-0.2l0,0   c-1.3,0-1.9,1.7-0.7,2.5c22.4,14.2,37.3,39.2,37.3,67.7c0,30.2-16.7,56.5-41.4,70.1h87C188.2,382.6,171.5,356.3,171.5,326.1z"/>
<path class="st0" d="M426.6,321.7c-0.1-4,3.1-7.2,7-7.2H494c-3.7-22.2-17.8-40.8-37.2-50.8c-3,1.2-6.1,2.3-9.2,3.2l-8,1.8   c-4.2,1-8.6,1.5-12.9,1.3c-0.6,0-1.2,0-1.8,0H308.7c14.2,14.5,23,34.3,23,56.1c0,30.2-16.7,56.5-41.4,70.1h134.6h8.7v-0.5   c20.6-2.5,38.5-14.1,49.6-30.6h-9.9c-3.8,0-7.2-3-7.3-6.8c-0.1-4,3.1-7.2,7-7.2h17.5c2.7-7.1,4.3-14.7,4.6-22.7h-61.1   C430.1,328.5,426.7,325.5,426.6,321.7z M347.3,289.2c0-3.9,3.1-7,7-7h54.3c3.9,0,7,3.1,7,7c0,3.9-3.1,7-7,7h-54.3   C350.5,296.2,347.3,293.1,347.3,289.2z M414.4,365.1h-34.8c-3.9,0-7-3.1-7-7c0-3.9,3.1-7,7-7h34.8c3.9,0,7,3.1,7,7   C421.4,362,418.3,365.1,414.4,365.1z M433.1,282.2h13.6c3.9,0,7,3.1,7,7c0,3.9-3.1,7-7,7h-13.6c-3.9,0-7-3.1-7-7   C426.1,285.4,429.3,282.2,433.1,282.2z M442.7,351.1c3.9,0,7,3.1,7,7c0,3.9-3.1,7-7,7h-5.2c-3.9,0-7-3.1-7-7c0-3.9,3.1-7,7-7H442.7   z"/>
<path class="st1" d="M321.7,326.1c0-23-11-43.3-28.1-56.1h-84.1c-17,12.8-28.1,33.2-28.1,56.1c0,38.7,31.4,70.1,70.1,70.1   C290.3,396.2,321.7,364.8,321.7,326.1z M251.6,367.9c-23,0-41.8-18.7-41.8-41.8c0-23,18.7-41.8,41.8-41.8c23,0,41.8,18.7,41.8,41.8   C293.3,349.1,274.6,367.9,251.6,367.9z"/>
<path class="st1" d="M157.2,326.1c0-38.7-31.4-70.1-70.1-70.1C48.4,256,17,287.4,17,326.1s31.4,70.1,70.1,70.1   C125.8,396.2,157.2,364.8,157.2,326.1z M87.1,367.9c-23,0-41.8-18.7-41.8-41.8c0-23,18.7-41.8,41.8-41.8c23,0,41.8,18.7,41.8,41.8   C128.9,349.1,110.1,367.9,87.1,367.9z"/>
<path class="st0" d="M269.1,396.2v-0.5c-2.9,0.4-5.8,0.5-8.7,0.5H269.1z"/>
</g>
</svg>