<?xml version="1.0" encoding="UTF-8" standalone="no"?>
<svg
   version="1.1"
   viewBox="0 0 2456 40"
   id="svg9662"
   sodipodi:docname="hr-style-pencel-bluegreen-transparant.svg"
   width="2456"
   height="40"
   inkscape:version="1.4 (86a8ad7, 2024-10-11)"
   xmlns:inkscape="http://www.inkscape.org/namespaces/inkscape"
   xmlns:sodipodi="http://sodipodi.sourceforge.net/DTD/sodipodi-0.dtd"
   xmlns="http://www.w3.org/2000/svg"
   xmlns:svg="http://www.w3.org/2000/svg">
  <sodipodi:namedview
     id="namedview9664"
     pagecolor="#393939"
     bordercolor="#000000"
     borderopacity="0.25"
     inkscape:showpageshadow="2"
     inkscape:pageopacity="0"
     inkscape:pagecheckerboard="0"
     inkscape:deskcolor="#d1d1d1"
     showgrid="false"
     inkscape:zoom="0.59175999"
     inkscape:cx="981.81697"
     inkscape:cy="-323.61093"
     inkscape:window-width="2199"
     inkscape:window-height="1431"
     inkscape:window-x="948"
     inkscape:window-y="257"
     inkscape:window-maximized="0"
     inkscape:current-layer="svg9662" />
  <path
     d="m 44.936282,24.149644 c 1.853115,0 -12.971804,0 5.559346,0 18.53115,0 58.373122,0 50.034102,0 -8.339016,0 -46.327873,-0.926549 -75.051157,0 -28.7232837,0.926549 -7.41246,1.853099 -11.11869,2.77968 -3.70623,0.926549 -26.87017,-0.926581 0,0 26.87017,0.926549 43.548205,1.853098 80.610511,2.779648 37.062306,0.926546 10.192136,0 30.576406,0 20.38426,0 2.77967,0 30.57639,0 27.79672,0 26.87015,0 52.81378,0 25.94361,0 5.55935,-0.92655 25.01707,0 19.45771,0.926546 15.75148,1.853096 33.35607,2.779676 17.60459,0.926549 5.55934,0 19.4577,0 13.89836,0 36.13573,0 22.23739,0 -13.89837,0 -30.5764,0 -63.93248,0 -33.35608,0 -22.23739,0 -36.13575,0 -13.89837,0 1.85312,-0.92658 -5.55934,0 -7.41246,0.926549 -11.1187,1.853129 -16.67804,2.77971 -5.55935,0.92655 -25.01705,0.92655 0,0 25.01705,-0.926581 22.23738,-0.92661 75.05116,-2.77971 52.81376,-1.85313 46.32792,-1.85313 83.39017,-2.779676 37.06232,-0.92655 17.60459,0 27.79673,0 10.19215,0 -5.55935,0 2.77965,0 8.33903,0 -4.63274,0 22.23744,0 26.87017,0 37.98881,0 58.37307,0 20.38426,0 -4.63279,0 2.77968,0 7.41247,0 3.70627,0.926546 19.45773,0 15.75147,-0.92655 2.77965,-1.853099 27.79668,-2.779648 25.01704,-0.926581 26.87016,0 47.25446,0 20.38425,0 3.70622,1.853098 13.89838,0 10.19214,-1.853131 3.7062,-1.8531 16.67799,-5.559356 12.97185,-3.706229 12.04529,-2.779679 22.23743,-5.559358 10.19216,-2.77968 -4.63279,-1.85313 8.33901,-2.77968 12.97179,-0.926549 10.19214,0 30.5764,0 20.38427,0 10.19215,0 30.57641,0 20.38426,0 13.89835,0 30.57641,0 16.67803,0 4.63275,0 19.45767,0 14.82493,0 4.63283,0.92655 25.01708,0 20.38426,-0.926549 14.82494,-1.853095 36.13573,-2.779645 21.31082,-0.9265801 5.55929,0 27.79667,0 22.23741,0 12.0453,0 38.9155,0 26.87023,0 19.45776,0 41.69514,0 22.23734,0 10.19212,0 25.01702,0 14.82488,0 0.92653,0 19.4577,0 18.53117,0 16.67806,0 36.13579,0 19.45768,0 9.2655,0 22.23729,0 12.97182,0 2.77972,0 16.67812,0 13.8983,0 9.2655,0 25.017,0 15.7515,0 -8.339,-2.7796791 22.2374,0 30.5764,2.779676 41.6951,4.632806 69.4918,8.339034 27.7967,3.706229 5.5594,0.92655 13.8983,2.779649 8.339,1.853127 -1.8531,1.853127 11.1188,2.779676 12.9718,0.926549 10.1922,-0.926549 27.7968,0 17.6045,0.926549 16.6779,2.77968 25.017,2.77968 8.3389,0 -4.6329,0 0,-2.77968 4.6327,-2.779676 -3.7063,-0.926549 13.8983,-5.559325 17.6045,-4.632808 21.3108,-4.632808 38.9154,-8.339034 17.6046,-3.7062592 9.2656,-1.8531297 13.8984,-2.7796791 4.6328,-0.9265496 -5.5594,0.9265494 0,0 5.5594,-0.9265496 5.5594,-1.8530991 16.6781,-2.7796486 11.1187,-0.9265801 1.8531,0 16.6779,0 14.8249,0 12.9719,-0.9265801 27.7968,0 14.8249,0.9265495 6.4859,1.853099 16.678,2.7796486 10.1922,0.9265494 -1.8532,0 13.8984,0 15.7514,0 11.1186,0 33.3561,0 22.2374,0 8.339,-0.9265496 33.356,0 25.0171,0.9265494 13.8984,0.9265494 41.6951,2.7796791 27.7967,1.853096 19.4577,0.92655 41.6951,2.779645 22.2374,1.85313 12.0453,1.85313 25.0171,2.77968 12.9718,0.926549 -18.5312,0 13.8983,0 32.4296,0 38.9155,1.853099 83.3903,0 44.4747,-1.85313 32.4295,-2.77968 50.0341,-5.559325 17.6045,-2.7796791 -7.4126,-0.9265801 2.7795,-2.7796791 10.1922,-1.8530991 9.2656,-1.8530991 27.7968,-2.7796486 18.5311,-0.9265801 18.5311,0 27.7967,0 9.2656,0 -3.7061,0 0,0 3.7063,0 -2.7796,0 11.1187,0 13.8984,0 12.9718,0 30.5764,0 17.6046,0 6.486,0 22.2374,0 15.7516,0 13.8984,-0.9265801 25.017,0 11.1186,0.9265495 -11.1187,-0.9265801 8.3391,2.7796486 19.4577,3.7062291 25.9437,5.5593241 50.0341,8.3390041 24.0906,2.779648 3.7063,0 22.2374,0 18.5311,0 15.7513,0 33.3559,0 17.6046,0 2e-4,0 19.4579,0 19.4578,0 13.8985,0.926549 38.9154,0 25.017,-0.92655 15.7514,-1.85313 36.1356,-2.77968 20.3843,-0.926549 9.2657,0 25.0171,0 15.7516,0 9.2656,0 22.2374,0 12.9717,0 10.1921,0 16.6781,0 6.4859,0 -8.339,0 2.7798,0 11.1187,0 6.4858,0 30.5764,0 24.0904,0 12.9716,0 41.6949,0 28.7233,0 27.7969,0 44.4748,0 16.678,0 -3.7063,0 5.5592,0 9.2656,0 10.1923,0 22.2376,0 12.0453,0 5.5594,0 13.8983,0 8.339,0 -0.9266,0 11.1186,0 12.0453,0 9.2656,0 25.0172,0 15.7514,0 -3.7063,0 22.2373,0 25.9435,0 36.1357,0 55.5934,0 19.4578,0 -13.8982,0 2.7798,0 16.6781,0 25.0171,0 47.2545,0 22.2373,0 12.9717,0 19.4577,0 6.4859,0 0,0 0,0 0,0 0,0 0,0"
     fill="none"
     stroke-width="6.20283"
     stroke="url(#SvgjsLinearGradient1000)"
     stroke-linecap="round"
     stroke-dasharray="none"
     stroke-opacity="0.9"
     id="path9653"
     style="stroke:url(#SvgjsLinearGradient1000);stroke-width:6.203;stroke-dasharray:none;stroke-dashoffset:0" />
  <defs
     id="defs9660">
    <linearGradient
       id="SvgjsLinearGradient1000"
       gradientTransform="matrix(24.98777,0,0,0.38494048,-0.04808769,-540.95785)"
       x1="-0.056973375"
       y1="1408.3661"
       x2="98.361855"
       y2="1408.3661"
       gradientUnits="userSpaceOnUse">
      <stop
         stop-color="hsl(70, 69%, 60%)"
         offset="0"
         id="stop9655"
         style="stop-color:#00ffee;stop-opacity:1;" />
      <stop
         stop-color="hsl(70, 69%, 60%)"
         offset="0.12731482"
         id="stop1"
         style="stop-color:#8085ff;stop-opacity:1;" />
      <stop
         stop-color="hsl(70, 69%, 60%)"
         offset="0.19097224"
         id="stop2"
         style="stop-color:#bddcf3;stop-opacity:1;" />
      <stop
         stop-color="hsl(70, 69%, 60%)"
         offset="0.22280094"
         id="stop3"
         style="stop-color:#b2e6dc;stop-opacity:1;" />
      <stop
         stop-color="hsl(70, 69%, 80%)"
         offset="0.53703707"
         id="stop9657"
         style="stop-color:#a8f0c6;stop-opacity:0;" />
    </linearGradient>
  </defs>
</svg>
